STARTFONT 2.1
COMMENT
COMMENT Converted from OpenType font "NimbusSans-Regular.otf" by "otf2bdf 3.0".
COMMENT
FONT -FreeType-Nimbus Sans-Medium-R-Normal--80-580-100-100-P-418-ISO10646-1
SIZE 58 100 100
FONTBOUNDINGBOX 100 111 -17 -24
STARTPROPERTIES 19
FOUNDRY "FreeType"
FAMILY_NAME "Nimbus Sans"
WEIGHT_NAME "Medium"
SLANT "R"
SETWIDTH_NAME "Normal"
ADD_STYLE_NAME ""
PIXEL_SIZE 80
POINT_SIZE 580
RESOLUTION_X 100
RESOLUTION_Y 100
SPACING "P"
AVERAGE_WIDTH 418
CHARSET_REGISTRY "ISO10646"
CHARSET_ENCODING "1"
FONT_ASCENT 59
FONT_DESCENT 21
COPYRIGHT "(URW)++,Copyright 2014 by (URW)++ Design & Development"
_OTF_FONTFILE "NimbusSans-Regular.otf"
_OTF_PSNAME "NimbusSans-Regular"
ENDPROPERTIES
CHARS 854
STARTCHAR 0020
ENCODING 32
SWIDTH 273 0
DWIDTH 22 0
BBX 0 0 0 0
BITMAP
ENDCHAR
STARTCHAR 0021
ENCODING 33
SWIDTH 273 0
DWIDTH 22 0
BBX 7 59 10 0
BITMAP
FE
FE
FE
FE
FE
FE
FE
FE
FE
FE
FE
FE
FE
FE
FE
FE
FE
FE
FE
FE
FE
FE
FE
FE
FE
FE
FE
FE
FE
FE
FC
FC
7C
7C
7C
7C
7C
7C
7C
7C
78
78
38
38
38
00
00
00
00
00
00
FE
FE
FE
FE
FE
FE
FE
FE
ENDCHAR
STARTCHAR 0022
ENCODING 34
SWIDTH 360 0
DWIDTH 29 0
BBX 21 20 4 37
BITMAP
FF07F8
FF07F8
FF07F8
FF07F8
FF07F8
FF07F8
FF07F8
FF07F8
FF07F8
FF07F0
7E07F0
7E03F0
7E03F0
7E03F0
7E03E0
3C03E0
3C01E0
3C01E0
3C01E0
3C01C0
ENDCHAR
STARTCHAR 0023
ENCODING 35
SWIDTH 558 0
DWIDTH 45 0
BBX 43 58 1 -2
BITMAP
0000FC00FC00
0000FC00FC00
0001F801FC00
0001F801F800
0001F801F800
0001F801F800
0001F801F800
0003F801F800
0003F003F800
0003F003F000
0003F003F000
0003F003F000
0007F003F000
0007E007F000
0007E007E000
0007E007E000
1FFFFFFFFFE0
1FFFFFFFFFE0
1FFFFFFFFFE0
1FFFFFFFFFE0
1FFFFFFFFFE0
000FC00FC000
000FC00FC000
001FC00FC000
001F801FC000
001F801F8000
001F801F8000
001F801F8000
001F801F8000
003F801F8000
003F003F8000
003F003F0000
003F003F0000
003F003F0000
007F003F0000
007E003F0000
FFFFFFFFFF00
FFFFFFFFFF00
FFFFFFFFFF00
FFFFFFFFFF00
FFFFFFFFFF00
00FC00FE0000
00FC00FC0000
00FC00FC0000
00FC00FC0000
01FC00FC0000
01F801FC0000
01F801F80000
01F801F80000
01F801F80000
01F801F80000
03F801F80000
03F003F80000
03F003F00000
03F003F00000
03F003F00000
07F003F00000
07E007F00000
ENDCHAR
STARTCHAR 0024
ENCODING 36
SWIDTH 558 0
DWIDTH 45 0
BBX 39 72 3 -10
BITMAP
00007C0000
00007C0000
00007C0000
00007C0000
0000FE0000
000FFFF000
003FFFFC00
00FFFFFF00
03FFFFFF80
07FFFFFFC0
0FFE7C7FE0
0FF07C1FE0
1FE07C0FF0
1FC07C07F0
3F807C03F8
3F807C03F8
3F007C01F8
3F007C01F8
7F007C01F8
7F007C01FC
7F007C0000
7F007C0000
7F007C0000
3F807C0000
3F807C0000
3FC07C0000
3FE07C0000
1FF87C0000
1FFE7C0000
0FFFFC0000
07FFFF0000
03FFFFE000
01FFFFFC00
007FFFFF00
001FFFFF80
0003FFFFE0
00007FFFF0
00007DFFF8
00007C3FF8
00007C0FFC
00007C03FC
00007C01FE
00007C00FE
00007C00FE
00007C00FE
FE007C007E
FE007C007E
FE007C007E
FE007C007E
FE007C007E
7E007C00FE
7F007C00FE
7F007C01FC
7F807C01FC
3F807C03FC
3FC07C07F8
1FF07C0FF0
1FFC7C3FF0
0FFFFFFFE0
07FFFFFFC0
03FFFFFF80
00FFFFFE00
003FFFF800
0003FF8000
00007C0000
00007C0000
00007C0000
00007C0000
00007C0000
00007C0000
00007C0000
00007C0000
ENDCHAR
STARTCHAR 0025
ENCODING 37
SWIDTH 893 0
DWIDTH 72 0
BBX 67 59 2 -2
BITMAP
000000000001F00000
000000000003F00000
000600000003E00000
007FF0000007E00000
01FFFC000007C00000
07FFFE00000FC00000
0FFFFF00000F800000
1FFFFF80001F800000
1FE07FC0001F000000
3F801FC0003E000000
3F000FE0003E000000
7E0007E0007C000000
7E0007E0007C000000
7C0003F000F8000000
FC0003F001F8000000
FC0003F001F0000000
FC0003F003F0000000
FC0003F003E0000000
7C0003F007E0000000
7E0003E007C0000000
7E0007E00F80000000
3F000FE00F80000000
3F801FC01F00000000
1FE07FC01F00000000
1FFFFF803E00000000
0FFFFF007E00000000
07FFFE007C00000000
01FFF800FC00000000
007FF000F800000000
00060001F800000000
00000001F000000000
00000003E0000E0000
00000003E000FFE000
00000007C003FFF800
00000007C007FFFC00
0000000F800FFFFE00
0000001F801FFFFF00
0000001F003FE0FF80
0000003F007F803FC0
0000003E007F001FC0
0000007E007E000FC0
0000007C00FC0007E0
000000FC00FC0007E0
000000F800F80007E0
000001F000F80003E0
000001F000F80003E0
000003E000F80003E0
000007E000FC0007E0
000007C000FC0007E0
00000FC000FE000FE0
00000F80007E000FC0
00001F80007F001FC0
00001F00003FC07F80
00003F00003FFFFF00
00003E00001FFFFF00
00007C00000FFFFE00
00007C000003FFF800
0000F8000001FFF000
0001F80000003F8000
ENDCHAR
STARTCHAR 0026
ENCODING 38
SWIDTH 670 0
DWIDTH 54 0
BBX 47 59 4 -2
BITMAP
00007F800000
0003FFE00000
000FFFF80000
001FFFFC0000
003FFFFE0000
007FFFFF0000
00FF80FF0000
00FE007F8000
00FC003F8000
01FC001F8000
01FC001F8000
01F8001FC000
01F8001FC000
01F8001FC000
01FC001FC000
01FC001F8000
01FC003F8000
00FE007F8000
00FF00FF0000
007F81FF0000
007F83FE0000
003FCFFC0000
001FFFF80000
001FFFE00000
000FFFC00000
0007FF800000
000FFE000000
003FFE000000
007FFF000000
00FFFF800000
03FF7FC00FC0
07FE3FC00FC0
0FF81FE00FC0
1FF00FF01FC0
3FE00FF81FC0
3FC007FC1FC0
7F8003FE1F80
7F0001FE3F80
7F0000FF3F80
FE0000FFFF00
FE00007FFF00
FE00003FFE00
FE00001FFE00
FE00000FFC00
FE00000FFC00
FF000007FC00
FF000007FE00
7F00000FFF00
7F80001FFF00
7FC0003FFF80
3FE0007FFFC0
3FF801FFBFE0
1FFE1FFF1FF0
0FFFFFFE0FF0
07FFFFFC0FF8
03FFFFF007FC
01FFFFE003FE
007FFF800000
000FF8000000
ENDCHAR
STARTCHAR 0027
ENCODING 39
SWIDTH 186 0
DWIDTH 15 0
BBX 7 20 4 37
BITMAP
FE
FE
FE
FE
FE
FE
FE
FE
FE
FE
FE
FE
7E
7C
7C
7C
7C
3C
38
38
ENDCHAR
STARTCHAR 0028
ENCODING 40
SWIDTH 335 0
DWIDTH 27 0
BBX 17 76 6 -17
BITMAP
000780
000F80
001F00
001E00
003E00
007C00
007C00
00F800
00F800
01F000
01F000
03F000
03E000
07E000
07E000
0FC000
0FC000
0FC000
1F8000
1F8000
1F8000
3F0000
3F0000
3F0000
3F0000
7F0000
7E0000
7E0000
7E0000
7E0000
FE0000
FE0000
FE0000
FE0000
FE0000
FC0000
FC0000
FC0000
FC0000
FC0000
FE0000
FE0000
FE0000
FE0000
FE0000
FE0000
7E0000
7E0000
7E0000
7E0000
7F0000
3F0000
3F0000
3F0000
3F8000
1F8000
1F8000
1F8000
0FC000
0FC000
0FC000
07E000
07E000
03E000
03F000
01F000
01F800
00F800
00FC00
007C00
007E00
003E00
001F00
001F00
000F80
000780
ENDCHAR
STARTCHAR 0029
ENCODING 41
SWIDTH 335 0
DWIDTH 27 0
BBX 18 76 3 -17
BITMAP
F80000
7C0000
3C0000
3E0000
1F0000
1F0000
0F8000
0F8000
07C000
07C000
07E000
03E000
03F000
01F000
01F800
01F800
00FC00
00FC00
00FC00
007E00
007E00
007E00
007F00
003F00
003F00
003F00
003F00
003F80
003F80
001F80
001F80
001F80
001F80
001F80
001FC0
001FC0
001FC0
001FC0
001FC0
001FC0
001FC0
001FC0
001F80
001F80
001F80
001F80
001F80
003F80
003F80
003F00
003F00
003F00
003F00
007E00
007E00
007E00
007E00
00FC00
00FC00
00F800
01F800
01F800
01F000
03F000
03E000
07E000
07C000
07C000
0F8000
0F8000
1F0000
1F0000
3E0000
7C0000
780000
F80000
ENDCHAR
STARTCHAR 002A
ENCODING 42
SWIDTH 384 0
DWIDTH 31 0
BBX 25 23 3 36
BITMAP
003E0000
003E0000
003E0000
003E0000
003E0000
003E0000
203E0200
7C3E1F00
7FBEFF00
7FFFFF00
FFFFFF80
1FFFFC00
01FFC000
007F0000
00FF8000
01FFC000
03F7E000
03E3E000
07E3F000
0FC1F800
0F80F800
0780F000
03004000
ENDCHAR
STARTCHAR 002B
ENCODING 43
SWIDTH 583 0
DWIDTH 47 0
BBX 39 39 4 -1
BITMAP
00007C0000
00007C0000
00007C0000
00007C0000
00007C0000
00007C0000
00007C0000
00007C0000
00007C0000
00007C0000
00007C0000
00007C0000
00007C0000
00007C0000
00007C0000
00007C0000
00007C0000
FFFFFFFFFE
FFFFFFFFFE
FFFFFFFFFE
FFFFFFFFFE
FFFFFFFFFE
FFFFFFFFFE
00007C0000
00007C0000
00007C0000
00007C0000
00007C0000
00007C0000
00007C0000
00007C0000
00007C0000
00007C0000
00007C0000
00007C0000
00007C0000
00007C0000
00007C0000
00007C0000
ENDCHAR
STARTCHAR 002C
ENCODING 44
SWIDTH 273 0
DWIDTH 22 0
BBX 8 20 7 -12
BITMAP
FF
FF
FF
FF
FF
FF
FF
FF
07
07
07
07
07
07
0F
0E
3E
FC
F8
E0
ENDCHAR
STARTCHAR 002D
ENCODING 45
SWIDTH 335 0
DWIDTH 27 0
BBX 19 6 4 19
BITMAP
FFFFE0
FFFFE0
FFFFE0
FFFFE0
FFFFE0
FFFFE0
ENDCHAR
STARTCHAR 002E
ENCODING 46
SWIDTH 273 0
DWIDTH 22 0
BBX 8 8 7 0
BITMAP
FF
FF
FF
FF
FF
FF
FF
FF
ENDCHAR
STARTCHAR 002F
ENCODING 47
SWIDTH 273 0
DWIDTH 22 0
BBX 24 61 -1 -2
BITMAP
00001F
00001E
00001E
00003E
00003C
00003C
00007C
00007C
000078
0000F8
0000F8
0000F0
0000F0
0001F0
0001E0
0001E0
0003E0
0003C0
0003C0
0007C0
000780
000780
000F80
000F80
000F00
001F00
001F00
001E00
001E00
003E00
003C00
003C00
007C00
007800
007800
00F800
00F000
00F000
01F000
01F000
01E000
03E000
03E000
03C000
03C000
07C000
078000
078000
0F8000
0F0000
0F0000
1F0000
1E0000
1E0000
3E0000
3E0000
3C0000
7C0000
7C0000
780000
F80000
ENDCHAR
STARTCHAR 0030
ENCODING 48
SWIDTH 558 0
DWIDTH 45 0
BBX 38 60 3 -2
BITMAP
0001FE0000
000FFFC000
003FFFF000
007FFFFC00
00FFFFFE00
01FFFFFF00
03FFC7FF00
07FE00FF80
07F8007FC0
0FF0003FC0
0FF0001FE0
1FE0001FE0
1FC0000FE0
1FC0000FF0
3FC00007F0
3F800007F0
3F800007F8
3F800003F8
7F800003F8
7F000003F8
7F000003F8
7F000003F8
7F000003FC
7F000003FC
7F000003FC
7F000001FC
7F000001FC
7F000001FC
FF000001FC
FF000001FC
FF000001FC
FF000001FC
7F000001FC
7F000001FC
7F000001FC
7F000003FC
7F000003FC
7F000003FC
7F000003F8
7F000003F8
7F000003F8
7F800003F8
3F800003F8
3F800007F8
3F800007F0
3FC00007F0
1FC00007F0
1FC0000FE0
1FE0000FE0
0FE0001FE0
0FF0003FC0
07F8003FC0
07FC00FF80
03FF01FF00
01FFFFFF00
00FFFFFE00
007FFFF800
003FFFF000
000FFFC000
0001FE0000
ENDCHAR
STARTCHAR 0031
ENCODING 49
SWIDTH 558 0
DWIDTH 45 0
BBX 20 58 8 0
BITMAP
0001F0
0001F0
0001F0
0003F0
0003F0
0007F0
0007F0
000FF0
001FF0
007FF0
03FFF0
FFFFF0
FFFFF0
FFFFF0
FFFFF0
FFFFF0
FFFFF0
0007F0
0007F0
0007F0
0007F0
0007F0
0007F0
0007F0
0007F0
0007F0
0007F0
0007F0
0007F0
0007F0
0007F0
0007F0
0007F0
0007F0
0007F0
0007F0
0007F0
0007F0
0007F0
0007F0
0007F0
0007F0
0007F0
0007F0
0007F0
0007F0
0007F0
0007F0
0007F0
0007F0
0007F0
0007F0
0007F0
0007F0
0007F0
0007F0
0007F0
0007F0
ENDCHAR
STARTCHAR 0032
ENCODING 50
SWIDTH 558 0
DWIDTH 45 0
BBX 38 58 3 0
BITMAP
0001FF8000
001FFFF000
007FFFFC00
00FFFFFF00
01FFFFFF80
03FFFFFFC0
07FF83FFE0
0FFC007FE0
0FF8001FF0
1FF0000FF8
1FE00007F8
3FC00007F8
3FC00003FC
3F800003FC
3F800001FC
7F800001FC
7F800001FC
7F000001FC
7F000001FC
7F000001FC
00000003FC
00000003FC
00000003F8
00000007F8
0000000FF0
0000001FF0
0000003FE0
0000007FE0
000000FFC0
000003FF80
00000FFF00
00003FFE00
00007FF800
0001FFF000
0007FFC000
000FFF0000
003FFC0000
007FF80000
00FFE00000
01FF800000
03FF000000
07FC000000
0FF8000000
1FF0000000
1FE0000000
3FC0000000
3F80000000
3F80000000
7F00000000
7F00000000
7F00000000
FFFFFFFFFC
FFFFFFFFFC
FFFFFFFFFC
FFFFFFFFFC
FFFFFFFFFC
FFFFFFFFFC
FFFFFFFFFC
ENDCHAR
STARTCHAR 0033
ENCODING 51
SWIDTH 558 0
DWIDTH 45 0
BBX 38 60 3 -2
BITMAP
0003FF0000
003FFFE000
00FFFFF800
01FFFFFE00
03FFFFFF00
07FFFFFF80
0FFF07FF80
0FF800FFC0
1FF0003FE0
1FC0001FE0
3FC0001FE0
3F80000FF0
3F80000FF0
7F000007F0
7F000007F0
7F000007F0
7F000007F0
7F000007F0
7F000007F0
0000000FF0
0000000FE0
0000000FE0
0000001FE0
0000003FC0
000000FF80
0001FFFF00
0001FFFE00
0001FFF800
0001FFF800
0001FFFE00
0001FFFF80
00000FFFC0
0000007FE0
0000001FF0
0000000FF0
00000007F8
00000007F8
00000003F8
00000003FC
00000003FC
00000003FC
FE000001FC
FE000001FC
FE000003FC
FE000003FC
FE000003F8
FF000003F8
7F000003F8
7F800007F8
7F80000FF0
3FC0000FF0
3FE0003FE0
1FF8007FE0
1FFF03FFC0
0FFFFFFF80
07FFFFFF00
03FFFFFE00
00FFFFF800
003FFFE000
0007FE0000
ENDCHAR
STARTCHAR 0034
ENCODING 52
SWIDTH 558 0
DWIDTH 45 0
BBX 40 58 2 0
BITMAP
0000003E00
0000007E00
000000FE00
000000FE00
000001FE00
000003FE00
000007FE00
000007FE00
00000FFE00
00001FFE00
00001FFE00
00003FFE00
00007FFE00
00007EFE00
0000FEFE00
0001FCFE00
0003F8FE00
0003F0FE00
0007F0FE00
000FE0FE00
000FC0FE00
001FC0FE00
003F80FE00
007F00FE00
007F00FE00
00FE00FE00
01FC00FE00
01FC00FE00
03F800FE00
07F000FE00
07E000FE00
0FE000FE00
1FC000FE00
3F8000FE00
3F8000FE00
7F0000FE00
FE0000FE00
FE0000FE00
FFFFFFFFFF
FFFFFFFFFF
FFFFFFFFFF
FFFFFFFFFF
FFFFFFFFFF
FFFFFFFFFF
000000FE00
000000FE00
000000FE00
000000FE00
000000FE00
000000FE00
000000FE00
000000FE00
000000FE00
000000FE00
000000FE00
000000FE00
000000FE00
000000FE00
ENDCHAR
STARTCHAR 0035
ENCODING 53
SWIDTH 558 0
DWIDTH 45 0
BBX 38 59 3 -2
BITMAP
03FFFFFFE0
03FFFFFFE0
03FFFFFFE0
07FFFFFFE0
07FFFFFFE0
07FFFFFFE0
07FFFFFFE0
07F0000000
07E0000000
07E0000000
0FE0000000
0FE0000000
0FE0000000
0FE0000000
0FE0000000
0FC0000000
0FC0000000
1FC0000000
1FC0000000
1FC0000000
1FC1FFC000
1FCFFFF000
1FBFFFFC00
1FFFFFFF00
1FFFFFFF80
3FFFFFFFC0
3FFE03FFE0
3FF0007FE0
3FE0003FF0
3FC0000FF0
3F80000FF8
00000007F8
00000003FC
00000003FC
00000003FC
00000001FC
00000001FC
00000001FC
00000001FC
00000001FC
00000001FC
00000001FC
00000001FC
FE000001FC
FE000003FC
FF000003F8
7F000003F8
7F800007F8
7F80000FF0
3FC0001FF0
3FE0003FE0
1FF8007FC0
0FFF07FFC0
0FFFFFFF80
07FFFFFF00
01FFFFFC00
00FFFFF800
003FFFE000
0003FE0000
ENDCHAR
STARTCHAR 0036
ENCODING 54
SWIDTH 558 0
DWIDTH 45 0
BBX 38 60 3 -2
BITMAP
00007F8000
0003FFF000
000FFFFC00
003FFFFE00
007FFFFF00
00FFFFFF80
01FFE3FFC0
03FE007FE0
07FC001FE0
07F8000FF0
0FF0000FF0
0FE00007F0
1FE00007F8
1FC00003F8
1FC00003F8
3FC0000000
3F80000000
3F80000000
3F80000000
7F00000000
7F00000000
7F00000000
7F007F8000
7F03FFF000
7F0FFFFC00
7F3FFFFF00
7F7FFFFF80
7FFFFFFFC0
7FFFC3FFE0
FFFC007FE0
FFF8001FF0
FFF0000FF0
FFE00007F8
FFC00007F8
7F800003FC
7F800003FC
7F800001FC
7F000001FC
7F000001FC
7F000001FC
7F000001FC
7F000001FC
7F000001FC
3F000001FC
3F800001FC
3F800003FC
3F800003FC
1FC00003F8
1FC00007F8
1FE0000FF0
0FF0000FF0
07F8003FE0
07FE007FE0
03FFC3FFC0
01FFFFFF80
00FFFFFF00
007FFFFE00
003FFFF800
000FFFE000
0001FF0000
ENDCHAR
STARTCHAR 0037
ENCODING 55
SWIDTH 558 0
DWIDTH 45 0
BBX 38 57 4 0
BITMAP
FFFFFFFFFC
FFFFFFFFFC
FFFFFFFFFC
FFFFFFFFFC
FFFFFFFFFC
FFFFFFFFFC
FFFFFFFFFC
00000003F8
00000003F0
00000007E0
0000000FE0
0000000FC0
0000001F80
0000003F80
0000003F00
0000007E00
000000FE00
000000FC00
000001F800
000003F800
000003F000
000007F000
000007E000
00000FC000
00001FC000
00001F8000
00003F8000
00003F0000
00007F0000
00007E0000
0000FE0000
0000FC0000
0001FC0000
0001FC0000
0003F80000
0003F80000
0003F00000
0007F00000
0007F00000
000FE00000
000FE00000
000FE00000
001FC00000
001FC00000
001FC00000
003F800000
003F800000
003F800000
007F800000
007F000000
007F000000
007F000000
00FF000000
00FE000000
00FE000000
01FE000000
01FE000000
ENDCHAR
STARTCHAR 0038
ENCODING 56
SWIDTH 558 0
DWIDTH 45 0
BBX 38 60 3 -2
BITMAP
0001FF0000
001FFFE000
007FFFF800
00FFFFFE00
01FFFFFF00
03FFFFFF80
07FF87FFC0
0FFC00FFC0
0FF0003FE0
1FE0001FE0
1FE0000FF0
1FC0000FF0
3FC00007F0
3F800007F0
3F800007F0
3F800007F0
3F800007F0
3F800007F0
3FC00007F0
3FC0000FF0
1FC0000FF0
1FE0001FE0
0FF0003FE0
0FF8007FC0
07FF01FF80
01FFFFFF00
00FFFFFC00
007FFFF800
00FFFFFC00
01FFFFFF00
07FFFFFF80
0FFE01FFC0
1FF8007FE0
1FE0001FF0
3FC0000FF0
7F800007F8
7F800003F8
7F000003FC
FF000003FC
FF000001FC
FE000001FC
FE000001FC
FE000001FC
FE000001FC
FE000001FC
FF000001FC
FF000003FC
7F000003FC
7F800007F8
7FC00007F8
3FE0000FF0
3FF0001FF0
1FF8007FE0
0FFF83FFC0
07FFFFFF80
03FFFFFF00
01FFFFFE00
007FFFF800
001FFFE000
0003FF0000
ENDCHAR
STARTCHAR 0039
ENCODING 57
SWIDTH 558 0
DWIDTH 45 0
BBX 38 60 3 -2
BITMAP
0003FE0000
001FFFC000
007FFFF000
00FFFFFC00
03FFFFFE00
07FFFFFF00
07FF07FF80
0FF800FF80
1FF0007FC0
1FE0003FE0
3FC0001FE0
3F80000FE0
7F800007F0
7F000007F0
7F000007F0
FF000003F8
FF000003F8
FE000003F8
FE000003F8
FE000003FC
FE000003FC
FF000003FC
FF000003FC
FF000003FC
7F000007FC
7F800007FC
7F80000FFC
3FC0000FFC
3FE0001FFC
1FF0003FFC
1FF800FFFC
0FFF07FFFC
07FFFFFDFC
03FFFFF9FC
01FFFFF1FC
00FFFFE1FC
003FFF83FC
0007FC03FC
00000003F8
00000003F8
00000003F8
00000003F8
00000003F8
00000007F0
00000007F0
7F000007F0
3F80000FE0
3F80000FE0
3FC0001FE0
3FC0003FC0
1FE0003FC0
1FF0007F80
0FF801FF00
0FFF0FFF00
07FFFFFE00
03FFFFFC00
01FFFFF000
00FFFFE000
003FFF8000
0007FC0000
ENDCHAR
STARTCHAR 003A
ENCODING 58
SWIDTH 273 0
DWIDTH 22 0
BBX 8 42 9 0
BITMAP
FF
FF
FF
FF
FF
FF
FF
FF
00
00
00
00
00
00
00
00
00
00
00
00
00
00
00
00
00
00
00
00
00
00
00
00
00
00
FF
FF
FF
FF
FF
FF
FF
FF
ENDCHAR
STARTCHAR 003B
ENCODING 59
SWIDTH 273 0
DWIDTH 22 0
BBX 8 54 9 -12
BITMAP
FF
FF
FF
FF
FF
FF
FF
FF
00
00
00
00
00
00
00
00
00
00
00
00
00
00
00
00
00
00
00
00
00
00
00
00
00
00
FF
FF
FF
FF
FF
FF
FF
FF
07
07
07
07
07
0F
0F
1E
3E
FC
F8
E0
ENDCHAR
STARTCHAR 003C
ENCODING 60
SWIDTH 583 0
DWIDTH 47 0
BBX 39 39 4 -1
BITMAP
0000000002
000000000E
000000007E
00000001FE
00000007FE
0000003FFE
000000FFFE
000003FFF0
00001FFFC0
00007FFF00
0003FFF800
000FFFE000
003FFF0000
01FFFC0000
07FFE00000
1FFF800000
FFFC000000
FFF0000000
FFC0000000
FE00000000
FFC0000000
FFF0000000
FFFE000000
3FFF800000
07FFE00000
01FFFC0000
007FFF0000
000FFFE000
0003FFF800
00007FFE00
00001FFFC0
000007FFF0
000000FFFE
0000003FFE
0000000FFE
00000001FE
000000007E
000000001E
0000000002
ENDCHAR
STARTCHAR 003D
ENCODING 61
SWIDTH 583 0
DWIDTH 47 0
BBX 39 20 4 9
BITMAP
FFFFFFFFFE
FFFFFFFFFE
FFFFFFFFFE
FFFFFFFFFE
FFFFFFFFFE
FFFFFFFFFE
0000000000
0000000000
0000000000
0000000000
0000000000
0000000000
0000000000
0000000000
FFFFFFFFFE
FFFFFFFFFE
FFFFFFFFFE
FFFFFFFFFE
FFFFFFFFFE
FFFFFFFFFE
ENDCHAR
STARTCHAR 003E
ENCODING 62
SWIDTH 583 0
DWIDTH 47 0
BBX 39 39 4 -1
BITMAP
8000000000
E000000000
FC00000000
FF00000000
FFC0000000
FFF8000000
FFFE000000
1FFFC00000
07FFF00000
01FFFC0000
003FFF8000
000FFFE000
0001FFF800
00007FFF00
00001FFFC0
000003FFF0
000000FFFE
0000001FFE
00000007FE
00000001FE
00000003FE
0000001FFE
0000007FFE
000003FFF8
00000FFFC0
00007FFF00
0001FFFC00
0007FFE000
003FFF8000
00FFFC0000
07FFF00000
1FFFC00000
FFFE000000
FFF8000000
FFE0000000
FF00000000
FC00000000
F000000000
8000000000
ENDCHAR
STARTCHAR 003F
ENCODING 63
SWIDTH 558 0
DWIDTH 45 0
BBX 35 60 6 0
BITMAP
0007FE0000
007FFFC000
00FFFFF000
03FFFFFC00
07FFFFFE00
0FFFFFFF00
1FFE0FFF00
1FF001FF80
3FC000FFC0
3F80003FC0
7F80003FC0
7F00001FE0
7F00001FE0
7F00000FE0
FE00000FE0
FE00000FE0
FE00000FE0
FE00000FE0
FE00001FE0
0000001FE0
0000001FC0
0000003FC0
0000007F80
000000FF80
000000FF00
000001FE00
000007FE00
00000FFC00
00001FF800
00003FF000
00007FC000
0000FF8000
0000FF0000
0001FE0000
0003FE0000
0003FC0000
0003F80000
0007F80000
0007F80000
0007F80000
0007F80000
0007F80000
0007F80000
0007F80000
0000000000
0000000000
0000000000
0000000000
0000000000
0000000000
0000000000
0000000000
0007F80000
0007F80000
0007F80000
0007F80000
0007F80000
0007F80000
0007F80000
0007F80000
ENDCHAR
STARTCHAR 0040
ENCODING 64
SWIDTH 1017 0
DWIDTH 82 0
BBX 74 71 3 -11
BITMAP
000000007FF800000000
00000007FFFFC0000000
0000003FFFFFF8000000
000001FFFFFFFE000000
000007FFFFFFFF800000
00001FFFFFFFFFE00000
00003FFFC03FFFF80000
0000FFFC0001FFFC0000
0001FFE000003FFE0000
0003FF8000000FFF0000
000FFE00000003FF8000
001FF800000001FFC000
003FF0000000007FE000
003FC0000000003FF000
007F80000000001FF800
00FF00000000000FF800
01FE000000000007FC00
01FC000000000003FC00
03FC00003FE00001FE00
07F80000FFF80001FE00
07F00003FFFC3F80FF00
0FF0000FFFFE3F80FF00
0FE0001FFFFF3F007F80
1FC0003FF07F7F007F80
1FC0007FC01FFF003F80
3F8000FF000FFE003F80
3F8001FE0007FE003F80
3F8003FC0003FE003FC0
7F0003F80003FC003FC0
7F0007F80003FC001FC0
7F0007F00003FC001FC0
7E000FF00003F8001FC0
FE000FE00003F8001FC0
FE001FE00003F8001F80
FE001FC00003F0003F80
FE001FC00007F0003F80
FE001FC00007F0003F80
FE003FC00007F0003F80
FE003FC00007E0007F00
FE003FC0000FE0007F00
FE003FC0000FE0007F00
FE003FC0001FC000FE00
FE003FC0001FC000FE00
FE001FC0003FC001FC00
FE001FC0003F8003FC00
FF001FE0007F8007F800
7F001FE000FF8007F000
7F000FF001FF801FE000
7F800FF803FFC03FE000
3F8007FE0FFFE0FFC000
3FC003FFFFDFFFFF8000
3FC001FFFF0FFFFF0000
1FE000FFFE0FFFFC0000
1FF0007FFC07FFF80000
0FF8000FE003FFC00000
07F80000000038000000
07FC0000000000000000
03FE0000000000000000
01FF8000000000000000
00FFC000000000000000
007FF000000000000000
003FFC00000000000000
001FFF00000000000000
000FFFE0000078000000
0003FFFE001FF8000000
0001FFFFFFFFFC000000
00007FFFFFFFFC000000
00001FFFFFFFFC000000
000007FFFFFFF8000000
000000FFFFFF80000000
0000000FFFF000000000
ENDCHAR
STARTCHAR 0041
ENCODING 65
SWIDTH 670 0
DWIDTH 54 0
BBX 50 59 2 0
BITMAP
00000FFC000000
00000FFE000000
00001FFE000000
00001FFE000000
00001FFF000000
00003FFF000000
00003FFF000000
00003FFF800000
00007FFF800000
00007FBF800000
00007F3FC00000
0000FF3FC00000
0000FE1FC00000
0000FE1FE00000
0001FE1FE00000
0001FC0FE00000
0003FC0FF00000
0003FC0FF00000
0003F807F00000
0007F807F80000
0007F807F80000
0007F003FC0000
000FF003FC0000
000FF003FC0000
000FE001FE0000
001FE001FE0000
001FC001FE0000
001FC000FF0000
003FC000FF0000
003F8000FF0000
007F80007F8000
007F80007F8000
007F00007F8000
00FF00003FC000
00FF00003FC000
00FFFFFFFFC000
01FFFFFFFFE000
01FFFFFFFFE000
01FFFFFFFFE000
03FFFFFFFFF000
03FFFFFFFFF000
03F800000FF800
07F8000007F800
07F8000007F800
07F0000007FC00
0FF0000003FC00
0FF0000003FC00
1FE0000003FE00
1FE0000001FE00
1FE0000001FE00
3FC0000001FF00
3FC0000000FF00
3FC0000000FF00
7F80000000FF80
7F800000007F80
7F800000007F80
FF000000007FC0
FF000000003FC0
FF000000003FC0
ENDCHAR
STARTCHAR 0042
ENCODING 66
SWIDTH 670 0
DWIDTH 54 0
BBX 44 59 6 0
BITMAP
FFFFFFFC0000
FFFFFFFF8000
FFFFFFFFE000
FFFFFFFFF000
FFFFFFFFF800
FFFFFFFFFC00
FFFFFFFFFE00
FF000007FF00
FF000001FF00
FF000000FF80
FF0000007F80
FF0000007F80
FF0000003F80
FF0000003FC0
FF0000003FC0
FF0000003FC0
FF0000003FC0
FF0000003F80
FF0000003F80
FF0000003F80
FF0000007F80
FF0000007F00
FF000000FF00
FF000001FE00
FF000007FC00
FFFFFFFFF800
FFFFFFFFF000
FFFFFFFFC000
FFFFFFFFE000
FFFFFFFFF800
FFFFFFFFFE00
FFFFFFFFFF00
FF000003FF80
FF000000FFC0
FF0000003FC0
FF0000001FE0
FF0000001FE0
FF0000000FF0
FF0000000FF0
FF0000000FF0
FF00000007F0
FF00000007F0
FF00000007F0
FF00000007F0
FF00000007F0
FF0000000FF0
FF0000000FF0
FF0000000FE0
FF0000001FE0
FF0000003FE0
FF0000007FC0
FF000001FFC0
FFFFFFFFFF80
FFFFFFFFFF00
FFFFFFFFFE00
FFFFFFFFFC00
FFFFFFFFF800
FFFFFFFFE000
FFFFFFFF0000
ENDCHAR
STARTCHAR 0043
ENCODING 67
SWIDTH 720 0
DWIDTH 58 0
BBX 50 62 4 -2
BITMAP
000007FF800000
00007FFFF00000
0001FFFFFE0000
0007FFFFFF0000
001FFFFFFFC000
003FFFFFFFE000
007FFFFFFFF000
00FFF000FFF800
01FFC0001FF800
03FF00000FFC00
03FE000003FE00
07FC000003FE00
0FF8000001FE00
0FF0000000FF00
1FE0000000FF00
1FE00000007F80
1FC00000007F80
3FC00000007F80
3F800000003F80
3F800000000000
7F800000000000
7F000000000000
7F000000000000
7F000000000000
FF000000000000
FF000000000000
FF000000000000
FF000000000000
FE000000000000
FE000000000000
FE000000000000
FE000000000000
FE000000000000
FE000000000000
FF000000000000
FF000000000000
FF000000000000
FF000000000000
FF000000000000
7F000000001FC0
7F800000003FC0
7F800000003FC0
7F800000003FC0
3FC00000003FC0
3FC00000003F80
3FC00000007F80
1FE00000007F80
1FF0000000FF80
0FF0000000FF00
0FF8000001FF00
07FC000003FE00
07FE000007FE00
03FF80000FFC00
01FFC0001FF800
00FFF800FFF800
007FFFFFFFF000
003FFFFFFFE000
001FFFFFFFC000
000FFFFFFF0000
0003FFFFFC0000
00007FFFF00000
00000FFF000000
ENDCHAR
STARTCHAR 0044
ENCODING 68
SWIDTH 720 0
DWIDTH 58 0
BBX 47 59 7 0
BITMAP
FFFFFFF00000
FFFFFFFF0000
FFFFFFFFC000
FFFFFFFFF000
FFFFFFFFF800
FFFFFFFFFC00
FFFFFFFFFE00
FF00000FFF00
FF000003FF80
FF000000FFC0
FF0000007FC0
FF0000003FE0
FF0000001FE0
FF0000001FF0
FF0000000FF0
FF00000007F8
FF00000007F8
FF00000007F8
FF00000003FC
FF00000003FC
FF00000003FC
FF00000001FC
FF00000001FC
FF00000001FC
FF00000001FE
FF00000001FE
FF00000001FE
FF00000001FE
FF00000001FE
FF00000001FE
FF00000001FE
FF00000001FE
FF00000001FE
FF00000001FE
FF00000001FE
FF00000001FC
FF00000001FC
FF00000001FC
FF00000003FC
FF00000003FC
FF00000003F8
FF00000007F8
FF00000007F8
FF00000007F8
FF0000000FF0
FF0000000FF0
FF0000001FE0
FF0000003FE0
FF0000007FC0
FF000000FFC0
FF000003FF80
FF00000FFF00
FFFFFFFFFE00
FFFFFFFFFC00
FFFFFFFFF800
FFFFFFFFE000
FFFFFFFFC000
FFFFFFFE0000
FFFFFFF00000
ENDCHAR
STARTCHAR 0045
ENCODING 69
SWIDTH 670 0
DWIDTH 54 0
BBX 42 59 7 0
BITMAP
FFFFFFFFFF80
FFFFFFFFFF80
FFFFFFFFFF80
FFFFFFFFFF80
FFFFFFFFFF80
FFFFFFFFFF80
FFFFFFFFFF80
FF0000000000
FF0000000000
FF0000000000
FF0000000000
FF0000000000
FF0000000000
FF0000000000
FF0000000000
FF0000000000
FF0000000000
FF0000000000
FF0000000000
FF0000000000
FF0000000000
FF0000000000
FF0000000000
FF0000000000
FF0000000000
FFFFFFFFFF00
FFFFFFFFFF00
FFFFFFFFFF00
FFFFFFFFFF00
FFFFFFFFFF00
FFFFFFFFFF00
FFFFFFFFFF00
FF0000000000
FF0000000000
FF0000000000
FF0000000000
FF0000000000
FF0000000000
FF0000000000
FF0000000000
FF0000000000
FF0000000000
FF0000000000
FF0000000000
FF0000000000
FF0000000000
FF0000000000
FF0000000000
FF0000000000
FF0000000000
FF0000000000
FF0000000000
FFFFFFFFFFC0
FFFFFFFFFFC0
FFFFFFFFFFC0
FFFFFFFFFFC0
FFFFFFFFFFC0
FFFFFFFFFFC0
FFFFFFFFFFC0
ENDCHAR
STARTCHAR 0046
ENCODING 70
SWIDTH 608 0
DWIDTH 49 0
BBX 40 59 7 0
BITMAP
FFFFFFFFFF
FFFFFFFFFF
FFFFFFFFFF
FFFFFFFFFF
FFFFFFFFFF
FFFFFFFFFF
FFFFFFFFFF
FF00000000
FF00000000
FF00000000
FF00000000
FF00000000
FF00000000
FF00000000
FF00000000
FF00000000
FF00000000
FF00000000
FF00000000
FF00000000
FF00000000
FF00000000
FF00000000
FF00000000
FF00000000
FFFFFFFFF0
FFFFFFFFF0
FFFFFFFFF0
FFFFFFFFF0
FFFFFFFFF0
FFFFFFFFF0
FFFFFFFFF0
FF00000000
FF00000000
FF00000000
FF00000000
FF00000000
FF00000000
FF00000000
FF00000000
FF00000000
FF00000000
FF00000000
FF00000000
FF00000000
FF00000000
FF00000000
FF00000000
FF00000000
FF00000000
FF00000000
FF00000000
FF00000000
FF00000000
FF00000000
FF00000000
FF00000000
FF00000000
FF00000000
ENDCHAR
STARTCHAR 0047
ENCODING 71
SWIDTH 782 0
DWIDTH 63 0
BBX 53 62 4 -2
BITMAP
000003FFC00000
00003FFFFC0000
0001FFFFFF0000
0007FFFFFFC000
000FFFFFFFF000
003FFFFFFFF800
007FFFFFFFFC00
00FFF8003FFE00
01FFE00007FF00
03FF800003FF80
03FF000000FF80
07FC0000007FC0
0FF80000003FC0
0FF80000003FE0
1FF00000001FE0
1FE00000000FF0
3FC00000000FF0
3FC00000000FF0
3F8000000007F0
7F800000000000
7F800000000000
7F000000000000
FF000000000000
FF000000000000
FF000000000000
FE000000000000
FE000000000000
FE000000000000
FE000000000000
FE000007FFFFF8
FE000007FFFFF8
FE000007FFFFF8
FE000007FFFFF8
FE000007FFFFF8
FE000007FFFFF8
FE000007FFFFF8
FF0000000003F8
FF0000000003F8
FF0000000003F8
FF0000000003F8
7F0000000003F8
7F8000000003F8
7F8000000003F8
7FC000000003F8
3FC000000007F8
3FE000000007F8
1FE00000000FF8
1FF00000000FF8
0FF80000001FF8
0FF80000003FF8
07FC0000007FF8
03FF000000FFF8
03FF800001FFF8
01FFE00007FDF8
00FFFC003FF9F8
007FFFFFFFF1F8
003FFFFFFFC1F8
000FFFFFFF80F8
0007FFFFFF00F8
0001FFFFFC00F8
00007FFFE00000
000007FF000000
ENDCHAR
STARTCHAR 0048
ENCODING 72
SWIDTH 720 0
DWIDTH 58 0
BBX 45 59 7 0
BITMAP
FE00000007F8
FE00000007F8
FE00000007F8
FE00000007F8
FE00000007F8
FE00000007F8
FE00000007F8
FE00000007F8
FE00000007F8
FE00000007F8
FE00000007F8
FE00000007F8
FE00000007F8
FE00000007F8
FE00000007F8
FE00000007F8
FE00000007F8
FE00000007F8
FE00000007F8
FE00000007F8
FE00000007F8
FE00000007F8
FE00000007F8
FE00000007F8
FE00000007F8
FFFFFFFFFFF8
FFFFFFFFFFF8
FFFFFFFFFFF8
FFFFFFFFFFF8
FFFFFFFFFFF8
FFFFFFFFFFF8
FFFFFFFFFFF8
FE00000007F8
FE00000007F8
FE00000007F8
FE00000007F8
FE00000007F8
FE00000007F8
FE00000007F8
FE00000007F8
FE00000007F8
FE00000007F8
FE00000007F8
FE00000007F8
FE00000007F8
FE00000007F8
FE00000007F8
FE00000007F8
FE00000007F8
FE00000007F8
FE00000007F8
FE00000007F8
FE00000007F8
FE00000007F8
FE00000007F8
FE00000007F8
FE00000007F8
FE00000007F8
FE00000007F8
ENDCHAR
STARTCHAR 0049
ENCODING 73
SWIDTH 273 0
DWIDTH 22 0
BBX 8 59 8 0
BITMAP
FF
FF
FF
FF
FF
FF
FF
FF
FF
FF
FF
FF
FF
FF
FF
FF
FF
FF
FF
FF
FF
FF
FF
FF
FF
FF
FF
FF
FF
FF
FF
FF
FF
FF
FF
FF
FF
FF
FF
FF
FF
FF
FF
FF
FF
FF
FF
FF
FF
FF
FF
FF
FF
FF
FF
FF
FF
FF
FF
ENDCHAR
STARTCHAR 004A
ENCODING 74
SWIDTH 496 0
DWIDTH 40 0
BBX 33 61 1 -2
BITMAP
0000003F80
0000003F80
0000003F80
0000003F80
0000003F80
0000003F80
0000003F80
0000003F80
0000003F80
0000003F80
0000003F80
0000003F80
0000003F80
0000003F80
0000003F80
0000003F80
0000003F80
0000003F80
0000003F80
0000003F80
0000003F80
0000003F80
0000003F80
0000003F80
0000003F80
0000003F80
0000003F80
0000003F80
0000003F80
0000003F80
0000003F80
0000003F80
0000003F80
0000003F80
0000003F80
0000003F80
0000003F80
0000003F80
0000003F80
0000003F80
FF00003F80
FF00003F80
FF00003F80
FF00003F80
FF00003F80
FF00003F80
FF00003F80
FF00007F80
7F80007F80
7F80007F80
7F8000FF00
7FC000FF00
3FE001FF00
3FF007FE00
1FFE1FFE00
0FFFFFFC00
0FFFFFF800
03FFFFF000
01FFFFC000
007FFF0000
000FF80000
ENDCHAR
STARTCHAR 004B
ENCODING 75
SWIDTH 670 0
DWIDTH 54 0
BBX 47 59 6 0
BITMAP
FF00000007FC
FF0000000FF8
FF0000001FF0
FF0000003FE0
FF0000007FC0
FF000000FF80
FF000001FF00
FF000003FE00
FF000007FC00
FF00000FF800
FF00001FF000
FF00003FE000
FF00007FC000
FF0000FF8000
FF0001FF0000
FF0003FE0000
FF0007FC0000
FF000FF80000
FF001FF00000
FF003FE00000
FF007FC00000
FF00FF800000
FF01FF000000
FF03FE000000
FF07FE000000
FF0FFF000000
FF1FFF800000
FF3FFF800000
FF7FFFC00000
FFFFBFE00000
FFFF1FE00000
FFFE1FF00000
FFFC0FF80000
FFF807F80000
FFF007FC0000
FFE003FE0000
FFC001FE0000
FF8001FF0000
FF0000FF8000
FF00007FC000
FF00007FC000
FF00003FE000
FF00001FF000
FF00000FF000
FF00000FF800
FF000007FC00
FF000003FC00
FF000003FE00
FF000001FF00
FF000000FF00
FF000000FF80
FF0000007FC0
FF0000003FE0
FF0000003FE0
FF0000001FF0
FF0000000FF8
FF0000000FF8
FF00000007FC
FF00000003FE
ENDCHAR
STARTCHAR 004C
ENCODING 76
SWIDTH 558 0
DWIDTH 45 0
BBX 37 59 6 0
BITMAP
FF00000000
FF00000000
FF00000000
FF00000000
FF00000000
FF00000000
FF00000000
FF00000000
FF00000000
FF00000000
FF00000000
FF00000000
FF00000000
FF00000000
FF00000000
FF00000000
FF00000000
FF00000000
FF00000000
FF00000000
FF00000000
FF00000000
FF00000000
FF00000000
FF00000000
FF00000000
FF00000000
FF00000000
FF00000000
FF00000000
FF00000000
FF00000000
FF00000000
FF00000000
FF00000000
FF00000000
FF00000000
FF00000000
FF00000000
FF00000000
FF00000000
FF00000000
FF00000000
FF00000000
FF00000000
FF00000000
FF00000000
FF00000000
FF00000000
FF00000000
FF00000000
FF00000000
FFFFFFFFF8
FFFFFFFFF8
FFFFFFFFF8
FFFFFFFFF8
FFFFFFFFF8
FFFFFFFFF8
FFFFFFFFF8
ENDCHAR
STARTCHAR 004D
ENCODING 77
SWIDTH 831 0
DWIDTH 67 0
BBX 55 59 6 0
BITMAP
FFE000000007FE
FFE00000000FFE
FFE00000000FFE
FFF00000000FFE
FFF00000001FFE
FFF00000001FFE
FFF80000001FFE
FFF80000003FFE
FFF80000003FFE
FFFC0000003FFE
FFFC0000007FFE
FEFC0000007FFE
FEFE0000007EFE
FEFE000000FEFE
FE7E000000FEFE
FE7F000000FCFE
FE7F000001FCFE
FE3F000001FCFE
FE3F800001F8FE
FE3F800003F8FE
FE1F800003F8FE
FE1FC00003F0FE
FE1FC00007F0FE
FE0FC00007F0FE
FE0FE00007E0FE
FE0FE0000FE0FE
FE07E0000FE0FE
FE07F0000FC0FE
FE07F0001FC0FE
FE03F0001FC0FE
FE03F8001F80FE
FE01F8003F80FE
FE01F8003F80FE
FE01FC003F00FE
FE00FC007F00FE
FE00FC007F00FE
FE00FE007E00FE
FE007E00FE00FE
FE007E00FE00FE
FE007F00FC00FE
FE003F01FC00FE
FE003F01FC00FE
FE003F81F800FE
FE001F83F800FE
FE001F83F800FE
FE001FC3F000FE
FE000FC7F000FE
FE000FE7F000FE
FE000FE7E000FE
FE0007EFE000FE
FE0007FFE000FE
FE0007FFC000FE
FE0003FFC000FE
FE0003FFC000FE
FE0003FF8000FE
FE0001FF8000FE
FE0001FF8000FE
FE0001FF0000FE
FE0000FF0000FE
ENDCHAR
STARTCHAR 004E
ENCODING 78
SWIDTH 720 0
DWIDTH 58 0
BBX 46 59 6 0
BITMAP
FF80000001FC
FF80000001FC
FFC0000001FC
FFC0000001FC
FFE0000001FC
FFF0000001FC
FFF0000001FC
FFF8000001FC
FFFC000001FC
FFFC000001FC
FFFE000001FC
FFFF000001FC
FEFF000001FC
FE7F800001FC
FE7F800001FC
FE3FC00001FC
FE1FE00001FC
FE1FE00001FC
FE0FF00001FC
FE0FF80001FC
FE07F80001FC
FE03FC0001FC
FE03FE0001FC
FE01FE0001FC
FE00FF0001FC
FE00FF0001FC
FE007F8001FC
FE003FC001FC
FE003FC001FC
FE001FE001FC
FE001FF001FC
FE000FF001FC
FE0007F801FC
FE0007FC01FC
FE0003FC01FC
FE0001FE01FC
FE0001FE01FC
FE0000FF01FC
FE00007F81FC
FE00007F81FC
FE00003FC1FC
FE00003FE1FC
FE00001FE1FC
FE00000FF1FC
FE00000FF9FC
FE000007F9FC
FE000003FDFC
FE000003FDFC
FE000001FFFC
FE000000FFFC
FE000000FFFC
FE0000007FFC
FE0000007FFC
FE0000003FFC
FE0000001FFC
FE0000001FFC
FE0000000FFC
FE00000007FC
FE00000007FC
ENDCHAR
STARTCHAR 004F
ENCODING 79
SWIDTH 782 0
DWIDTH 63 0
BBX 57 62 3 -2
BITMAP
000001FFC0000000
00001FFFFC000000
0000FFFFFF800000
0003FFFFFFE00000
0007FFFFFFF00000
001FFFFFFFFC0000
003FFFFFFFFE0000
007FFC001FFF0000
00FFF00007FF8000
01FFC00001FFC000
03FF0000007FE000
03FE0000003FE000
07FC0000001FF000
0FF80000000FF800
0FF00000000FF800
1FF000000007FC00
1FE000000003FC00
3FE000000003FC00
3FC000000001FE00
3FC000000001FE00
7F8000000000FE00
7F8000000000FF00
7F8000000000FF00
7F0000000000FF00
7F00000000007F00
FF00000000007F00
FF00000000007F80
FF00000000007F80
FF00000000007F80
FF00000000007F80
FF00000000007F80
FF00000000007F80
FF00000000007F80
FF00000000007F80
FF00000000007F80
FF00000000007F80
FF00000000007F00
7F00000000007F00
7F00000000007F00
7F8000000000FF00
7F8000000000FF00
7F8000000000FE00
3FC000000001FE00
3FC000000001FE00
3FE000000003FC00
1FE000000003FC00
1FF000000007FC00
0FF000000007F800
0FF80000000FF000
07FC0000001FF000
03FE0000003FE000
03FF0000007FE000
01FFC00001FFC000
00FFF00007FF8000
007FFC001FFF0000
003FFFFFFFFE0000
001FFFFFFFFC0000
0007FFFFFFF00000
0003FFFFFFE00000
0000FFFFFF800000
00001FFFFC000000
000001FFC0000000
ENDCHAR
STARTCHAR 0050
ENCODING 80
SWIDTH 670 0
DWIDTH 54 0
BBX 43 59 7 0
BITMAP
FFFFFFFC0000
FFFFFFFF8000
FFFFFFFFE000
FFFFFFFFF800
FFFFFFFFFC00
FFFFFFFFFE00
FFFFFFFFFF00
FF000007FF00
FF000001FF80
FF000000FF80
FF0000007FC0
FF0000003FC0
FF0000003FC0
FF0000003FC0
FF0000001FE0
FF0000001FE0
FF0000001FE0
FF0000001FE0
FF0000001FE0
FF0000001FE0
FF0000003FE0
FF0000003FC0
FF0000003FC0
FF0000007FC0
FF000000FF80
FF000001FF80
FF000007FF00
FFFFFFFFFF00
FFFFFFFFFE00
FFFFFFFFFC00
FFFFFFFFF800
FFFFFFFFE000
FFFFFFFFC000
FFFFFFFE0000
FF0000000000
FF0000000000
FF0000000000
FF0000000000
FF0000000000
FF0000000000
FF0000000000
FF0000000000
FF0000000000
FF0000000000
FF0000000000
FF0000000000
FF0000000000
FF0000000000
FF0000000000
FF0000000000
FF0000000000
FF0000000000
FF0000000000
FF0000000000
FF0000000000
FF0000000000
FF0000000000
FF0000000000
FF0000000000
ENDCHAR
STARTCHAR 0051
ENCODING 81
SWIDTH 782 0
DWIDTH 63 0
BBX 57 65 3 -5
BITMAP
000001FFC0000000
00001FFFFC000000
0000FFFFFF800000
0003FFFFFFE00000
0007FFFFFFF00000
001FFFFFFFFC0000
003FFFFFFFFE0000
007FFC001FFF0000
00FFF00007FF8000
01FFC00001FFC000
03FF0000007FE000
03FE0000003FE000
07FC0000001FF000
0FF80000000FF800
0FF00000000FF800
1FF000000007FC00
1FE000000003FC00
3FE000000003FE00
3FC000000001FE00
3FC000000001FE00
7F8000000000FF00
7F8000000000FF00
7F8000000000FF00
7F0000000000FF00
7F00000000007F00
FF00000000007F00
FF00000000007F80
FF00000000007F80
FF00000000007F80
FF00000000007F80
FF00000000007F80
FF00000000007F80
FF00000000007F80
FF00000000007F80
FF00000000007F80
FF00000000007F80
FF00000000007F00
7F00000000007F00
7F00000000007F00
7F8000000000FF00
7F8000000000FF00
7F8000000000FE00
3FC000000001FE00
3FC000000001FE00
3FE000001803FC00
1FE000003C03FC00
1FF000007E07FC00
0FF00000FF87F800
0FF800007FCFF000
07FC00003FFFF000
03FE00001FFFE000
03FF00000FFFE000
01FFC00007FFC000
00FFF00007FF8000
007FFC001FFF8000
003FFFFFFFFFC000
001FFFFFFFFFF000
0007FFFFFFFFF800
0003FFFFFFE7FC00
0000FFFFFF83FE00
00001FFFFC01FF00
000001FFC000FE00
0000000000007C00
0000000000001800
0000000000000800
ENDCHAR
STARTCHAR 0052
ENCODING 82
SWIDTH 720 0
DWIDTH 58 0
BBX 48 59 7 0
BITMAP
FFFFFFFF8000
FFFFFFFFF800
FFFFFFFFFE00
FFFFFFFFFF00
FFFFFFFFFF80
FFFFFFFFFFC0
FFFFFFFFFFE0
FF000000FFF0
FF0000003FF0
FF0000001FF8
FF0000000FF8
FF00000007F8
FF00000007F8
FF00000007F8
FF00000007F8
FF00000003F8
FF00000003F8
FF00000003F8
FF00000003F8
FF00000007F8
FF00000007F8
FF00000007F8
FF0000000FF0
FF0000000FF0
FF0000001FE0
FF0000003FC0
FF000001FF80
FFFFFFFFFF00
FFFFFFFFFE00
FFFFFFFFF800
FFFFFFFFFC00
FFFFFFFFFE00
FFFFFFFFFF80
FFFFFFFFFFC0
FF000000FFC0
FF0000003FE0
FF0000001FE0
FF0000000FF0
FF0000000FF0
FF0000000FF0
FF00000007F0
FF00000007F0
FF00000007F0
FF00000007F0
FF00000007F0
FF00000007F0
FF00000007F0
FF00000007F0
FF00000007F0
FF00000007F0
FF00000007F0
FF00000007F8
FF00000007F8
FF00000007F8
FF00000007F8
FF00000003FC
FF00000003FE
FF00000003FF
FF00000003FF
ENDCHAR
STARTCHAR 0053
ENCODING 83
SWIDTH 670 0
DWIDTH 54 0
BBX 46 62 4 -2
BITMAP
00007FF00000
0007FFFF0000
001FFFFFE000
007FFFFFF800
01FFFFFFFC00
03FFFFFFFE00
07FFE07FFF00
07FE0003FF80
0FFC0000FFC0
1FF000007FC0
1FE000003FE0
1FC000001FE0
3FC000000FE0
3FC000000FF0
3F8000000FF0
3F80000007F0
3F80000007F0
3F80000007F0
3F8000000000
3FC000000000
3FC000000000
3FE000000000
3FF000000000
1FFC00000000
1FFF80000000
0FFFF0000000
07FFFF000000
03FFFFF00000
01FFFFFE0000
007FFFFFE000
001FFFFFFC00
0003FFFFFE00
00003FFFFF80
000003FFFFC0
0000003FFFE0
00000007FFF0
00000000FFF0
000000003FF8
000000001FF8
0000000007F8
0000000007FC
FE00000003FC
FE00000003FC
FE00000003FC
FE00000001FC
FE00000001FC
FF00000003FC
7F00000003FC
7F80000003F8
7F80000007F8
3FC0000007F8
3FE000000FF0
1FF000001FF0
1FFC00007FE0
0FFF0001FFC0
07FFFFFFFFC0
03FFFFFFFF80
01FFFFFFFF00
007FFFFFFC00
003FFFFFF000
0007FFFFC000
00007FF80000
ENDCHAR
STARTCHAR 0054
ENCODING 84
SWIDTH 608 0
DWIDTH 49 0
BBX 46 59 2 0
BITMAP
FFFFFFFFFFFC
FFFFFFFFFFFC
FFFFFFFFFFFC
FFFFFFFFFFFC
FFFFFFFFFFFC
FFFFFFFFFFFC
FFFFFFFFFFFC
00001FE00000
00001FE00000
00001FE00000
00001FE00000
00001FE00000
00001FE00000
00001FE00000
00001FE00000
00001FE00000
00001FE00000
00001FE00000
00001FE00000
00001FE00000
00001FE00000
00001FE00000
00001FE00000
00001FE00000
00001FE00000
00001FE00000
00001FE00000
00001FE00000
00001FE00000
00001FE00000
00001FE00000
00001FE00000
00001FE00000
00001FE00000
00001FE00000
00001FE00000
00001FE00000
00001FE00000
00001FE00000
00001FE00000
00001FE00000
00001FE00000
00001FE00000
00001FE00000
00001FE00000
00001FE00000
00001FE00000
00001FE00000
00001FE00000
00001FE00000
00001FE00000
00001FE00000
00001FE00000
00001FE00000
00001FE00000
00001FE00000
00001FE00000
00001FE00000
00001FE00000
ENDCHAR
STARTCHAR 0055
ENCODING 85
SWIDTH 720 0
DWIDTH 58 0
BBX 45 61 7 -2
BITMAP
FE00000007F8
FE00000007F8
FE00000007F8
FE00000007F8
FE00000007F8
FE00000007F8
FE00000007F8
FE00000007F8
FE00000007F8
FE00000007F8
FE00000007F8
FE00000007F8
FE00000007F8
FE00000007F8
FE00000007F8
FE00000007F8
FE00000007F8
FE00000007F8
FE00000007F8
FE00000007F8
FE00000007F8
FE00000007F8
FE00000007F8
FE00000007F8
FE00000007F8
FE00000007F8
FE00000007F8
FE00000007F8
FE00000007F8
FE00000007F8
FE00000007F8
FE00000007F8
FE00000007F8
FE00000007F8
FE00000007F8
FE00000007F8
FE00000007F8
FE00000007F8
FE00000007F8
FE00000007F8
FE00000007F8
FE00000007F8
FE00000007F8
FE00000007F8
FF00000007F8
FF00000007F8
FF00000007F0
7F8000000FF0
7F8000000FF0
7FC000001FE0
3FE000003FE0
3FF000007FC0
1FFC0001FFC0
0FFF0007FF80
0FFFFFFFFF00
07FFFFFFFE00
01FFFFFFFC00
00FFFFFFF000
003FFFFFC000
000FFFFF0000
0000FFF00000
ENDCHAR
STARTCHAR 0056
ENCODING 86
SWIDTH 670 0
DWIDTH 54 0
BBX 49 59 3 0
BITMAP
FF000000007F80
FF000000007F00
FF00000000FF00
7F80000000FF00
7F80000000FE00
7F80000001FE00
3FC0000001FE00
3FC0000001FC00
3FC0000003FC00
1FE0000003FC00
1FE0000003F800
1FE0000007F800
0FF0000007F800
0FF0000007F000
07F000000FF000
07F800000FF000
07F800000FE000
03FC00001FE000
03FC00001FE000
03FC00001FC000
01FE00003FC000
01FE00003FC000
01FE00003F8000
00FF00007F8000
00FF00007F0000
007F00007F0000
007F8000FF0000
007F8000FE0000
003F8000FE0000
003FC001FE0000
003FC001FC0000
001FC001FC0000
001FE003FC0000
001FE003F80000
000FE003F80000
000FF007F80000
000FF007F00000
0007F007F00000
0007F80FF00000
0003F80FE00000
0003F80FE00000
0003FC1FE00000
0001FC1FC00000
0001FC1FC00000
0001FE3FC00000
0000FE3F800000
0000FF3F800000
0000FF3F800000
00007F7F000000
00007FFF000000
00007FFF000000
00003FFE000000
00003FFE000000
00001FFC000000
00001FFC000000
00001FFC000000
00000FF8000000
00000FF8000000
00000FF8000000
ENDCHAR
STARTCHAR 0057
ENCODING 87
SWIDTH 943 0
DWIDTH 76 0
BBX 73 59 2 0
BITMAP
FF000000FF000000FF80
FF800000FF800000FF00
FF800000FF800000FF00
7F800001FF800000FF00
7F800001FFC00001FF00
7F800001FFC00001FE00
7FC00003FFC00001FE00
3FC00003FFC00001FE00
3FC00003FFE00001FE00
3FC00003FFE00003FC00
3FE00007FFE00003FC00
1FE00007FFF00003FC00
1FE00007F7F00003FC00
1FE00007E7F00007F800
1FF0000FE7F00007F800
0FF0000FE3F80007F800
0FF0000FE3F80007F800
0FF0001FC3F80007F000
0FF0001FC3F8000FF000
07F8001FC1FC000FF000
07F8001F81FC000FF000
07F8003F81FC000FE000
07F8003F80FE001FE000
03FC003F80FE001FE000
03FC003F00FE001FE000
03FC007F00FE001FC000
01FC007F007F003FC000
01FC007F007F003FC000
01FE00FE007F003FC000
01FE00FE007F803F8000
00FE00FE003F803F8000
00FE00FE003F807F8000
00FF01FC003F807F8000
00FF01FC001FC07F0000
007F01FC001FC07F0000
007F01F8001FC0FF0000
007F83F8001FC0FF0000
007F83F8000FE0FE0000
003F83F8000FE0FE0000
003F87F0000FE0FE0000
003F87F00007F1FE0000
003FC7F00007F1FC0000
001FC7F00007F1FC0000
001FCFE00007F1FC0000
001FCFE00003FBFC0000
001FEFE00003FBF80000
000FEFC00003FBF80000
000FFFC00003FFF80000
000FFFC00001FFF80000
000FFFC00001FFF00000
0007FF800001FFF00000
0007FF800000FFF00000
0007FF800000FFF00000
0007FF800000FFE00000
0003FF000000FFE00000
0003FF0000007FE00000
0003FF0000007FE00000
0003FE0000007FC00000
0001FE0000003FC00000
ENDCHAR
STARTCHAR 0058
ENCODING 88
SWIDTH 670 0
DWIDTH 54 0
BBX 50 59 2 0
BITMAP
7FE0000000FF80
3FE0000001FF00
1FF0000001FF00
1FF0000003FE00
0FF8000007FC00
07FC000007FC00
07FC00000FF800
03FE00001FF000
01FF00001FE000
01FF00003FE000
00FF80003FC000
007FC0007F8000
003FC000FF8000
003FE000FF0000
001FF001FE0000
000FF003FE0000
000FF803FC0000
0007FC07F80000
0003FC0FF80000
0003FE0FF00000
0001FF1FE00000
0000FF3FC00000
0000FFBFC00000
00007FFF800000
00003FFF000000
00003FFF000000
00001FFE000000
00000FFC000000
00000FFC000000
00000FFC000000
00001FFE000000
00001FFE000000
00003FFF000000
00007FFF800000
00007FFF800000
0000FF3FC00000
0001FF3FE00000
0001FE1FF00000
0003FC0FF00000
0007FC0FF80000
000FF807FC0000
000FF003FC0000
001FF003FE0000
003FE001FF0000
003FC000FF0000
007FC000FF8000
00FF80007FC000
00FF00003FC000
01FF00003FE000
03FE00001FF000
03FC00001FF000
07FC00000FF800
0FF8000007FC00
0FF0000007FE00
1FF0000003FE00
3FE0000001FF00
7FE0000001FF80
7FC0000000FF80
FF800000007FC0
ENDCHAR
STARTCHAR 0059
ENCODING 89
SWIDTH 670 0
DWIDTH 54 0
BBX 52 59 1 0
BITMAP
FFC00000001FF0
7FC00000003FE0
3FE00000003FE0
3FE00000007FC0
1FF00000007F80
1FF8000000FF80
0FF8000000FF00
07FC000001FF00
07FC000003FE00
03FE000003FC00
01FF000007FC00
01FF000007F800
00FF80000FF800
007F80001FF000
007FC0001FE000
003FE0003FE000
003FE0003FC000
001FF0007F8000
000FF0007F8000
000FF800FF0000
0007FC01FF0000
0003FC01FE0000
0003FE03FC0000
0001FE03FC0000
0001FF07F80000
0000FF8FF80000
00007F8FF00000
00007FDFE00000
00003FDFE00000
00001FFFC00000
00001FFF800000
00000FFF800000
000007FF000000
000007FF000000
000003FE000000
000003FC000000
000001FC000000
000001FC000000
000001FC000000
000001FC000000
000001FC000000
000001FC000000
000001FC000000
000001FC000000
000001FC000000
000001FC000000
000001FC000000
000001FC000000
000001FC000000
000001FC000000
000001FC000000
000001FC000000
000001FC000000
000001FC000000
000001FC000000
000001FC000000
000001FC000000
000001FC000000
000001FC000000
ENDCHAR
STARTCHAR 005A
ENCODING 90
SWIDTH 608 0
DWIDTH 49 0
BBX 45 59 2 0
BITMAP
3FFFFFFFFFF8
3FFFFFFFFFF8
3FFFFFFFFFF8
3FFFFFFFFFF8
3FFFFFFFFFF8
3FFFFFFFFFF8
3FFFFFFFFFF8
000000001FF0
000000003FE0
000000007FE0
000000007FC0
00000000FF80
00000001FF00
00000003FF00
00000007FE00
00000007FC00
0000000FF800
0000001FF800
0000003FF000
0000003FE000
0000007FC000
000000FF8000
000001FF8000
000001FF0000
000003FE0000
000007FC0000
00000FFC0000
00001FF80000
00001FF00000
00003FE00000
00007FE00000
0000FFC00000
0000FF800000
0001FF000000
0003FE000000
0007FE000000
0007FC000000
000FF8000000
001FF0000000
003FF0000000
007FE0000000
007FC0000000
00FF80000000
01FF80000000
03FF00000000
03FE00000000
07FC00000000
0FF800000000
1FF800000000
3FF000000000
3FE000000000
7FC000000000
FFFFFFFFFFF8
FFFFFFFFFFF8
FFFFFFFFFFF8
FFFFFFFFFFF8
FFFFFFFFFFF8
FFFFFFFFFFF8
FFFFFFFFFFF8
ENDCHAR
STARTCHAR 005B
ENCODING 91
SWIDTH 273 0
DWIDTH 22 0
BBX 15 76 5 -17
BITMAP
FFFE
FFFE
FFFE
FFFE
FFFE
FFFE
FE00
FE00
FE00
FE00
FE00
FE00
FE00
FE00
FE00
FE00
FE00
FE00
FE00
FE00
FE00
FE00
FE00
FE00
FE00
FE00
FE00
FE00
FE00
FE00
FE00
FE00
FE00
FE00
FE00
FE00
FE00
FE00
FE00
FE00
FE00
FE00
FE00
FE00
FE00
FE00
FE00
FE00
FE00
FE00
FE00
FE00
FE00
FE00
FE00
FE00
FE00
FE00
FE00
FE00
FE00
FE00
FE00
FE00
FE00
FE00
FE00
FE00
FE00
FE00
FFFE
FFFE
FFFE
FFFE
FFFE
FFFE
ENDCHAR
STARTCHAR 005C
ENCODING 92
SWIDTH 273 0
DWIDTH 22 0
BBX 24 61 -1 -2
BITMAP
F80000
780000
7C0000
7C0000
3C0000
3E0000
3E0000
1E0000
1E0000
1F0000
0F0000
0F0000
0F8000
078000
078000
07C000
07C000
03C000
03E000
03E000
01E000
01F000
01F000
00F000
00F000
00F800
007800
007800
007C00
003C00
003C00
003E00
001E00
001E00
001F00
001F00
000F00
000F80
000F80
000780
000780
0007C0
0003C0
0003C0
0003E0
0001E0
0001E0
0001F0
0000F0
0000F0
0000F8
0000F8
000078
00007C
00007C
00003C
00003C
00003E
00001E
00001E
00001F
ENDCHAR
STARTCHAR 005D
ENCODING 93
SWIDTH 273 0
DWIDTH 22 0
BBX 15 76 2 -17
BITMAP
FFFE
FFFE
FFFE
FFFE
FFFE
FFFE
00FE
00FE
00FE
00FE
00FE
00FE
00FE
00FE
00FE
00FE
00FE
00FE
00FE
00FE
00FE
00FE
00FE
00FE
00FE
00FE
00FE
00FE
00FE
00FE
00FE
00FE
00FE
00FE
00FE
00FE
00FE
00FE
00FE
00FE
00FE
00FE
00FE
00FE
00FE
00FE
00FE
00FE
00FE
00FE
00FE
00FE
00FE
00FE
00FE
00FE
00FE
00FE
00FE
00FE
00FE
00FE
00FE
00FE
00FE
00FE
00FE
00FE
00FE
00FE
FFFE
FFFE
FFFE
FFFE
FFFE
FFFE
ENDCHAR
STARTCHAR 005E
ENCODING 94
SWIDTH 471 0
DWIDTH 38 0
BBX 30 30 4 27
BITMAP
000FC000
001FC000
001FE000
003FE000
003FF000
003FF000
007FF000
007DF800
00FCF800
00FCFC00
00F87C00
01F87E00
01F07E00
03F03E00
03F03F00
03E01F00
07E01F80
07C01F80
0FC00F80
0FC00FC0
0F8007C0
1F8007E0
1F0007E0
3F0003E0
3F0003F0
3E0001F0
7E0001F8
7C0001F8
FC0000F8
FC0000FC
ENDCHAR
STARTCHAR 005F
ENCODING 95
SWIDTH 558 0
DWIDTH 45 0
BBX 49 4 -2 -14
BITMAP
FFFFFFFFFFFF80
FFFFFFFFFFFF80
FFFFFFFFFFFF80
FFFFFFFFFFFF80
ENDCHAR
STARTCHAR 0060
ENCODING 96
SWIDTH 335 0
DWIDTH 27 0
BBX 16 12 2 48
BITMAP
FF80
7FC0
3FE0
1FE0
0FF0
07F0
03F8
01FC
00FC
007E
003F
001F
ENDCHAR
STARTCHAR 0061
ENCODING 97
SWIDTH 558 0
DWIDTH 45 0
BBX 40 45 3 -2
BITMAP
0003FF8000
003FFFF000
00FFFFFC00
01FFFFFF00
03FFFFFF80
07FFFFFF80
0FFF03FFC0
1FF8007FC0
1FE0001FE0
1FC0000FE0
1FC0000FE0
3F80000FE0
3F80000FE0
3F80000FE0
0000000FE0
0000000FE0
0000000FE0
0000001FE0
000001FFE0
0000FFFFE0
001FFFFFE0
00FFFFFFE0
03FFFFFFE0
0FFFFF8FE0
1FFFE00FE0
3FFC000FE0
3FE0000FE0
7FC0000FE0
7F80000FE0
7F00000FE0
7F00000FE0
FE00000FE0
FE00000FE0
FF00001FE0
7F00001FE0
7F00003FE0
7F8000FFE0
7FC001FFE0
3FF00FFFF0
3FFFFFF7FF
1FFFFFE7FF
0FFFFF87FF
07FFFF03FF
01FFFC01FF
003FE000FE
ENDCHAR
STARTCHAR 0062
ENCODING 98
SWIDTH 558 0
DWIDTH 45 0
BBX 38 61 4 -2
BITMAP
FE00000000
FE00000000
FE00000000
FE00000000
FE00000000
FE00000000
FE00000000
FE00000000
FE00000000
FE00000000
FE00000000
FE00000000
FE00000000
FE00000000
FE00000000
FE00000000
FE00FF8000
FE07FFF000
FE1FFFFC00
FE3FFFFE00
FE7FFFFF00
FEFFFFFF80
FFFF87FFC0
FFFC00FFE0
FFF0003FE0
FFE0001FF0
FFC0000FF0
FFC0000FF0
FF800007F8
FF800007F8
FF000003F8
FF000003FC
FF000003FC
FF000001FC
FE000001FC
FE000001FC
FE000001FC
FE000001FC
FE000001FC
FE000001FC
FE000001FC
FE000001FC
FE000001FC
FF000001FC
FF000003FC
FF000003F8
FF000003F8
FF800007F8
FF800007F8
FFC0000FF0
FFC0000FF0
FFE0001FE0
FFF0003FE0
FFFC00FFC0
FDFF87FF80
FCFFFFFF00
FC7FFFFE00
FC3FFFFC00
FC1FFFF800
0007FFE000
0001FF0000
ENDCHAR
STARTCHAR 0063
ENCODING 99
SWIDTH 496 0
DWIDTH 40 0
BBX 35 45 3 -2
BITMAP
0003FE0000
001FFFC000
007FFFF000
01FFFFF800
03FFFFFE00
07FFFFFF00
0FFF07FF00
0FF801FF80
1FF0007F80
3FC0003FC0
3FC0001FC0
3F80001FC0
7F80000FE0
7F00000FE0
7F00000FE0
FE00000000
FE00000000
FE00000000
FE00000000
FE00000000
FE00000000
FE00000000
FE00000000
FE00000000
FE00000000
FE00000000
FE00000000
FE00000000
FE00000000
FE000007E0
FF00000FE0
7F00000FE0
7F00000FE0
7F80001FE0
3FC0001FC0
3FC0003FC0
1FF0007F80
1FF800FF80
0FFF07FF00
07FFFFFE00
03FFFFFC00
01FFFFF800
007FFFF000
001FFFC000
0003FE0000
ENDCHAR
STARTCHAR 0064
ENCODING 100
SWIDTH 558 0
DWIDTH 45 0
BBX 38 61 2 -2
BITMAP
00000001FC
00000001FC
00000001FC
00000001FC
00000001FC
00000001FC
00000001FC
00000001FC
00000001FC
00000001FC
00000001FC
00000001FC
00000001FC
00000001FC
00000001FC
00000001FC
0003FE01FC
001FFF81FC
007FFFE1FC
00FFFFF9FC
01FFFFFDFC
03FFFFFFFC
07FF87FFFC
0FFC00FFFC
1FF8003FFC
1FF0001FFC
3FE0000FFC
3FC00007FC
3F800007FC
7F800003FC
7F000003FC
7F000003FC
7F000001FC
FF000001FC
FE000001FC
FE000001FC
FE000001FC
FE000001FC
FE000001FC
FE000001FC
FE000001FC
FE000001FC
FE000001FC
FF000001FC
7F000001FC
7F000003FC
7F800003FC
7F800003FC
3F800007FC
3FC00007FC
3FE0000FFC
1FF0001FFC
1FF8003FFC
0FFC00FFFC
07FFC7FEFC
03FFFFFCFC
03FFFFFCFC
00FFFFF8FC
007FFFE0FC
001FFF8000
0003FE0000
ENDCHAR
STARTCHAR 0065
ENCODING 101
SWIDTH 558 0
DWIDTH 45 0
BBX 38 45 3 -2
BITMAP
0001FF0000
000FFFE000
003FFFF800
00FFFFFE00
01FFFFFF00
03FFFFFF80
07FF83FFC0
07FC007FE0
0FF0003FE0
1FE0000FF0
1FC0000FF0
3FC00007F8
3F800003F8
3F800003F8
7F000003FC
7F000001FC
7F000001FC
7F000001FC
7E000001FC
FFFFFFFFFC
FFFFFFFFFC
FFFFFFFFFC
FFFFFFFFFC
FFFFFFFFFC
FE00000000
FE00000000
FE00000000
7E00000000
7F00000000
7F00000000
7F000001F8
7F000003F8
3F800003F8
3FC00007F8
3FC00007F0
1FE0000FF0
1FF0001FE0
0FFC007FE0
07FF83FFC0
03FFFFFF80
01FFFFFF00
00FFFFFE00
007FFFF800
001FFFE000
0001FF0000
ENDCHAR
STARTCHAR 0066
ENCODING 102
SWIDTH 273 0
DWIDTH 22 0
BBX 20 59 1 0
BITMAP
0007F0
003FF0
007FF0
00FFF0
01FFF0
01FFF0
03FE00
03F800
03F800
03F800
03F800
03F800
03F800
03F800
03F800
03F800
03F800
FFFFF0
FFFFF0
FFFFF0
FFFFF0
FFFFF0
03F800
03F800
03F800
03F800
03F800
03F800
03F800
03F800
03F800
03F800
03F800
03F800
03F800
03F800
03F800
03F800
03F800
03F800
03F800
03F800
03F800
03F800
03F800
03F800
03F800
03F800
03F800
03F800
03F800
03F800
03F800
03F800
03F800
03F800
03F800
03F800
03F800
ENDCHAR
STARTCHAR 0067
ENCODING 103
SWIDTH 558 0
DWIDTH 45 0
BBX 36 61 3 -18
BITMAP
0007F80000
001FFF03F0
007FFF83F0
01FFFFE3F0
03FFFFF3F0
07FFFFF3F0
07FE0FFBF0
0FF801FFF0
1FE000FFF0
1FC0007FF0
3FC0003FF0
3F80001FF0
3F80001FF0
7F00001FF0
7F00000FF0
7F00000FF0
FE00000FF0
FE000007F0
FE000007F0
FE000007F0
FE000007F0
FE000007F0
FE000007F0
FE000007F0
FE000007F0
FE000007F0
FE000007F0
FE000007F0
FE00000FF0
FF00000FF0
7F00000FF0
7F00000FF0
7F80001FF0
3F80001FF0
3FC0003FF0
1FE0007FF0
1FF000FFF0
0FF801FFF0
0FFE0FF7F0
07FFFFE7F0
03FFFFE7F0
01FFFFC7F0
007FFF07F0
003FFE07E0
0007F007E0
00000007E0
0000000FE0
0000000FE0
7F00000FE0
7F00001FC0
3F80001FC0
3F80003FC0
3FC0007F80
1FE000FF80
1FF803FF00
0FFFFFFE00
07FFFFFC00
03FFFFF800
00FFFFE000
003FFF8000
0001E00000
ENDCHAR
STARTCHAR 0068
ENCODING 104
SWIDTH 558 0
DWIDTH 45 0
BBX 33 59 6 0
BITMAP
FC00000000
FC00000000
FC00000000
FC00000000
FC00000000
FC00000000
FC00000000
FC00000000
FC00000000
FC00000000
FC00000000
FC00000000
FC00000000
FC00000000
FC00000000
FC00000000
FC01FF0000
FC07FFE000
FC1FFFF800
FC3FFFFC00
FC7FFFFE00
FCFFFFFF00
FDFC07FF00
FFF001FF80
FFE0007F80
FFC0007F80
FF80003F80
FF00003F80
FF00003F80
FE00003F80
FE00003F80
FE00003F80
FE00003F80
FC00003F80
FC00003F80
FC00003F80
FC00003F80
FC00003F80
FC00003F80
FC00003F80
FC00003F80
FC00003F80
FC00003F80
FC00003F80
FC00003F80
FC00003F80
FC00003F80
FC00003F80
FC00003F80
FC00003F80
FC00003F80
FC00003F80
FC00003F80
FC00003F80
FC00003F80
FC00003F80
FC00003F80
FC00003F80
FC00003F80
ENDCHAR
STARTCHAR 0069
ENCODING 105
SWIDTH 223 0
DWIDTH 18 0
BBX 7 59 5 0
BITMAP
FE
FE
FE
FE
FE
FE
FE
FE
00
00
00
00
00
00
00
00
00
FE
FE
FE
FE
FE
FE
FE
FE
FE
FE
FE
FE
FE
FE
FE
FE
FE
FE
FE
FE
FE
FE
FE
FE
FE
FE
FE
FE
FE
FE
FE
FE
FE
FE
FE
FE
FE
FE
FE
FE
FE
FE
ENDCHAR
STARTCHAR 006A
ENCODING 106
SWIDTH 223 0
DWIDTH 18 0
BBX 13 77 -1 -18
BITMAP
01F8
01F8
01F8
01F8
01F8
01F8
01F8
01F8
0000
0000
0000
0000
0000
0000
0000
0000
0000
01F8
01F8
01F8
01F8
01F8
01F8
01F8
01F8
01F8
01F8
01F8
01F8
01F8
01F8
01F8
01F8
01F8
01F8
01F8
01F8
01F8
01F8
01F8
01F8
01F8
01F8
01F8
01F8
01F8
01F8
01F8
01F8
01F8
01F8
01F8
01F8
01F8
01F8
01F8
01F8
01F8
01F8
01F8
01F8
01F8
01F8
01F8
01F8
01F8
01F8
01F8
03F8
03F8
0FF8
FFF8
FFF0
FFF0
FFE0
FF80
FC00
ENDCHAR
STARTCHAR 006B
ENCODING 107
SWIDTH 496 0
DWIDTH 40 0
BBX 35 59 5 0
BITMAP
FC00000000
FC00000000
FC00000000
FC00000000
FC00000000
FC00000000
FC00000000
FC00000000
FC00000000
FC00000000
FC00000000
FC00000000
FC00000000
FC00000000
FC00000000
FC00000000
FC00000000
FC0000FF00
FC0001FE00
FC0003FC00
FC0007F800
FC000FF000
FC001FE000
FC003FC000
FC007F8000
FC00FF0000
FC01FE0000
FC03FC0000
FC07F80000
FC0FF00000
FC1FE00000
FC3FC00000
FC7FE00000
FCFFE00000
FDFFF00000
FFFFF80000
FFFFF80000
FFF3FC0000
FFE3FE0000
FFC1FE0000
FF80FF0000
FF00FF0000
FE007F8000
FC007FC000
FC003FC000
FC001FE000
FC001FF000
FC000FF000
FC0007F800
FC0007F800
FC0003FC00
FC0003FE00
FC0001FE00
FC0000FF00
FC0000FF80
FC00007F80
FC00003FC0
FC00003FE0
FC00001FE0
ENDCHAR
STARTCHAR 006C
ENCODING 108
SWIDTH 223 0
DWIDTH 18 0
BBX 7 59 5 0
BITMAP
FE
FE
FE
FE
FE
FE
FE
FE
FE
FE
FE
FE
FE
FE
FE
FE
FE
FE
FE
FE
FE
FE
FE
FE
FE
FE
FE
FE
FE
FE
FE
FE
FE
FE
FE
FE
FE
FE
FE
FE
FE
FE
FE
FE
FE
FE
FE
FE
FE
FE
FE
FE
FE
FE
FE
FE
FE
FE
FE
ENDCHAR
STARTCHAR 006D
ENCODING 109
SWIDTH 831 0
DWIDTH 67 0
BBX 55 43 6 0
BITMAP
0003FE0001FF00
FC0FFFC00FFFC0
FC3FFFE03FFFF0
FC7FFFF07FFFF8
FCFFFFF8FFFFFC
FDFFFFFDFFFFFC
FFF80FFFFC0FFE
FFE007FFF003FE
FFC003FFC001FE
FF8001FF8000FE
FF0000FF8000FE
FF0000FF0000FE
FE0000FF0000FE
FE0000FE00007E
FE0000FE00007E
FC0000FE00007E
FC0000FE00007E
FC0000FE00007E
FC0000FE00007E
FC0000FE00007E
FC0000FE00007E
FC0000FE00007E
FC0000FE00007E
FC0000FE00007E
FC0000FE00007E
FC0000FE00007E
FC0000FE00007E
FC0000FE00007E
FC0000FE00007E
FC0000FE00007E
FC0000FE00007E
FC0000FE00007E
FC0000FE00007E
FC0000FE00007E
FC0000FE00007E
FC0000FE00007E
FC0000FE00007E
FC0000FE00007E
FC0000FE00007E
FC0000FE00007E
FC0000FE00007E
FC0000FE00007E
FC0000FE00007E
ENDCHAR
STARTCHAR 006E
ENCODING 110
SWIDTH 558 0
DWIDTH 45 0
BBX 33 43 6 0
BITMAP
0001FF0000
FC0FFFE000
FC1FFFF800
FC3FFFFC00
FC7FFFFE00
FCFFFFFF00
FDFC07FF00
FFF001FF80
FFE0007F80
FFC0007F80
FF80003F80
FF00003F80
FF00003F80
FE00001F80
FE00001F80
FE00001F80
FE00001F80
FE00001F80
FC00001F80
FC00001F80
FC00001F80
FC00001F80
FC00001F80
FC00001F80
FC00001F80
FC00001F80
FC00001F80
FC00001F80
FC00001F80
FC00001F80
FC00001F80
FC00001F80
FC00001F80
FC00001F80
FC00001F80
FC00001F80
FC00001F80
FC00001F80
FC00001F80
FC00001F80
FC00001F80
FC00001F80
FC00001F80
ENDCHAR
STARTCHAR 006F
ENCODING 111
SWIDTH 558 0
DWIDTH 45 0
BBX 38 45 3 -2
BITMAP
0003FF0000
001FFFE000
007FFFF800
00FFFFFE00
03FFFFFF00
07FFFFFF80
07FF03FFC0
0FFC00FFC0
1FF0003FE0
1FE0001FE0
3FC0000FF0
3FC0000FF0
7F800007F8
7F800007F8
7F000003F8
7F000003F8
FF000003FC
FE000001FC
FE000001FC
FE000001FC
FE000001FC
FE000001FC
FE000001FC
FE000001FC
FE000001FC
FE000001FC
FE000001FC
FE000001FC
FF000001FC
7F000003F8
7F000003F8
7F800003F8
7F800007F8
3FC00007F0
3FC0000FF0
1FE0001FE0
1FF0003FE0
0FFC00FFC0
0FFF03FF80
07FFFFFF80
03FFFFFF00
00FFFFFC00
007FFFF800
001FFFE000
0003FF0000
ENDCHAR
STARTCHAR 0070
ENCODING 112
SWIDTH 558 0
DWIDTH 45 0
BBX 38 61 4 -18
BITMAP
0001FF8000
FE07FFE000
FE1FFFF800
FE3FFFFE00
FE7FFFFF00
FEFFFFFF80
FFFF87FFC0
FFFC00FFC0
FFF0003FE0
FFE0001FE0
FFC0000FF0
FFC0000FF0
FF800007F8
FF800007F8
FF000003F8
FF000003F8
FF000003FC
FF000001FC
FE000001FC
FE000001FC
FE000001FC
FE000001FC
FE000001FC
FE000001FC
FE000001FC
FE000001FC
FE000001FC
FF000001FC
FF000003FC
FF000003FC
FF000003F8
FF800007F8
FF800007F8
FFC0000FF0
FFE0000FF0
FFE0001FE0
FFF8003FE0
FFFC00FFC0
FFFF87FFC0
FEFFFFFF80
FE7FFFFF00
FE3FFFFE00
FE1FFFF800
FE07FFE000
FE00FF0000
FE00000000
FE00000000
FE00000000
FE00000000
FE00000000
FE00000000
FE00000000
FE00000000
FE00000000
FE00000000
FE00000000
FE00000000
FE00000000
FE00000000
FE00000000
FE00000000
ENDCHAR
STARTCHAR 0071
ENCODING 113
SWIDTH 558 0
DWIDTH 45 0
BBX 38 61 2 -18
BITMAP
0003FE0000
001FFFC0FC
007FFFF0FC
00FFFFF8FC
01FFFFFCFC
03FFFFFEFC
07FFC7FFFC
0FFC00FFFC
0FF8003FFC
1FF0001FFC
1FE0000FFC
3FC0000FFC
3F800007FC
7F800003FC
7F000003FC
7F000003FC
7F000001FC
7F000001FC
FE000001FC
FE000001FC
FE000001FC
FE000001FC
FE000001FC
FE000001FC
FE000001FC
FE000001FC
FE000001FC
FF000001FC
7F000001FC
7F000003FC
7F800003FC
7F800003FC
7F800007FC
3FC00007FC
3FE0000FFC
1FF0001FFC
1FF8003FFC
0FFC00FFFC
0FFFC7FFFC
07FFFFFDFC
03FFFFF9FC
01FFFFF1FC
007FFFE1FC
001FFF81FC
0003FE01FC
00000001FC
00000001FC
00000001FC
00000001FC
00000001FC
00000001FC
00000001FC
00000001FC
00000001FC
00000001FC
00000001FC
00000001FC
00000001FC
00000001FC
00000001FC
00000001FC
ENDCHAR
STARTCHAR 0072
ENCODING 114
SWIDTH 335 0
DWIDTH 27 0
BBX 20 43 6 0
BITMAP
0003F0
FC0FF0
FC1FF0
FC3FF0
FC7FF0
FCFFF0
FDFFF0
FDFC00
FFF000
FFC000
FF8000
FF8000
FF0000
FF0000
FE0000
FE0000
FE0000
FE0000
FC0000
FC0000
FC0000
FC0000
FC0000
FC0000
FC0000
FC0000
FC0000
FC0000
FC0000
FC0000
FC0000
FC0000
FC0000
FC0000
FC0000
FC0000
FC0000
FC0000
FC0000
FC0000
FC0000
FC0000
FC0000
ENDCHAR
STARTCHAR 0073
ENCODING 115
SWIDTH 496 0
DWIDTH 40 0
BBX 34 45 3 -2
BITMAP
000FFC0000
007FFF8000
01FFFFE000
07FFFFF000
0FFFFFF800
1FFFFFFC00
1FFC1FFE00
3FE003FE00
3F8000FF00
7F8000FF00
7F00007F00
7F00007F00
7F00007F00
7F00000000
7F00000000
7F80000000
7FC0000000
3FF0000000
3FFF000000
1FFFF00000
0FFFFF0000
07FFFFE000
01FFFFF800
007FFFFC00
000FFFFE00
00007FFF00
000007FF80
000000FF80
0000007FC0
0000003FC0
0000001FC0
FE00001FC0
FE00001FC0
FE00001FC0
FF00001FC0
FF00003F80
7F80007F80
7FE001FF80
3FFC0FFF00
3FFFFFFE00
1FFFFFFC00
0FFFFFF800
03FFFFF000
01FFFF8000
001FFC0000
ENDCHAR
STARTCHAR 0074
ENCODING 116
SWIDTH 273 0
DWIDTH 22 0
BBX 19 56 1 -2
BITMAP
03F800
03F800
03F800
03F800
03F800
03F800
03F800
03F800
03F800
03F800
03F800
03F800
FFFFE0
FFFFE0
FFFFE0
FFFFE0
FFFFE0
03F800
03F800
03F800
03F800
03F800
03F800
03F800
03F800
03F800
03F800
03F800
03F800
03F800
03F800
03F800
03F800
03F800
03F800
03F800
03F800
03F800
03F800
03F800
03F800
03F800
03F800
03F800
03F800
03F800
03F800
03F800
03F800
03FC00
03FFE0
03FFE0
01FFE0
01FFE0
00FFE0
003FE0
ENDCHAR
STARTCHAR 0075
ENCODING 117
SWIDTH 558 0
DWIDTH 45 0
BBX 34 44 5 -2
BITMAP
FE00001FC0
FE00001FC0
FE00001FC0
FE00001FC0
FE00001FC0
FE00001FC0
FE00001FC0
FE00001FC0
FE00001FC0
FE00001FC0
FE00001FC0
FE00001FC0
FE00001FC0
FE00001FC0
FE00001FC0
FE00001FC0
FE00001FC0
FE00001FC0
FE00001FC0
FE00001FC0
FE00001FC0
FE00001FC0
FE00001FC0
FE00001FC0
FE00001FC0
FE00001FC0
FE00001FC0
FE00001FC0
FE00001FC0
FE00003FC0
FE00003FC0
FE00003FC0
FE00007FC0
FF00007FC0
FF0000FFC0
7F8001FFC0
7FC003FFC0
7FF01FEFC0
3FFFFFCFC0
1FFFFF8FC0
1FFFFF0FC0
07FFFE0FC0
03FFF80000
007FC00000
ENDCHAR
STARTCHAR 0076
ENCODING 118
SWIDTH 496 0
DWIDTH 40 0
BBX 38 42 1 0
BITMAP
FF000003FC
FF000003FC
7F000003F8
7F800007F8
7F800007F0
3F800007F0
3FC0000FF0
3FC0000FE0
1FC0000FE0
1FE0001FC0
1FE0001FC0
0FE0001FC0
0FF0003F80
07F0003F80
07F0003F80
07F8007F00
03F8007F00
03F800FE00
03FC00FE00
01FC00FE00
01FC01FC00
01FE01FC00
00FE01F800
00FE03F800
00FF03F800
007F03F000
007F07F000
007F07F000
003F87E000
003F8FE000
001F8FC000
001FCFC000
001FDFC000
000FDF8000
000FFF8000
000FFF0000
0007FF0000
0007FF0000
0007FE0000
0003FE0000
0003FE0000
0003FC0000
ENDCHAR
STARTCHAR 0077
ENCODING 119
SWIDTH 720 0
DWIDTH 58 0
BBX 56 42 1 0
BITMAP
FE0001FF0000FF
FE0001FF0000FF
FF0001FF0000FE
FF0001FF8000FE
7F0003FF8001FE
7F0003FF8001FC
7F8003FF8001FC
3F8003FFC001FC
3F8007FFC003FC
3F8007EFC003F8
1FC007EFC003F8
1FC007EFE003F8
1FC00FEFE007F0
1FC00FC7E007F0
0FE00FC7E007F0
0FE00FC7F00FE0
0FE00FC7F00FE0
07F01F83F00FE0
07F01F83F00FE0
07F01F83F81FC0
07F01F83F81FC0
03F83F01F81FC0
03F83F01FC1F80
03F83F01FC3F80
01F83F01FC3F80
01FC7E00FC3F00
01FC7E00FE3F00
01FC7E00FE7F00
00FC7E00FE7F00
00FEFC007E7E00
00FEFC007F7E00
007EFC007FFE00
007EFC007FFC00
007FF8003FFC00
003FF8003FFC00
003FF8003FFC00
003FF8001FF800
003FF0001FF800
001FF0001FF800
001FF0001FF000
001FF0000FF000
000FE0000FF000
ENDCHAR
STARTCHAR 0078
ENCODING 120
SWIDTH 496 0
DWIDTH 40 0
BBX 36 42 2 0
BITMAP
7F00000FE0
7F80001FE0
3FC0003FC0
1FC0003F80
1FE0007F80
0FF000FF00
07F000FE00
07F801FC00
03FC03FC00
01FC03F800
01FE07F000
00FF0FF000
007F0FE000
007F9FC000
003FBFC000
001FFF8000
001FFF0000
000FFE0000
0007FE0000
0007FC0000
0003FC0000
0003FC0000
0007FE0000
000FFF0000
000FFF0000
001FFF8000
003FBFC000
007F9FC000
007F1FE000
00FE0FF000
01FE07F000
01FC07F800
03F803FC00
07F801FC00
07F001FE00
0FE000FF00
1FE0007F00
3FC0007F80
3F80003FC0
7F80001FC0
FF00001FE0
FE00000FF0
ENDCHAR
STARTCHAR 0079
ENCODING 121
SWIDTH 496 0
DWIDTH 40 0
BBX 36 60 2 -18
BITMAP
FE000007F0
FE000007F0
FF00000FF0
7F00000FE0
7F00000FE0
7F80001FC0
3F80001FC0
3F80001FC0
3FC0003F80
1FC0003F80
1FC0003F80
1FE0007F00
0FE0007F00
0FE000FF00
0FF000FE00
07F000FE00
07F001FC00
07F801FC00
03F801FC00
03F803F800
01FC03F800
01FC03F800
01FC07F000
00FE07F000
00FE07E000
00FE0FE000
007F0FE000
007F1FC000
007F1FC000
003F1FC000
003FBF8000
003FBF8000
001FBF8000
001FFF0000
001FFF0000
000FFE0000
000FFE0000
000FFE0000
0007FC0000
0007FC0000
0007FC0000
0003F80000
0003F80000
0007F00000
0007F00000
0007F00000
000FE00000
000FE00000
001FE00000
001FC00000
001FC00000
003FC00000
007F800000
3FFF800000
3FFF000000
3FFE000000
3FFC000000
3FF8000000
3FF0000000
0300000000
ENDCHAR
STARTCHAR 007A
ENCODING 122
SWIDTH 496 0
DWIDTH 40 0
BBX 35 42 2 0
BITMAP
3FFFFFFFC0
3FFFFFFFC0
3FFFFFFFC0
3FFFFFFFC0
3FFFFFFFC0
3FFFFFFFC0
0000007F80
000000FF00
000000FF00
000001FE00
000003FC00
000007F800
00000FF000
00001FE000
00003FE000
00003FC000
00007F8000
0000FF0000
0001FE0000
0003FC0000
0007FC0000
0007F80000
000FF00000
001FE00000
003FC00000
007F800000
00FF800000
00FF000000
01FE000000
03FC000000
07F8000000
0FF0000000
1FF0000000
1FE0000000
3FC0000000
7F80000000
FFFFFFFFE0
FFFFFFFFE0
FFFFFFFFE0
FFFFFFFFE0
FFFFFFFFE0
FFFFFFFFE0
ENDCHAR
STARTCHAR 007B
ENCODING 123
SWIDTH 335 0
DWIDTH 27 0
BBX 19 76 3 -17
BITMAP
0007E0
001FE0
007FE0
007FE0
00FFE0
00FF00
01FC00
01F800
01F800
01F800
01F800
01F800
01F800
01F800
01F800
01F800
01F800
01F800
01F800
01F800
01F800
01F800
01F800
01F800
01F800
01F800
01F800
01F800
01F800
03F800
03F000
03F000
07F000
0FE000
1FE000
FFC000
FF8000
FE0000
FF0000
FF8000
FFC000
1FE000
0FE000
07F000
03F000
03F000
03F800
01F800
01F800
01F800
01F800
01F800
01F800
01F800
01F800
01F800
01F800
01F800
01F800
01F800
01F800
01F800
01F800
01F800
01F800
01F800
01F800
01F800
01F800
01FC00
00FF80
00FFE0
007FE0
003FE0
001FE0
0007E0
ENDCHAR
STARTCHAR 007C
ENCODING 124
SWIDTH 260 0
DWIDTH 21 0
BBX 5 76 8 -17
BITMAP
F8
F8
F8
F8
F8
F8
F8
F8
F8
F8
F8
F8
F8
F8
F8
F8
F8
F8
F8
F8
F8
F8
F8
F8
F8
F8
F8
F8
F8
F8
F8
F8
F8
F8
F8
F8
F8
F8
F8
F8
F8
F8
F8
F8
F8
F8
F8
F8
F8
F8
F8
F8
F8
F8
F8
F8
F8
F8
F8
F8
F8
F8
F8
F8
F8
F8
F8
F8
F8
F8
F8
F8
F8
F8
F8
F8
ENDCHAR
STARTCHAR 007D
ENCODING 125
SWIDTH 335 0
DWIDTH 27 0
BBX 19 76 2 -17
BITMAP
FE0000
FF8000
FFC000
FFE000
FFF000
0FF000
03F800
03F800
01F800
01F800
01F800
01F800
01F800
01F800
01F800
01F800
01F800
01F800
01F800
01F800
01F800
01F800
01F800
01F800
01F800
01F800
01F800
01F800
01F800
01F800
01FC00
00FC00
00FE00
007F00
007F80
003FE0
001FE0
000FE0
000FE0
001FE0
003FE0
007F80
00FE00
00FE00
00FC00
01FC00
01F800
01F800
01F800
01F800
01F800
01F800
01F800
01F800
01F800
01F800
01F800
01F800
01F800
01F800
01F800
01F800
01F800
01F800
01F800
01F800
01F800
01F800
03F800
03F800
3FF000
FFF000
FFE000
FFC000
FF8000
FE0000
ENDCHAR
STARTCHAR 007E
ENCODING 126
SWIDTH 583 0
DWIDTH 47 0
BBX 35 13 6 22
BITMAP
07F0000000
0FFC000000
1FFF0001E0
3FFF8001E0
3FFFE001E0
7E3FF803E0
7C0FFC03E0
7803FF07C0
F800FFFFC0
F8007FFF80
F0001FFF80
00000FFF00
000003FC00
ENDCHAR
STARTCHAR 00A0
ENCODING 160
SWIDTH 273 0
DWIDTH 22 0
BBX 0 0 0 0
BITMAP
ENDCHAR
STARTCHAR 00A1
ENCODING 161
SWIDTH 335 0
DWIDTH 27 0
BBX 7 59 10 -17
BITMAP
FE
FE
FE
FE
FE
FE
FE
FE
00
00
00
00
00
00
78
78
78
78
78
78
78
7C
7C
7C
7C
FC
FC
FC
FC
FC
FC
FE
FE
FE
FE
FE
FE
FE
FE
FE
FE
FE
FE
FE
FE
FE
FE
FE
FE
FE
FE
FE
FE
FE
FE
FE
FE
FE
FE
ENDCHAR
STARTCHAR 00A2
ENCODING 162
SWIDTH 558 0
DWIDTH 45 0
BBX 37 61 4 -10
BITMAP
0000380000
0000380000
0000380000
0000380000
0000380000
0000380000
0000380000
0000380000
0003FFC000
001FFFF800
007FFFFC00
00FFFFFF00
01FFFFFF80
03FFFFFFC0
07FE38FFC0
0FF8383FE0
0FF0381FE0
1FE0380FF0
1FC03807F0
3FC03807F0
3F803807F0
7F803803F8
7F003803F8
7F00380000
7F00380000
7F00380000
FE00380000
FE00380000
FE00380000
FE00380000
FE00380000
FE00380000
FE00380000
FE00380000
FF00380000
7F00380000
7F003803F8
7F003803F8
7F003803F8
7F803803F8
3F803807F8
3FC03807F0
1FE0380FF0
1FF0380FE0
0FF8381FE0
0FFC387FC0
07FFB9FFC0
03FFFFFF80
01FFFFFF00
00FFFFFE00
003FFFF800
000FFFE000
0000FF0000
0000380000
0000380000
0000380000
0000380000
0000380000
0000380000
0000380000
0000380000
ENDCHAR
STARTCHAR 00A3
ENCODING 163
SWIDTH 558 0
DWIDTH 45 0
BBX 41 61 2 -2
BITMAP
00007FC00000
0003FFF80000
001FFFFF0000
003FFFFF8000
007FFFFFC000
01FFFFFFE000
03FFE1FFF000
03FE001FF800
07FC000FF800
0FF80007FC00
0FF00003FC00
1FE00001FC00
1FE00001FE00
1FC00001FE00
1FC00000FE00
3FC00000FE00
3FC00000FE00
3FC00000FE00
3FC00000FE00
3FC000000000
1FE000000000
1FE000000000
1FE000000000
0FF000000000
0FF000000000
07F800000000
07F800000000
03FC00000000
01FE00000000
FFFFFFE00000
FFFFFFE00000
FFFFFFE00000
FFFFFFE00000
007F80000000
003F80000000
003F80000000
003FC0000000
001FC0000000
001FC0000000
001FC0000000
001FC0000000
001F80000000
001F80000000
003F80000000
003F00000000
007F00000000
007E00000000
00FC00000000
01F800000000
03F800000000
03F000000000
07E3FC000400
0FDFFF801E00
3FFFFFFCFE00
7FFFFFFFFF00
7FFFFFFFFF00
3FFFFFFFFF80
1FE0FFFFFF00
1F000FFFFE00
0C0001FFF800
0000003FC000
ENDCHAR
STARTCHAR 00A4
ENCODING 164
SWIDTH 558 0
DWIDTH 45 0
BBX 33 33 6 11
BITMAP
1800000800
3C00001C00
7E0FF03E00
FF3FFE7F00
FFFFFFFF80
7FFFFFFF80
3FFFFFFF00
1FFFFFFE00
0FFC3FFC00
1FF007F800
1FC003FC00
3F8001FC00
3F8000FC00
3F0000FE00
7F0000FE00
7F00007E00
7F00007E00
7F00007E00
7F00007E00
7F0000FE00
3F8000FE00
3F8001FC00
3FC003FC00
1FE007F800
0FF81FF800
1FFFFFFC00
3FFFFFFE00
7FFFFFFF00
FFFFFFFF80
7F7FFE7F00
3E1FF83E00
1C00001C00
0800000800
ENDCHAR
STARTCHAR 00A5
ENCODING 165
SWIDTH 558 0
DWIDTH 45 0
BBX 43 57 1 0
BITMAP
FE0000000FE0
7E0000001FC0
7F0000001FC0
3F8000003F80
3F8000003F80
1FC000007F00
1FC000007E00
0FE00000FE00
07E00001FC00
07F00001FC00
03F80003F800
03F80003F800
01FC0007F000
01FC0007E000
00FE000FE000
007E000FC000
007F001FC000
003F803F8000
003F803F8000
001FC07F0000
000FC07E0000
000FE0FE0000
0007E0FC0000
0007F1FC0000
0003F9F80000
0003FBF80000
0001FFF00000
0000FFF00000
0000FFE00000
0FFFFFFFFE00
0FFFFFFFFE00
0FFFFFFFFE00
0FFFFFFFFE00
00003F800000
00003F800000
00003F800000
00003F800000
00003F800000
00003F800000
0FFFFFFFFE00
0FFFFFFFFE00
0FFFFFFFFE00
0FFFFFFFFE00
00003F800000
00003F800000
00003F800000
00003F800000
00003F800000
00003F800000
00003F800000
00003F800000
00003F800000
00003F800000
00003F800000
00003F800000
00003F800000
00003F800000
ENDCHAR
STARTCHAR 00A6
ENCODING 166
SWIDTH 260 0
DWIDTH 21 0
BBX 5 76 8 -17
BITMAP
F8
F8
F8
F8
F8
F8
F8
F8
F8
F8
F8
F8
F8
F8
F8
F8
F8
F8
F8
F8
F8
F8
F8
F8
F8
F8
F8
F8
F8
F8
F8
F8
00
00
00
00
00
00
00
00
00
00
00
00
F8
F8
F8
F8
F8
F8
F8
F8
F8
F8
F8
F8
F8
F8
F8
F8
F8
F8
F8
F8
F8
F8
F8
F8
F8
F8
F8
F8
F8
F8
F8
F8
ENDCHAR
STARTCHAR 00A7
ENCODING 167
SWIDTH 558 0
DWIDTH 45 0
BBX 37 76 4 -17
BITMAP
0001FE0000
000FFFC000
001FFFF000
007FFFF800
00FFFFFC00
01FFFFFE00
01FF87FE00
03FE01FF00
03FC00FF00
07F8007F80
07F0003F80
07F0003F80
07F0003F80
0FF0001F80
07F0001F80
07F0001F80
07F8001F80
07FC000000
03FE000000
03FF000000
01FF800000
00FFE00000
01FFF80000
03FFFC0000
0FFFFF0000
1FC7FF8000
3F83FFE000
7F00FFF000
7E007FFC00
FE001FFE00
FC000FFF00
FC0003FF80
FC0001FFC0
FC00007FE0
FC00003FE0
FC00001FF0
FE00000FF0
FF000007F8
FF800007F8
7FC00003F8
7FE00003F8
3FF00003F8
3FFC0003F8
1FFE0003F8
0FFF0003F0
07FFC003F0
01FFE007F0
00FFF00FE0
003FFC0FE0
001FFE3FC0
0007FF7F80
0003FFFE00
0001FFFC00
00007FF000
00003FF800
00000FFC00
000007FE00
000003FE00
000001FF00
000000FF00
3F80007F00
3F80007F00
3F80007F00
3F80007F00
3FC0007F00
1FC0007F00
1FE000FF00
1FE000FE00
0FF803FE00
0FFC07FC00
07FFFFFC00
03FFFFF800
01FFFFF000
00FFFFE000
003FFF8000
000FFC0000
ENDCHAR
STARTCHAR 00A8
ENCODING 168
SWIDTH 335 0
DWIDTH 27 0
BBX 22 8 2 50
BITMAP
FF87FC
FF87FC
FF87FC
FF87FC
FF87FC
FF87FC
FF87FC
FF87FC
ENDCHAR
STARTCHAR 00A9
ENCODING 169
SWIDTH 732 0
DWIDTH 59 0
BBX 62 62 -1 -2
BITMAP
0000007FF0000000
000007FFFF000000
00001FFFFFE00000
00007FFFFFF80000
0001FFFFFFFE0000
0007FFC00FFF0000
000FFC0001FFC000
001FF000003FE000
003FC000001FF000
007F00000007F800
00FE00000003FC00
01FC00000001FE00
03F8000FE0007F00
07F0007FFC007F00
07E001FFFF003F80
0FC003FFFF801FC0
0FC007FFFF800FC0
1F800FF03FC00FE0
1F001FC00FE007E0
3F003F8007E007E0
3F003F0003F003F0
7E007E0003F003F0
7E007E0003F001F0
7C007C0001F801F8
7C00FC0001F801F8
FC00FC00000001F8
FC00FC00000000F8
FC00F800000000F8
FC00F800000000F8
F800F800000000FC
F800F800000000FC
F800F800000000FC
FC00F800000000F8
FC00F800000000F8
FC00F800000000F8
FC00FC0000F800F8
FC00FC0001F801F8
7C00FC0001F801F8
7E007E0001F801F8
7E007E0001F001F0
7E007F0003F003F0
3F003F0003F003F0
3F003F8007E007E0
1F801FE00FE007E0
1F800FF83FC00FC0
0FC007FFFF800FC0
0FE003FFFF001F80
07E001FFFE003F80
07F0007FFC003F00
03F8001FE0007E00
01FC00000000FE00
00FE00000003FC00
007F80000007F800
003FC000000FF000
001FF000003FE000
000FFC0001FFC000
0007FFC00FFF0000
0001FFFFFFFE0000
0000FFFFFFF80000
00003FFFFFE00000
000007FFFF000000
0000007FF0000000
ENDCHAR
STARTCHAR 00AA
ENCODING 170
SWIDTH 372 0
DWIDTH 30 0
BBX 24 35 3 25
BITMAP
01FF00
07FFC0
1FFFE0
1FFFF0
3F83F8
3E00F8
7C00F8
7C0078
7C0078
000078
0000F8
0007F8
03FFF8
0FFFF8
3FFF78
7FF078
7E0078
FC0078
F80078
F800F8
F800F8
F801F8
FC03F8
7E1FFC
7FFFFF
3FFF7F
1FFC3F
07F01E
000000
000000
000000
FFFFFE
FFFFFE
FFFFFE
FFFFFE
ENDCHAR
STARTCHAR 00AB
ENCODING 171
SWIDTH 558 0
DWIDTH 45 0
BBX 29 26 8 9
BITMAP
00100008
00300038
00700078
01F000F8
03F001F8
07F007F8
0FF00FF8
3FE01FE0
7F803FC0
FF00FF80
FE00FE00
FC00FC00
F000F800
F000F800
F800FC00
FE00FE00
FF00FF00
7F807FC0
3FE01FE0
1FF00FF0
07F007F8
03F003F8
01F000F8
00F00078
00300038
00100018
ENDCHAR
STARTCHAR 00AC
ENCODING 172
SWIDTH 583 0
DWIDTH 47 0
BBX 41 23 3 7
BITMAP
FFFFFFFFFF80
FFFFFFFFFF80
FFFFFFFFFF80
FFFFFFFFFF80
FFFFFFFFFF80
FFFFFFFFFF80
000000001F80
000000001F80
000000001F80
000000001F80
000000001F80
000000001F80
000000001F80
000000001F80
000000001F80
000000001F80
000000001F80
000000001F80
000000001F80
000000001F80
000000001F80
000000001F80
000000001F80
ENDCHAR
STARTCHAR 00AD
ENCODING 173
SWIDTH 335 0
DWIDTH 27 0
BBX 19 6 4 19
BITMAP
FFFFE0
FFFFE0
FFFFE0
FFFFE0
FFFFE0
FFFFE0
ENDCHAR
STARTCHAR 00AE
ENCODING 174
SWIDTH 732 0
DWIDTH 59 0
BBX 62 62 -1 -2
BITMAP
0000003FF0000000
000007FFFF000000
00001FFFFFE00000
00007FFFFFF80000
0001FFFFFFFE0000
0007FFC00FFF0000
000FFC0001FFC000
001FF000007FE000
003FC000001FF000
007F80000007F800
00FE00000003FC00
01FC00000001FE00
03F800000000FE00
07F07FFFFE007F00
07E07FFFFF803F80
0FE07FFFFFE01F80
0FC07FFFFFE00FC0
1F807FFFFFF00FC0
1F807E000FF807E0
3F007E0003F807E0
3F007E0001F803F0
3E007E0001F803F0
7E007E0001F801F0
7E007E0001F801F8
7C007E0001F801F8
7C007E0001F801F8
FC007E0001F800F8
FC007E0003F000F8
FC007E000FF000F8
FC007FFFFFE000F8
F8007FFFFFC000FC
F8007FFFFF8000FC
F8007FFFFFE000F8
FC007FFFFFE000F8
FC007E000FF000F8
FC007E0003F000F8
FC007E0003F001F8
7C007E0001F001F8
7E007E0001F801F8
7E007E0001F801F0
7E007E0001F803F0
3F007E0001F803F0
3F007E0001F803E0
1F807E0001F807E0
1F807E0001F80FE0
0FC07E0001F80FC0
0FC07E0001FC1F80
07E07E0001FC3F80
07F07E0000FC3F00
03F8000000007F00
01FC00000000FE00
00FE00000003FC00
007F80000007F800
003FC000000FF000
001FF000003FE000
000FFC0001FFC000
0007FFC00FFF0000
0001FFFFFFFE0000
0000FFFFFFF80000
00003FFFFFE00000
000007FFFF000000
0000007FF0000000
ENDCHAR
STARTCHAR 00AF
ENCODING 175
SWIDTH 335 0
DWIDTH 27 0
BBX 22 6 2 51
BITMAP
FFFFFC
FFFFFC
FFFFFC
FFFFFC
FFFFFC
FFFFFC
ENDCHAR
STARTCHAR 00B0
ENCODING 176
SWIDTH 397 0
DWIDTH 32 0
BBX 24 24 4 31
BITMAP
007F00
03FFC0
07FFF0
0FFFF8
1FFFFC
3F00FC
7E007E
7C003E
F8001F
F8001F
F8000F
F0000F
F8000F
F8000F
F8001F
F8001F
7C003E
7E007E
3F80FC
1FFFFC
1FFFF8
07FFE0
03FFC0
007E00
ENDCHAR
STARTCHAR 00B1
ENCODING 177
SWIDTH 583 0
DWIDTH 47 0
BBX 39 51 4 -1
BITMAP
00007C0000
00007C0000
00007C0000
00007C0000
00007C0000
00007C0000
00007C0000
00007C0000
00007C0000
00007C0000
00007C0000
00007C0000
00007C0000
00007C0000
00007C0000
00007C0000
FFFFFFFFFE
FFFFFFFFFE
FFFFFFFFFE
FFFFFFFFFE
FFFFFFFFFE
FFFFFFFFFE
00007C0000
00007C0000
00007C0000
00007C0000
00007C0000
00007C0000
00007C0000
00007C0000
00007C0000
00007C0000
00007C0000
00007C0000
00007C0000
00007C0000
00007C0000
00007C0000
00007C0000
0000000000
0000000000
0000000000
0000000000
0000000000
0000000000
FFFFFFFFFE
FFFFFFFFFE
FFFFFFFFFE
FFFFFFFFFE
FFFFFFFFFE
FFFFFFFFFE
ENDCHAR
STARTCHAR 00B2
ENCODING 178
SWIDTH 335 0
DWIDTH 27 0
BBX 25 34 1 23
BITMAP
007F8000
03FFE000
0FFFF800
1FFFFC00
1FE3FE00
3F007E00
3E003F00
7E001F00
7C001F00
7C001F80
7C001F80
7C001F00
00001F00
00003F00
00003E00
0000FE00
0001FC00
0007F800
001FF000
007FC000
00FF8000
03FE0000
07F80000
0FE00000
1F800000
3F000000
7E000000
7E000000
7C000000
FFFFFF00
FFFFFF00
FFFFFF00
FFFFFF00
FFFFFF00
ENDCHAR
STARTCHAR 00B3
ENCODING 179
SWIDTH 335 0
DWIDTH 27 0
BBX 24 35 1 22
BITMAP
00FF00
07FFE0
0FFFF0
1FFFF8
3FC7FC
3E00FC
7C007E
7C003E
7C003E
F8003E
F8003E
00003E
00007E
0000FC
000FF8
007FF0
007FE0
007FF8
007FFC
0000FE
00003E
00003F
00001F
00001F
F8001F
F8001F
F8001F
F8001F
FC003F
7E007E
7F81FC
3FFFFC
1FFFF8
0FFFE0
03FF80
ENDCHAR
STARTCHAR 00B4
ENCODING 180
SWIDTH 335 0
DWIDTH 27 0
BBX 16 12 8 48
BITMAP
01FF
03FE
03FC
07F8
0FF0
0FE0
1FC0
3F80
3F00
7E00
FC00
F800
ENDCHAR
STARTCHAR 00B5
ENCODING 181
SWIDTH 558 0
DWIDTH 45 0
BBX 39 60 5 -18
BITMAP
FE00001FC0
FE00001FC0
FE00001FC0
FE00001FC0
FE00001FC0
FE00001FC0
FE00001FC0
FE00001FC0
FE00001FC0
FE00001FC0
FE00001FC0
FE00001FC0
FE00001FC0
FE00001FC0
FE00001FC0
FE00001FC0
FE00001FC0
FE00001FC0
FE00001FC0
FE00001FC0
FE00001FC0
FE00001FC0
FE00001FC0
FE00001FC0
FE00001FC0
FE00001FC0
FE00001FC0
FE00001FC0
FE00001FC0
FE00003FC0
FE00003FC0
FE00003FC0
FE00007FC0
FF00007FC0
FF0000FFC0
FF8001FFC0
FFC007FFC0
FFF01FFFE0
FFFFFFDFFE
FFFFFF8FFE
FFFFFF0FFE
FFFFFE0FFE
FEFFF807FE
FE3FC001FC
FE00000000
FE00000000
FE00000000
FE00000000
FE00000000
FE00000000
FE00000000
FE00000000
FE00000000
FE00000000
FE00000000
FE00000000
FE00000000
FE00000000
FE00000000
FE00000000
ENDCHAR
STARTCHAR 00B6
ENCODING 182
SWIDTH 533 0
DWIDTH 43 0
BBX 38 73 4 -14
BITMAP
0003FFFFFC
001FFFFFFC
007FFFFFFC
00FFFFFFFC
03FFFFFFFC
07FFFC0F80
0FFFFC0F80
0FFFFC0F80
1FFFFC0F80
3FFFFC0F80
3FFFFC0F80
7FFFFC0F80
7FFFFC0F80
7FFFFC0F80
FFFFFC0F80
FFFFFC0F80
FFFFFC0F80
FFFFFC0F80
FFFFFC0F80
FFFFFC0F80
FFFFFC0F80
FFFFFC0F80
FFFFFC0F80
FFFFFC0F80
FFFFFC0F80
7FFFFC0F80
7FFFFC0F80
7FFFFC0F80
3FFFFC0F80
3FFFFC0F80
1FFFFC0F80
0FFFFC0F80
07FFFC0F80
03FFFC0F80
01FFFC0F80
00FFFC0F80
003FFC0F80
0007FC0F80
00007C0F80
00007C0F80
00007C0F80
00007C0F80
00007C0F80
00007C0F80
00007C0F80
00007C0F80
00007C0F80
00007C0F80
00007C0F80
00007C0F80
00007C0F80
00007C0F80
00007C0F80
00007C0F80
00007C0F80
00007C0F80
00007C0F80
00007C0F80
00007C0F80
00007C0F80
00007C0F80
00007C0F80
00007C0F80
00007C0F80
00007C0F80
00007C0F80
00007C0F80
00007C0F80
00007C0F80
00007C0F80
00007C0F80
00007C0F80
00007C0F80
ENDCHAR
STARTCHAR 00B7
ENCODING 183
SWIDTH 273 0
DWIDTH 22 0
BBX 8 8 9 18
BITMAP
FF
FF
FF
FF
FF
FF
FF
FF
ENDCHAR
STARTCHAR 00B8
ENCODING 184
SWIDTH 335 0
DWIDTH 27 0
BBX 20 17 3 -17
BITMAP
003800
003800
007000
007000
00FE00
00FFC0
01FFE0
019FF0
0007F0
0003F0
0003F0
0003F0
7007F0
7E0FE0
FFFFC0
3FFF80
07FE00
ENDCHAR
STARTCHAR 00B9
ENCODING 185
SWIDTH 335 0
DWIDTH 27 0
BBX 13 34 4 23
BITMAP
0038
0078
0078
00F8
00F8
03F8
7FF8
FFF8
FFF8
FFF8
00F8
00F8
00F8
00F8
00F8
00F8
00F8
00F8
00F8
00F8
00F8
00F8
00F8
00F8
00F8
00F8
00F8
00F8
00F8
00F8
00F8
00F8
00F8
00F8
ENDCHAR
STARTCHAR 00BA
ENCODING 186
SWIDTH 360 0
DWIDTH 29 0
BBX 23 35 3 25
BITMAP
00FF00
03FFC0
0FFFE0
1FFFF0
1FC3F8
3F01F8
3E00FC
7C007C
7C007C
78003E
78003E
F8003E
F8003E
F8003E
F8003E
F8003E
F8003E
F8003E
7C003E
7C003C
7C007C
7E00FC
3F01F8
1FC3F8
1FFFF0
0FFFE0
03FFC0
00FE00
000000
000000
000000
7FFFFC
7FFFFC
7FFFFC
7FFFFC
ENDCHAR
STARTCHAR 00BB
ENCODING 187
SWIDTH 558 0
DWIDTH 45 0
BBX 28 26 8 9
BITMAP
80008000
C000C000
E000E000
F800F800
FC00FC00
FE00FE00
FF80FF80
7FC07FC0
1FE01FE0
0FF00FF0
07F007F0
01F001F0
00F000F0
00F000F0
01F001F0
07F007F0
0FF00FF0
1FE01FE0
3FC03FC0
FF80FF80
FE00FE00
FC00FC00
F800F800
F000F000
C000C000
80008000
ENDCHAR
STARTCHAR 00BC
ENCODING 188
SWIDTH 831 0
DWIDTH 67 0
BBX 64 59 2 -2
BITMAP
003800000001E000
007800000003E000
007800000003C000
00F800000007C000
00F80000000F8000
01F80000000F0000
0FF80000001F0000
FFF80000003E0000
FFF80000003E0000
FFF80000007C0000
FFF8000000780000
00F8000000F80000
00F8000001F00000
00F8000001E00000
00F8000003E00000
00F8000003C00000
00F8000007C00000
00F800000F800000
00F800000F000000
00F800001F000000
00F800003E000000
00F800003C000000
00F800007C000000
00F80000780003C0
00F80000F80007C0
00F80001F00007C0
00F80001E0000FC0
00F80003E0001FC0
00F80007C0003FC0
00F80007C0003FC0
00F8000F80007FC0
00F8000F0000FFC0
00F8001F0001F7C0
00F8003E0003F7C0
0000003C0003E7C0
0000007C0007C7C0
00000078000F87C0
000000F8001F07C0
000001F0001F07C0
000001E0003E07C0
000003E0007C07C0
000007C000F807C0
0000078000F807C0
00000F8001F007C0
00000F0003E007C0
00001F0003FFFFFF
00003E0003FFFFFF
00003C0003FFFFFF
00007C0003FFFFFF
0000F800000007C0
0000F800000007C0
0001F000000007C0
0001E000000007C0
0003E000000007C0
0007C000000007C0
00078000000007C0
000F8000000007C0
001F000000000000
001F000000000000
ENDCHAR
STARTCHAR 00BD
ENCODING 189
SWIDTH 831 0
DWIDTH 67 0
BBX 63 59 2 -2
BITMAP
0078000000078000
00780000000F8000
00780000001F0000
00F80000001F0000
00F80000003E0000
01F80000003C0000
1FF80000007C0000
FFF8000000F80000
FFF8000000F00000
FFF8000001F00000
FFF8000001E00000
00F8000003E00000
00F8000007C00000
00F8000007800000
00F800000F800000
00F800001F000000
00F800001F000000
00F800003E000000
00F800003C000000
00F800007C000000
00F80000F8000000
00F80000F0000000
00F80001F0000000
00F80001E001FE00
00F80003E00FFFC0
00F80007C01FFFE0
00F80007803FFFF8
00F8000F807F8FF8
00F8001F007E01FC
00F8001E00FC007C
00F8003E00F8007E
00F8003C00F8003E
00F8007C01F0003E
00F800F801F0003E
000000F001F0003E
000001F00000003E
000003E00000007E
000003E0000000FC
000007C0000001FC
00000780000003F8
00000F8000000FF0
00001F0000003FE0
00001E000000FF80
00003E000003FF00
00003C000007FC00
00007C00000FF000
0000F800003FC000
0000F000003F0000
0001F000007E0000
0003E00000FC0000
0003C00000F80000
0007C00001F80000
0007800001F00000
000F800001FFFFFE
001F000001FFFFFE
001E000001FFFFFE
003E000003FFFFFE
007C000000000000
007C000000000000
ENDCHAR
STARTCHAR 00BE
ENCODING 190
SWIDTH 831 0
DWIDTH 67 0
BBX 63 59 2 -2
BITMAP
00FF800000007C00
03FFE0000000F800
0FFFF0000000F000
1FFFFC000001F000
1FC3FC000003E000
3F007E000003E000
3E003E000007C000
7C003E0000078000
7C003E00000F8000
7C003F00001F0000
7C003F00001E0000
00003E00003E0000
00003E00003C0000
00007E00007C0000
000FFC0000F80000
003FF80000F00000
003FE00001F00000
003FF80003E00000
003FFE0003C00000
00007E0007C00000
00003F0007800000
00001F000F800000
00001F801F000000
00000F801E0003C0
F8000F803E0007C0
F8000F807C000FC0
F8001F807C000FC0
FC001F00F8001FC0
7C003F00F0003FC0
7E007F01F0007FC0
3F80FE03E000FFC0
3FFFFC03C000FFC0
1FFFF807C001F7C0
07FFF0078003E7C0
01FF800F8007C7C0
0000001F0007C7C0
0000001E000F87C0
0000003E001F07C0
0000007C003E07C0
0000007C003E07C0
000000F8007C07C0
000000F000F807C0
000001F001F007C0
000003E001F007C0
000003C003E007C0
000007C003FFFFFE
0000078003FFFFFE
00000F8003FFFFFE
00001F0003FFFFFE
00001E00000007C0
00003E00000007C0
00007C00000007C0
00007C00000007C0
0000F800000007C0
0000F000000007C0
0001F000000007C0
0003E000000007C0
0003C00000000000
0007C00000000000
ENDCHAR
STARTCHAR 00BF
ENCODING 191
SWIDTH 608 0
DWIDTH 49 0
BBX 35 59 8 -17
BITMAP
0003F80000
0003F80000
0003F80000
0003F80000
0003F80000
0003F80000
0003F80000
0003F80000
0000000000
0000000000
0000000000
0000000000
0000000000
0000000000
0000000000
0000000000
0003F80000
0003F80000
0003F80000
0003F80000
0003F80000
0003F80000
0003F80000
0007F80000
0007F80000
000FF00000
001FF00000
003FE00000
007FC00000
00FF800000
01FF000000
03FE000000
07FC000000
0FF8000000
1FF0000000
3FE0000000
3FC0000000
7F80000000
7F00000000
FF00000000
FE00000000
FE00000FE0
FE00000FE0
FE00000FC0
FE00001FC0
FE00001FC0
FE00001FC0
FF00001FC0
FF00003F80
7F80003F80
7FC0007F80
7FE000FF00
3FFC07FF00
1FFFFFFE00
0FFFFFFC00
07FFFFF800
03FFFFF000
00FFFFC000
001FFE0000
ENDCHAR
STARTCHAR 00C0
ENCODING 192
SWIDTH 670 0
DWIDTH 54 0
BBX 50 76 2 0
BITMAP
0003FE00000000
0001FE00000000
0000FF00000000
00007F80000000
00003F80000000
00001FC0000000
00000FE0000000
000007E0000000
000003F0000000
000001F8000000
000000F8000000
0000007C000000
00000000000000
00000000000000
00000000000000
00000000000000
00000000000000
00000FFC000000
00000FFE000000
00001FFE000000
00001FFE000000
00001FFF000000
00003FFF000000
00003FFF000000
00003FFF800000
00007FFF800000
00007FBF800000
00007F3FC00000
0000FF3FC00000
0000FE1FC00000
0000FE1FE00000
0001FE1FE00000
0001FC0FE00000
0003FC0FF00000
0003FC0FF00000
0003F807F00000
0007F807F80000
0007F807F80000
0007F003FC0000
000FF003FC0000
000FF003FC0000
000FE001FE0000
001FE001FE0000
001FC001FE0000
001FC000FF0000
003FC000FF0000
003F8000FF0000
007F80007F8000
007F80007F8000
007F00007F8000
00FF00003FC000
00FF00003FC000
00FFFFFFFFC000
01FFFFFFFFE000
01FFFFFFFFE000
01FFFFFFFFE000
03FFFFFFFFF000
03FFFFFFFFF000
03F800000FF800
07F8000007F800
07F8000007F800
07F0000007FC00
0FF0000003FC00
0FF0000003FC00
1FE0000003FE00
1FE0000001FE00
1FE0000001FE00
3FC0000001FF00
3FC0000000FF00
3FC0000000FF00
7F80000000FF80
7F800000007F80
7F800000007F80
FF000000007FC0
FF000000003FC0
FF000000003FC0
ENDCHAR
STARTCHAR 00C1
ENCODING 193
SWIDTH 670 0
DWIDTH 54 0
BBX 50 76 2 0
BITMAP
0000000FF80000
0000001FE00000
0000003FC00000
0000003F800000
0000007F000000
000000FE000000
000000FC000000
000001F8000000
000003F0000000
000003E0000000
000007C0000000
00000F80000000
00000000000000
00000000000000
00000000000000
00000000000000
00000000000000
00000FFC000000
00000FFE000000
00001FFE000000
00001FFE000000
00001FFF000000
00003FFF000000
00003FFF000000
00003FFF800000
00007FFF800000
00007FBF800000
00007F3FC00000
0000FF3FC00000
0000FE1FC00000
0000FE1FE00000
0001FE1FE00000
0001FC0FE00000
0003FC0FF00000
0003FC0FF00000
0003F807F00000
0007F807F80000
0007F807F80000
0007F003FC0000
000FF003FC0000
000FF003FC0000
000FE001FE0000
001FE001FE0000
001FC001FE0000
001FC000FF0000
003FC000FF0000
003F8000FF0000
007F80007F8000
007F80007F8000
007F00007F8000
00FF00003FC000
00FF00003FC000
00FFFFFFFFC000
01FFFFFFFFE000
01FFFFFFFFE000
01FFFFFFFFE000
03FFFFFFFFF000
03FFFFFFFFF000
03F800000FF800
07F8000007F800
07F8000007F800
07F0000007FC00
0FF0000003FC00
0FF0000003FC00
1FE0000003FE00
1FE0000001FE00
1FE0000001FE00
3FC0000001FF00
3FC0000000FF00
3FC0000000FF00
7F80000000FF80
7F800000007F80
7F800000007F80
FF000000007FC0
FF000000003FC0
FF000000003FC0
ENDCHAR
STARTCHAR 00C2
ENCODING 194
SWIDTH 670 0
DWIDTH 54 0
BBX 50 76 2 0
BITMAP
000007F8000000
00000FFC000000
00000FFC000000
00001FFE000000
00003FFF000000
00003F3F000000
00007E1F800000
0000FC0FC00000
0000FC0FC00000
0001F807E00000
0003F003F00000
0003E001F00000
00000000000000
00000000000000
00000000000000
00000000000000
00000000000000
00000FFC000000
00000FFE000000
00001FFE000000
00001FFE000000
00001FFF000000
00003FFF000000
00003FFF000000
00003FFF800000
00007FFF800000
00007FBF800000
00007F3FC00000
0000FF3FC00000
0000FE1FC00000
0000FE1FE00000
0001FE1FE00000
0001FC0FE00000
0003FC0FF00000
0003FC0FF00000
0003F807F00000
0007F807F80000
0007F807F80000
0007F003FC0000
000FF003FC0000
000FF003FC0000
000FE001FE0000
001FE001FE0000
001FC001FE0000
001FC000FF0000
003FC000FF0000
003F8000FF0000
007F80007F8000
007F80007F8000
007F00007F8000
00FF00003FC000
00FF00003FC000
00FFFFFFFFC000
01FFFFFFFFE000
01FFFFFFFFE000
01FFFFFFFFE000
03FFFFFFFFF000
03FFFFFFFFF000
03F800000FF800
07F8000007F800
07F8000007F800
07F0000007FC00
0FF0000003FC00
0FF0000003FC00
1FE0000003FE00
1FE0000001FE00
1FE0000001FE00
3FC0000001FF00
3FC0000000FF00
3FC0000000FF00
7F80000000FF80
7F800000007F80
7F800000007F80
FF000000007FC0
FF000000003FC0
FF000000003FC0
ENDCHAR
STARTCHAR 00C3
ENCODING 195
SWIDTH 670 0
DWIDTH 54 0
BBX 50 74 2 0
BITMAP
00007C007C0000
0000FF80F80000
0001FFF0F80000
0003FFFFF80000
0007FFFFF00000
0007EFFFF00000
0007C0FFE00000
000F803FC00000
00000000000000
00000000000000
00000000000000
00000000000000
00000000000000
00000000000000
00000000000000
00000FFC000000
00000FFE000000
00001FFE000000
00001FFE000000
00001FFF000000
00003FFF000000
00003FFF000000
00003FFF800000
00007FFF800000
00007FBF800000
00007F3FC00000
0000FF3FC00000
0000FE1FC00000
0000FE1FE00000
0001FE1FE00000
0001FC0FE00000
0003FC0FF00000
0003FC0FF00000
0003F807F00000
0007F807F80000
0007F807F80000
0007F003FC0000
000FF003FC0000
000FF003FC0000
000FE001FE0000
001FE001FE0000
001FC001FE0000
001FC000FF0000
003FC000FF0000
003F8000FF0000
007F80007F8000
007F80007F8000
007F00007F8000
00FF00003FC000
00FF00003FC000
00FFFFFFFFC000
01FFFFFFFFE000
01FFFFFFFFE000
01FFFFFFFFE000
03FFFFFFFFF000
03FFFFFFFFF000
03F800000FF800
07F8000007F800
07F8000007F800
07F0000007FC00
0FF0000003FC00
0FF0000003FC00
1FE0000003FE00
1FE0000001FE00
1FE0000001FE00
3FC0000001FF00
3FC0000000FF00
3FC0000000FF00
7F80000000FF80
7F800000007F80
7F800000007F80
FF000000007FC0
FF000000003FC0
FF000000003FC0
ENDCHAR
STARTCHAR 00C4
ENCODING 196
SWIDTH 670 0
DWIDTH 54 0
BBX 50 74 2 0
BITMAP
0003FE1FF00000
0003FE1FF00000
0003FE1FF00000
0003FE1FF00000
0003FE1FF00000
0003FE1FF00000
0003FE1FF00000
0003FE1FF00000
00000000000000
00000000000000
00000000000000
00000000000000
00000000000000
00000000000000
00000000000000
00000FFC000000
00000FFE000000
00001FFE000000
00001FFE000000
00001FFF000000
00003FFF000000
00003FFF000000
00003FFF800000
00007FFF800000
00007FBF800000
00007F3FC00000
0000FF3FC00000
0000FE1FC00000
0000FE1FE00000
0001FE1FE00000
0001FC0FE00000
0003FC0FF00000
0003FC0FF00000
0003F807F00000
0007F807F80000
0007F807F80000
0007F003FC0000
000FF003FC0000
000FF003FC0000
000FE001FE0000
001FE001FE0000
001FC001FE0000
001FC000FF0000
003FC000FF0000
003F8000FF0000
007F80007F8000
007F80007F8000
007F00007F8000
00FF00003FC000
00FF00003FC000
00FFFFFFFFC000
01FFFFFFFFE000
01FFFFFFFFE000
01FFFFFFFFE000
03FFFFFFFFF000
03FFFFFFFFF000
03F800000FF800
07F8000007F800
07F8000007F800
07F0000007FC00
0FF0000003FC00
0FF0000003FC00
1FE0000003FE00
1FE0000001FE00
1FE0000001FE00
3FC0000001FF00
3FC0000000FF00
3FC0000000FF00
7F80000000FF80
7F800000007F80
7F800000007F80
FF000000007FC0
FF000000003FC0
FF000000003FC0
ENDCHAR
STARTCHAR 00C5
ENCODING 197
SWIDTH 670 0
DWIDTH 54 0
BBX 50 77 2 0
BITMAP
000003F0000000
000007F8000000
00000FFC000000
00001FFE000000
00003E1F000000
00003C0F000000
00003C0F000000
00003C07000000
00003C0F000000
00003E1F000000
00001FFE000000
00000FFC000000
000007F8000000
000003F0000000
00000000000000
00000000000000
00000000000000
00000000000000
00000FFC000000
00000FFE000000
00001FFE000000
00001FFE000000
00001FFF000000
00003FFF000000
00003FFF000000
00003FFF800000
00007FFF800000
00007FBF800000
00007F3FC00000
0000FF3FC00000
0000FE1FC00000
0000FE1FE00000
0001FE1FE00000
0001FC0FE00000
0003FC0FF00000
0003FC0FF00000
0003F807F00000
0007F807F80000
0007F807F80000
0007F003FC0000
000FF003FC0000
000FF003FC0000
000FE001FE0000
001FE001FE0000
001FC001FE0000
001FC000FF0000
003FC000FF0000
003F8000FF0000
007F80007F8000
007F80007F8000
007F00007F8000
00FF00003FC000
00FF00003FC000
00FFFFFFFFC000
01FFFFFFFFE000
01FFFFFFFFE000
01FFFFFFFFE000
03FFFFFFFFF000
03FFFFFFFFF000
03F800000FF800
07F8000007F800
07F8000007F800
07F0000007FC00
0FF0000003FC00
0FF0000003FC00
1FE0000003FE00
1FE0000001FE00
1FE0000001FE00
3FC0000001FF00
3FC0000000FF00
3FC0000000FF00
7F80000000FF80
7F800000007F80
7F800000007F80
FF000000007FC0
FF000000003FC0
FF000000003FC0
ENDCHAR
STARTCHAR 00C6
ENCODING 198
SWIDTH 1005 0
DWIDTH 81 0
BBX 76 59 1 0
BITMAP
000000FFFFFFFFFFFFC0
000001FFFFFFFFFFFFC0
000001FFFFFFFFFFFFC0
000001FFFFFFFFFFFFC0
000003FFFFFFFFFFFFC0
000003FFFFFFFFFFFFC0
000007FFFFFFFFFFFFC0
000007F007F000000000
00000FF007F000000000
00000FF007F000000000
00000FE007F000000000
00001FE007F000000000
00001FC007F000000000
00003FC007F000000000
00003FC007F000000000
00003F8007F000000000
00007F8007F000000000
00007F0007F000000000
0000FF0007F000000000
0000FF0007F000000000
0000FE0007F000000000
0001FE0007F000000000
0001FC0007F000000000
0003FC0007F000000000
0003FC0007F000000000
0003F80007FFFFFFFF80
0007F80007FFFFFFFF80
0007F00007FFFFFFFF80
000FF00007FFFFFFFF80
000FF00007FFFFFFFF80
000FE00007FFFFFFFF80
001FE00007FFFFFFFF80
001FE00007F000000000
003FC00007F000000000
003FC00007F000000000
007FFFFFFFF000000000
007FFFFFFFF000000000
007FFFFFFFF000000000
00FFFFFFFFF000000000
00FFFFFFFFF000000000
01FFFFFFFFF000000000
01FFFFFFFFF000000000
01FE000007F000000000
03FC000007F000000000
03FC000007F000000000
07FC000007F000000000
07F8000007F000000000
07F8000007F000000000
0FF0000007F000000000
0FF0000007F000000000
1FF0000007F000000000
1FE0000007F000000000
1FE0000007FFFFFFFFF0
3FC0000007FFFFFFFFF0
3FC0000007FFFFFFFFF0
7FC0000007FFFFFFFFF0
7F80000007FFFFFFFFF0
FF80000007FFFFFFFFF0
FF00000007FFFFFFFFF0
ENDCHAR
STARTCHAR 00C7
ENCODING 199
SWIDTH 720 0
DWIDTH 58 0
BBX 51 77 4 -17
BITMAP
000007FF800000
00007FFFF00000
0001FFFFFE0000
0007FFFFFF0000
001FFFFFFFC000
003FFFFFFFE000
007FFFFFFFF000
00FFF000FFF800
01FFC0001FF800
03FF00000FFC00
03FE000003FE00
07FC000001FE00
0FF8000001FE00
0FF0000000FF00
1FE0000000FF00
1FE00000007F80
3FC00000007F80
3FC00000007F80
3F800000003F80
7F800000000000
7F800000000000
7F000000000000
7F000000000000
7F000000000000
FF000000000000
FF000000000000
FF000000000000
FF000000000000
FE000000000000
FE000000000000
FE000000000000
FE000000000000
FE000000000000
FE000000000000
FF000000000000
FF000000000000
FF000000000000
FF000000000000
7F000000001FE0
7F000000001FC0
7F800000003FC0
7F800000003FC0
7F800000003FC0
3FC00000003FC0
3FC00000007F80
3FE00000007F80
1FE00000007F80
1FF0000000FF00
0FF8000000FF00
0FF8000001FF00
07FC000003FE00
03FF000007FC00
03FF80000FFC00
01FFE0003FF800
00FFFC01FFF000
007FFFFFFFE000
003FFFFFFFC000
000FFFFFFF8000
0007FFFFFE0000
0001FFFFF80000
00003FFFE00000
000001E0000000
000001C0000000
000001C0000000
000003FE000000
000003FF800000
000007FF800000
0000003FC00000
0000000FC00000
0000000FC00000
0000000FC00000
0000000FC00000
0001C01FC00000
0001F83F800000
0003FFFF000000
0000FFFE000000
00001FF8000000
ENDCHAR
STARTCHAR 00C8
ENCODING 200
SWIDTH 670 0
DWIDTH 54 0
BBX 42 76 7 0
BITMAP
003FE0000000
001FF0000000
000FF0000000
0007F8000000
0003FC000000
0001FC000000
0000FE000000
00007F000000
00003F000000
00001F800000
00000FC00000
000007C00000
000000000000
000000000000
000000000000
000000000000
000000000000
FFFFFFFFFF80
FFFFFFFFFF80
FFFFFFFFFF80
FFFFFFFFFF80
FFFFFFFFFF80
FFFFFFFFFF80
FFFFFFFFFF80
FF0000000000
FF0000000000
FF0000000000
FF0000000000
FF0000000000
FF0000000000
FF0000000000
FF0000000000
FF0000000000
FF0000000000
FF0000000000
FF0000000000
FF0000000000
FF0000000000
FF0000000000
FF0000000000
FF0000000000
FF0000000000
FFFFFFFFFF00
FFFFFFFFFF00
FFFFFFFFFF00
FFFFFFFFFF00
FFFFFFFFFF00
FFFFFFFFFF00
FFFFFFFFFF00
FF0000000000
FF0000000000
FF0000000000
FF0000000000
FF0000000000
FF0000000000
FF0000000000
FF0000000000
FF0000000000
FF0000000000
FF0000000000
FF0000000000
FF0000000000
FF0000000000
FF0000000000
FF0000000000
FF0000000000
FF0000000000
FF0000000000
FF0000000000
FFFFFFFFFFC0
FFFFFFFFFFC0
FFFFFFFFFFC0
FFFFFFFFFFC0
FFFFFFFFFFC0
FFFFFFFFFFC0
FFFFFFFFFFC0
ENDCHAR
STARTCHAR 00C9
ENCODING 201
SWIDTH 670 0
DWIDTH 54 0
BBX 42 76 7 0
BITMAP
000003FE0000
000003FC0000
000007F80000
00000FF00000
00000FE00000
00001FC00000
00003F800000
00003F000000
00007E000000
0000FC000000
0000F8000000
0001F0000000
000000000000
000000000000
000000000000
000000000000
000000000000
FFFFFFFFFF80
FFFFFFFFFF80
FFFFFFFFFF80
FFFFFFFFFF80
FFFFFFFFFF80
FFFFFFFFFF80
FFFFFFFFFF80
FF0000000000
FF0000000000
FF0000000000
FF0000000000
FF0000000000
FF0000000000
FF0000000000
FF0000000000
FF0000000000
FF0000000000
FF0000000000
FF0000000000
FF0000000000
FF0000000000
FF0000000000
FF0000000000
FF0000000000
FF0000000000
FFFFFFFFFF00
FFFFFFFFFF00
FFFFFFFFFF00
FFFFFFFFFF00
FFFFFFFFFF00
FFFFFFFFFF00
FFFFFFFFFF00
FF0000000000
FF0000000000
FF0000000000
FF0000000000
FF0000000000
FF0000000000
FF0000000000
FF0000000000
FF0000000000
FF0000000000
FF0000000000
FF0000000000
FF0000000000
FF0000000000
FF0000000000
FF0000000000
FF0000000000
FF0000000000
FF0000000000
FF0000000000
FFFFFFFFFFC0
FFFFFFFFFFC0
FFFFFFFFFFC0
FFFFFFFFFFC0
FFFFFFFFFFC0
FFFFFFFFFFC0
FFFFFFFFFFC0
ENDCHAR
STARTCHAR 00CA
ENCODING 202
SWIDTH 670 0
DWIDTH 54 0
BBX 42 76 7 0
BITMAP
00007F800000
0000FFC00000
0001FFC00000
0001FFE00000
0003FFE00000
0007F3F00000
0007E1F80000
000FC1F80000
001F80FC0000
001F807E0000
003F003E0000
003E001F0000
000000000000
000000000000
000000000000
000000000000
000000000000
FFFFFFFFFF80
FFFFFFFFFF80
FFFFFFFFFF80
FFFFFFFFFF80
FFFFFFFFFF80
FFFFFFFFFF80
FFFFFFFFFF80
FF0000000000
FF0000000000
FF0000000000
FF0000000000
FF0000000000
FF0000000000
FF0000000000
FF0000000000
FF0000000000
FF0000000000
FF0000000000
FF0000000000
FF0000000000
FF0000000000
FF0000000000
FF0000000000
FF0000000000
FF0000000000
FFFFFFFFFF00
FFFFFFFFFF00
FFFFFFFFFF00
FFFFFFFFFF00
FFFFFFFFFF00
FFFFFFFFFF00
FFFFFFFFFF00
FF0000000000
FF0000000000
FF0000000000
FF0000000000
FF0000000000
FF0000000000
FF0000000000
FF0000000000
FF0000000000
FF0000000000
FF0000000000
FF0000000000
FF0000000000
FF0000000000
FF0000000000
FF0000000000
FF0000000000
FF0000000000
FF0000000000
FF0000000000
FFFFFFFFFFC0
FFFFFFFFFFC0
FFFFFFFFFFC0
FFFFFFFFFFC0
FFFFFFFFFFC0
FFFFFFFFFFC0
FFFFFFFFFFC0
ENDCHAR
STARTCHAR 00CB
ENCODING 203
SWIDTH 670 0
DWIDTH 54 0
BBX 42 74 7 0
BITMAP
003FC1FE0000
003FC1FE0000
003FC1FE0000
003FC1FE0000
003FC1FE0000
003FC1FE0000
003FC1FE0000
003FC1FE0000
000000000000
000000000000
000000000000
000000000000
000000000000
000000000000
000000000000
FFFFFFFFFF80
FFFFFFFFFF80
FFFFFFFFFF80
FFFFFFFFFF80
FFFFFFFFFF80
FFFFFFFFFF80
FFFFFFFFFF80
FF0000000000
FF0000000000
FF0000000000
FF0000000000
FF0000000000
FF0000000000
FF0000000000
FF0000000000
FF0000000000
FF0000000000
FF0000000000
FF0000000000
FF0000000000
FF0000000000
FF0000000000
FF0000000000
FF0000000000
FF0000000000
FFFFFFFFFF00
FFFFFFFFFF00
FFFFFFFFFF00
FFFFFFFFFF00
FFFFFFFFFF00
FFFFFFFFFF00
FFFFFFFFFF00
FF0000000000
FF0000000000
FF0000000000
FF0000000000
FF0000000000
FF0000000000
FF0000000000
FF0000000000
FF0000000000
FF0000000000
FF0000000000
FF0000000000
FF0000000000
FF0000000000
FF0000000000
FF0000000000
FF0000000000
FF0000000000
FF0000000000
FF0000000000
FFFFFFFFFFC0
FFFFFFFFFFC0
FFFFFFFFFFC0
FFFFFFFFFFC0
FFFFFFFFFFC0
FFFFFFFFFFC0
FFFFFFFFFFC0
ENDCHAR
STARTCHAR 00CC
ENCODING 204
SWIDTH 273 0
DWIDTH 22 0
BBX 17 76 0 0
BITMAP
FF8000
7FC000
3FE000
1FE000
0FF000
03F800
01F800
00FC00
007E00
003E00
001F00
000F80
000000
000000
000000
000000
000000
00FF00
00FF00
00FF00
00FF00
00FF00
00FF00
00FF00
00FF00
00FF00
00FF00
00FF00
00FF00
00FF00
00FF00
00FF00
00FF00
00FF00
00FF00
00FF00
00FF00
00FF00
00FF00
00FF00
00FF00
00FF00
00FF00
00FF00
00FF00
00FF00
00FF00
00FF00
00FF00
00FF00
00FF00
00FF00
00FF00
00FF00
00FF00
00FF00
00FF00
00FF00
00FF00
00FF00
00FF00
00FF00
00FF00
00FF00
00FF00
00FF00
00FF00
00FF00
00FF00
00FF00
00FF00
00FF00
00FF00
00FF00
00FF00
00FF00
ENDCHAR
STARTCHAR 00CD
ENCODING 205
SWIDTH 273 0
DWIDTH 22 0
BBX 16 76 6 0
BITMAP
01FF
01FE
03FC
07F8
07F0
0FE0
1FC0
1F80
3F00
7E00
7C00
F800
0000
0000
0000
0000
0000
3FC0
3FC0
3FC0
3FC0
3FC0
3FC0
3FC0
3FC0
3FC0
3FC0
3FC0
3FC0
3FC0
3FC0
3FC0
3FC0
3FC0
3FC0
3FC0
3FC0
3FC0
3FC0
3FC0
3FC0
3FC0
3FC0
3FC0
3FC0
3FC0
3FC0
3FC0
3FC0
3FC0
3FC0
3FC0
3FC0
3FC0
3FC0
3FC0
3FC0
3FC0
3FC0
3FC0
3FC0
3FC0
3FC0
3FC0
3FC0
3FC0
3FC0
3FC0
3FC0
3FC0
3FC0
3FC0
3FC0
3FC0
3FC0
3FC0
ENDCHAR
STARTCHAR 00CE
ENCODING 206
SWIDTH 273 0
DWIDTH 22 0
BBX 23 76 0 0
BITMAP
01FF00
01FF00
03FF80
07FFC0
07EFC0
0FCFE0
1FC7E0
1F83F0
3F01F8
3E00F8
7C007C
FC007E
000000
000000
000000
000000
000000
00FF00
00FF00
00FF00
00FF00
00FF00
00FF00
00FF00
00FF00
00FF00
00FF00
00FF00
00FF00
00FF00
00FF00
00FF00
00FF00
00FF00
00FF00
00FF00
00FF00
00FF00
00FF00
00FF00
00FF00
00FF00
00FF00
00FF00
00FF00
00FF00
00FF00
00FF00
00FF00
00FF00
00FF00
00FF00
00FF00
00FF00
00FF00
00FF00
00FF00
00FF00
00FF00
00FF00
00FF00
00FF00
00FF00
00FF00
00FF00
00FF00
00FF00
00FF00
00FF00
00FF00
00FF00
00FF00
00FF00
00FF00
00FF00
00FF00
ENDCHAR
STARTCHAR 00CF
ENCODING 207
SWIDTH 273 0
DWIDTH 22 0
BBX 21 73 1 0
BITMAP
FF07F8
FF07F8
FF07F8
FF07F8
FF07F8
FF07F8
FF07F8
FF07F8
000000
000000
000000
000000
000000
000000
01FE00
01FE00
01FE00
01FE00
01FE00
01FE00
01FE00
01FE00
01FE00
01FE00
01FE00
01FE00
01FE00
01FE00
01FE00
01FE00
01FE00
01FE00
01FE00
01FE00
01FE00
01FE00
01FE00
01FE00
01FE00
01FE00
01FE00
01FE00
01FE00
01FE00
01FE00
01FE00
01FE00
01FE00
01FE00
01FE00
01FE00
01FE00
01FE00
01FE00
01FE00
01FE00
01FE00
01FE00
01FE00
01FE00
01FE00
01FE00
01FE00
01FE00
01FE00
01FE00
01FE00
01FE00
01FE00
01FE00
01FE00
01FE00
01FE00
ENDCHAR
STARTCHAR 00D0
ENCODING 208
SWIDTH 720 0
DWIDTH 58 0
BBX 52 59 2 0
BITMAP
07FFFFFF800000
07FFFFFFF80000
07FFFFFFFE0000
07FFFFFFFF8000
07FFFFFFFFC000
07FFFFFFFFE000
07FFFFFFFFF000
07F800007FF800
07F800001FFC00
07F8000007FE00
07F8000003FE00
07F8000001FF00
07F8000000FF00
07F80000007F80
07F80000007F80
07F80000003FC0
07F80000003FC0
07F80000001FC0
07F80000001FE0
07F80000001FE0
07F80000001FE0
07F80000000FE0
07F80000000FE0
07F80000000FE0
07F80000000FF0
07F80000000FF0
FFFFFFC0000FF0
FFFFFFC0000FF0
FFFFFFC0000FF0
FFFFFFC0000FF0
FFFFFFC0000FF0
07F80000000FF0
07F80000000FF0
07F80000000FF0
07F80000000FF0
07F80000000FE0
07F80000000FE0
07F80000000FE0
07F80000001FE0
07F80000001FE0
07F80000001FC0
07F80000003FC0
07F80000003FC0
07F80000003FC0
07F80000007F80
07F80000007F80
07F8000000FF00
07F8000001FF00
07F8000003FE00
07F8000007FE00
07F800001FFC00
07F800007FF800
07FFFFFFFFF000
07FFFFFFFFE000
07FFFFFFFFC000
07FFFFFFFF8000
07FFFFFFFE0000
07FFFFFFF80000
07FFFFFF800000
ENDCHAR
STARTCHAR 00D1
ENCODING 209
SWIDTH 720 0
DWIDTH 58 0
BBX 46 74 6 0
BITMAP
0000F801F000
0003FE01F000
0007FFC3F000
0007FFFFE000
000FFFFFE000
000FDFFFC000
001F03FFC000
001F007F0000
000000000000
000000000000
000000000000
000000000000
000000000000
000000000000
000000000000
FF80000001FC
FF80000001FC
FFC0000001FC
FFC0000001FC
FFE0000001FC
FFF0000001FC
FFF0000001FC
FFF8000001FC
FFFC000001FC
FFFC000001FC
FFFE000001FC
FFFF000001FC
FEFF000001FC
FE7F800001FC
FE7F800001FC
FE3FC00001FC
FE1FE00001FC
FE1FE00001FC
FE0FF00001FC
FE0FF80001FC
FE07F80001FC
FE03FC0001FC
FE03FE0001FC
FE01FE0001FC
FE00FF0001FC
FE00FF0001FC
FE007F8001FC
FE003FC001FC
FE003FC001FC
FE001FE001FC
FE001FF001FC
FE000FF001FC
FE0007F801FC
FE0007FC01FC
FE0003FC01FC
FE0001FE01FC
FE0001FE01FC
FE0000FF01FC
FE0000FF81FC
FE00007F81FC
FE00003FC1FC
FE00003FE1FC
FE00001FE1FC
FE00000FF1FC
FE00000FF9FC
FE000007F9FC
FE000003FDFC
FE000003FDFC
FE000001FFFC
FE000001FFFC
FE000000FFFC
FE0000007FFC
FE0000007FFC
FE0000003FFC
FE0000001FFC
FE0000001FFC
FE0000000FFC
FE00000007FC
FE00000007FC
ENDCHAR
STARTCHAR 00D2
ENCODING 210
SWIDTH 782 0
DWIDTH 63 0
BBX 57 78 3 -2
BITMAP
00007FC000000000
00003FE000000000
00001FE000000000
00000FF000000000
000007F800000000
000003F800000000
000001FC00000000
000000FE00000000
0000007E00000000
0000003F00000000
0000001F80000000
0000000F80000000
0000000000000000
0000000000000000
0000000000000000
0000000000000000
000001FFC0000000
00001FFFFC000000
0000FFFFFF800000
0003FFFFFFE00000
0007FFFFFFF00000
001FFFFFFFFC0000
003FFFFFFFFE0000
007FFC001FFF0000
00FFF00007FF8000
01FFC00001FFC000
03FF0000007FE000
03FE0000003FE000
07FC0000001FF000
0FF80000000FF800
0FF00000000FF800
1FF000000007FC00
1FE000000003FC00
3FE000000003FC00
3FC000000001FE00
3FC000000001FE00
7F8000000000FE00
7F8000000000FF00
7F8000000000FF00
7F0000000000FF00
7F00000000007F00
FF00000000007F00
FF00000000007F80
FF00000000007F80
FF00000000007F80
FF00000000007F80
FF00000000007F80
FF00000000007F80
FF00000000007F80
FF00000000007F80
FF00000000007F80
FF00000000007F80
FF00000000007F00
7F00000000007F00
7F00000000007F00
7F8000000000FF00
7F8000000000FF00
7F8000000000FE00
3FC000000001FE00
3FC000000001FE00
3FE000000003FC00
1FE000000003FC00
1FF000000007FC00
0FF000000007F800
0FF80000000FF000
07FC0000001FF000
03FE0000003FE000
03FF0000007FE000
01FFC00001FFC000
00FFF00007FF8000
007FFC001FFF0000
003FFFFFFFFE0000
001FFFFFFFFC0000
0007FFFFFFF00000
0003FFFFFFE00000
0000FFFFFF800000
00001FFFFC000000
000001FFC0000000
ENDCHAR
STARTCHAR 00D3
ENCODING 211
SWIDTH 782 0
DWIDTH 63 0
BBX 57 78 3 -2
BITMAP
00000003FE000000
00000003FC000000
00000007F8000000
00000007F0000000
0000000FE0000000
0000001FC0000000
0000001F80000000
0000003F00000000
0000007E00000000
0000007C00000000
000000F800000000
000001F000000000
0000000000000000
0000000000000000
0000000000000000
0000000000000000
000001FFC0000000
00001FFFFC000000
0000FFFFFF800000
0003FFFFFFE00000
0007FFFFFFF00000
001FFFFFFFFC0000
003FFFFFFFFE0000
007FFC001FFF0000
00FFF00007FF8000
01FFC00001FFC000
03FF0000007FE000
03FE0000003FE000
07FC0000001FF000
0FF80000000FF800
0FF00000000FF800
1FF000000007FC00
1FE000000003FC00
3FE000000003FC00
3FC000000001FE00
3FC000000001FE00
7F8000000000FE00
7F8000000000FF00
7F8000000000FF00
7F0000000000FF00
7F00000000007F00
FF00000000007F00
FF00000000007F80
FF00000000007F80
FF00000000007F80
FF00000000007F80
FF00000000007F80
FF00000000007F80
FF00000000007F80
FF00000000007F80
FF00000000007F80
FF00000000007F80
FF00000000007F00
7F00000000007F00
7F00000000007F00
7F8000000000FF00
7F8000000000FF00
7F8000000000FE00
3FC000000001FE00
3FC000000001FE00
3FE000000003FC00
1FE000000003FC00
1FF000000007FC00
0FF000000007F800
0FF80000000FF000
07FC0000001FF000
03FE0000003FE000
03FF0000007FE000
01FFC00001FFC000
00FFF00007FF8000
007FFC001FFF0000
003FFFFFFFFE0000
001FFFFFFFFC0000
0007FFFFFFF00000
0003FFFFFFE00000
0000FFFFFF800000
00001FFFFC000000
000001FFC0000000
ENDCHAR
STARTCHAR 00D4
ENCODING 212
SWIDTH 782 0
DWIDTH 63 0
BBX 57 78 3 -2
BITMAP
000000FF80000000
000000FF80000000
000001FFC0000000
000003FFE0000000
000003F7E0000000
000007E7F0000000
00000FE3F0000000
00000FC1F8000000
00001F80FC000000
00001F007C000000
00003E003E000000
00007E003F000000
0000000000000000
0000000000000000
0000000000000000
0000000000000000
000001FFC0000000
00001FFFFC000000
0000FFFFFF800000
0003FFFFFFE00000
0007FFFFFFF00000
001FFFFFFFFC0000
003FFFFFFFFE0000
007FFC001FFF0000
00FFF00007FF8000
01FFC00001FFC000
03FF0000007FE000
03FE0000003FE000
07FC0000001FF000
0FF80000000FF800
0FF00000000FF800
1FF000000007FC00
1FE000000003FC00
3FE000000003FC00
3FC000000001FE00
3FC000000001FE00
7F8000000000FE00
7F8000000000FF00
7F8000000000FF00
7F0000000000FF00
7F00000000007F00
FF00000000007F00
FF00000000007F80
FF00000000007F80
FF00000000007F80
FF00000000007F80
FF00000000007F80
FF00000000007F80
FF00000000007F80
FF00000000007F80
FF00000000007F80
FF00000000007F80
FF00000000007F00
7F00000000007F00
7F00000000007F00
7F8000000000FF00
7F8000000000FF00
7F8000000000FE00
3FC000000001FE00
3FC000000001FE00
3FE000000003FC00
1FE000000003FC00
1FF000000007FC00
0FF000000007F800
0FF80000000FF000
07FC0000001FF000
03FE0000003FE000
03FF0000007FE000
01FFC00001FFC000
00FFF00007FF8000
007FFC001FFF0000
003FFFFFFFFE0000
001FFFFFFFFC0000
0007FFFFFFF00000
0003FFFFFFE00000
0000FFFFFF800000
00001FFFFC000000
000001FFC0000000
ENDCHAR
STARTCHAR 00D5
ENCODING 213
SWIDTH 782 0
DWIDTH 63 0
BBX 57 76 3 -2
BITMAP
000007C007800000
00001FF00F800000
00003FFE1F800000
00003FFFFF800000
00007FFFFF000000
00007EFFFF000000
0000F81FFE000000
0000F803FC000000
0000000000000000
0000000000000000
0000000000000000
0000000000000000
0000000000000000
0000000000000000
000001FFC0000000
00001FFFFC000000
0000FFFFFF800000
0003FFFFFFE00000
0007FFFFFFF00000
001FFFFFFFFC0000
003FFFFFFFFE0000
007FFC001FFF0000
00FFF00007FF8000
01FFC00001FFC000
03FF0000007FE000
03FE0000003FE000
07FC0000001FF000
0FF80000000FF800
0FF00000000FF800
1FF000000007FC00
1FE000000003FC00
3FE000000003FC00
3FC000000001FE00
3FC000000001FE00
7F8000000000FE00
7F8000000000FF00
7F8000000000FF00
7F0000000000FF00
7F00000000007F00
FF00000000007F00
FF00000000007F80
FF00000000007F80
FF00000000007F80
FF00000000007F80
FF00000000007F80
FF00000000007F80
FF00000000007F80
FF00000000007F80
FF00000000007F80
FF00000000007F80
FF00000000007F00
7F00000000007F00
7F00000000007F00
7F8000000000FF00
7F8000000000FF00
7F8000000000FE00
3FC000000001FE00
3FC000000001FE00
3FE000000003FC00
1FE000000003FC00
1FF000000007FC00
0FF000000007F800
0FF80000000FF000
07FC0000001FF000
03FE0000003FE000
03FF0000007FE000
01FFC00001FFC000
00FFF00007FF8000
007FFC001FFF0000
003FFFFFFFFE0000
001FFFFFFFFC0000
0007FFFFFFF00000
0003FFFFFFE00000
0000FFFFFF800000
00001FFFFC000000
000001FFC0000000
ENDCHAR
STARTCHAR 00D6
ENCODING 214
SWIDTH 782 0
DWIDTH 63 0
BBX 57 76 3 -2
BITMAP
00003FC1FE000000
00003FC1FE000000
00003FC1FE000000
00003FC1FE000000
00003FC1FE000000
00003FC1FE000000
00003FC1FE000000
00003FC1FE000000
0000000000000000
0000000000000000
0000000000000000
0000000000000000
0000000000000000
0000000000000000
000001FFC0000000
00001FFFFC000000
0000FFFFFF800000
0003FFFFFFE00000
0007FFFFFFF00000
001FFFFFFFFC0000
003FFFFFFFFE0000
007FFC001FFF0000
00FFF00007FF8000
01FFC00001FFC000
03FF0000007FE000
03FE0000003FE000
07FC0000001FF000
0FF80000000FF800
0FF00000000FF800
1FF000000007FC00
1FE000000003FC00
3FE000000003FC00
3FC000000001FE00
3FC000000001FE00
7F8000000000FE00
7F8000000000FF00
7F8000000000FF00
7F0000000000FF00
7F00000000007F00
FF00000000007F00
FF00000000007F80
FF00000000007F80
FF00000000007F80
FF00000000007F80
FF00000000007F80
FF00000000007F80
FF00000000007F80
FF00000000007F80
FF00000000007F80
FF00000000007F80
FF00000000007F00
7F00000000007F00
7F00000000007F00
7F8000000000FF00
7F8000000000FF00
7F8000000000FE00
3FC000000001FE00
3FC000000001FE00
3FE000000003FC00
1FE000000003FC00
1FF000000007FC00
0FF000000007F800
0FF80000000FF000
07FC0000001FF000
03FE0000003FE000
03FF0000007FE000
01FFC00001FFC000
00FFF00007FF8000
007FFC001FFF0000
003FFFFFFFFE0000
001FFFFFFFFC0000
0007FFFFFFF00000
0003FFFFFFE00000
0000FFFFFF800000
00001FFFFC000000
000001FFC0000000
ENDCHAR
STARTCHAR 00D7
ENCODING 215
SWIDTH 583 0
DWIDTH 47 0
BBX 31 31 8 3
BITMAP
18000030
3C000078
7E0000FC
FF0001FE
7F8003FC
3FC007F8
1FE00FF0
0FF01FE0
07F83FC0
03FC7F80
01FEFF00
00FFFE00
007FFC00
003FF800
001FF000
001FF000
003FF800
007FFC00
00FFFE00
01FEFF00
03FC7F80
07F83FC0
0FF01FE0
1FE00FF0
3FC007F8
7F8003FC
FF0001FE
FE0000FE
7C00007C
38000038
10000010
ENDCHAR
STARTCHAR 00D8
ENCODING 216
SWIDTH 782 0
DWIDTH 63 0
BBX 57 63 3 -2
BITMAP
0000000000000400
000001FFC0000F00
00001FFFFC001F80
0000FFFFFF803F00
0003FFFFFFE07E00
000FFFFFFFF07C00
001FFFFFFFFCFC00
003FFFFFFFFFF800
007FFC003FFFF000
00FFE00007FFE000
01FF800001FFC000
03FF000000FFC000
07FE0000003FE000
07FC0000007FF000
0FF8000000FFF000
0FF0000000FFF800
1FE0000001F7F800
1FE0000003F3FC00
3FC0000007E3FC00
3FC000000FC1FE00
3F8000001F81FE00
7F8000003F01FE00
7F8000007E00FE00
7F000000FC00FF00
7F000001F800FF00
FF000003F000FF00
FF000003E0007F00
FF000007C0007F00
FF00000FC0007F00
FE00001F80007F00
FE00003F00007F80
FE00007E00007F80
FE0000FC00007F80
FE0001F800007F80
FE0003F000007F00
FF0007E000007F00
FF000FC000007F00
FF000F8000007F00
FF001F000000FF00
7F003F000000FF00
7F007E000000FF00
7F80FC000000FE00
7F81F8000001FE00
3F83F0000001FE00
3FC7E0000001FE00
3FCFC0000003FC00
1FFF80000003FC00
1FFF00000007F800
0FFE0000000FF800
0FFC0000000FF000
07FC0000001FF000
07FE0000003FE000
03FF000000FFC000
07FFC00001FFC000
0FFFE00007FF8000
1FFFFC001FFF0000
3F3FFFFFFFFE0000
7E1FFFFFFFF80000
FC0FFFFFFFF00000
F803FFFFFFC00000
F000FFFFFF000000
60003FFFFC000000
000003FFC0000000
ENDCHAR
STARTCHAR 00D9
ENCODING 217
SWIDTH 720 0
DWIDTH 58 0
BBX 45 78 7 -2
BITMAP
001FF0000000
000FF8000000
0007F8000000
0003FC000000
0001FE000000
0000FE000000
00007F000000
00003F800000
00001F800000
00000FC00000
000007E00000
000003E00000
000000000000
000000000000
000000000000
000000000000
000000000000
FE00000007F8
FE00000007F8
FE00000007F8
FE00000007F8
FE00000007F8
FE00000007F8
FE00000007F8
FE00000007F8
FE00000007F8
FE00000007F8
FE00000007F8
FE00000007F8
FE00000007F8
FE00000007F8
FE00000007F8
FE00000007F8
FE00000007F8
FE00000007F8
FE00000007F8
FE00000007F8
FE00000007F8
FE00000007F8
FE00000007F8
FE00000007F8
FE00000007F8
FE00000007F8
FE00000007F8
FE00000007F8
FE00000007F8
FE00000007F8
FE00000007F8
FE00000007F8
FE00000007F8
FE00000007F8
FE00000007F8
FE00000007F8
FE00000007F8
FE00000007F8
FE00000007F8
FE00000007F8
FE00000007F8
FE00000007F8
FE00000007F8
FE00000007F8
FF00000007F8
FF00000007F8
FF00000007F0
7F8000000FF0
7F8000000FF0
7FC000001FE0
3FE000003FE0
3FF000007FC0
1FFC0001FFC0
0FFF0007FF80
07FFFFFFFF00
03FFFFFFFE00
01FFFFFFFC00
00FFFFFFF000
003FFFFFC000
0007FFFF0000
00007FF00000
ENDCHAR
STARTCHAR 00DA
ENCODING 218
SWIDTH 720 0
DWIDTH 58 0
BBX 45 78 7 -2
BITMAP
000000FF8000
000001FF0000
000001FE0000
000003FC0000
000007F80000
000007F00000
00000FE00000
00001FC00000
00001F800000
00003F000000
00007E000000
00007C000000
000000000000
000000000000
000000000000
000000000000
000000000000
FE00000007F8
FE00000007F8
FE00000007F8
FE00000007F8
FE00000007F8
FE00000007F8
FE00000007F8
FE00000007F8
FE00000007F8
FE00000007F8
FE00000007F8
FE00000007F8
FE00000007F8
FE00000007F8
FE00000007F8
FE00000007F8
FE00000007F8
FE00000007F8
FE00000007F8
FE00000007F8
FE00000007F8
FE00000007F8
FE00000007F8
FE00000007F8
FE00000007F8
FE00000007F8
FE00000007F8
FE00000007F8
FE00000007F8
FE00000007F8
FE00000007F8
FE00000007F8
FE00000007F8
FE00000007F8
FE00000007F8
FE00000007F8
FE00000007F8
FE00000007F8
FE00000007F8
FE00000007F8
FE00000007F8
FE00000007F8
FE00000007F8
FE00000007F8
FF00000007F8
FF00000007F8
FF00000007F0
7F8000000FF0
7F8000000FF0
7FC000001FE0
3FE000003FE0
3FF000007FC0
1FFC0001FFC0
0FFF0007FF80
07FFFFFFFF00
03FFFFFFFE00
01FFFFFFFC00
00FFFFFFF000
003FFFFFC000
0007FFFF0000
00007FF00000
ENDCHAR
STARTCHAR 00DB
ENCODING 219
SWIDTH 720 0
DWIDTH 58 0
BBX 45 78 7 -2
BITMAP
00003FE00000
00003FE00000
00007FF00000
0000FFF00000
0000FDF80000
0001F9FC0000
0003F8FC0000
0003F07E0000
0007E03F0000
0007C01F0000
000F801F8000
001F800FC000
000000000000
000000000000
000000000000
000000000000
000000000000
FE00000007F8
FE00000007F8
FE00000007F8
FE00000007F8
FE00000007F8
FE00000007F8
FE00000007F8
FE00000007F8
FE00000007F8
FE00000007F8
FE00000007F8
FE00000007F8
FE00000007F8
FE00000007F8
FE00000007F8
FE00000007F8
FE00000007F8
FE00000007F8
FE00000007F8
FE00000007F8
FE00000007F8
FE00000007F8
FE00000007F8
FE00000007F8
FE00000007F8
FE00000007F8
FE00000007F8
FE00000007F8
FE00000007F8
FE00000007F8
FE00000007F8
FE00000007F8
FE00000007F8
FE00000007F8
FE00000007F8
FE00000007F8
FE00000007F8
FE00000007F8
FE00000007F8
FE00000007F8
FE00000007F8
FE00000007F8
FE00000007F8
FE00000007F8
FF00000007F8
FF00000007F8
FF00000007F0
7F8000000FF0
7F8000000FF0
7FC000001FE0
3FE000003FE0
3FF000007FC0
1FFC0001FFC0
0FFF0007FF80
07FFFFFFFF00
03FFFFFFFE00
01FFFFFFFC00
00FFFFFFF000
003FFFFFC000
0007FFFF0000
00007FF00000
ENDCHAR
STARTCHAR 00DC
ENCODING 220
SWIDTH 720 0
DWIDTH 58 0
BBX 45 76 7 -2
BITMAP
000FF07F8000
000FF07F8000
000FF07F8000
000FF07F8000
000FF07F8000
000FF07F8000
000FF07F8000
000FF07F8000
000000000000
000000000000
000000000000
000000000000
000000000000
000000000000
000000000000
FE00000007F8
FE00000007F8
FE00000007F8
FE00000007F8
FE00000007F8
FE00000007F8
FE00000007F8
FE00000007F8
FE00000007F8
FE00000007F8
FE00000007F8
FE00000007F8
FE00000007F8
FE00000007F8
FE00000007F8
FE00000007F8
FE00000007F8
FE00000007F8
FE00000007F8
FE00000007F8
FE00000007F8
FE00000007F8
FE00000007F8
FE00000007F8
FE00000007F8
FE00000007F8
FE00000007F8
FE00000007F8
FE00000007F8
FE00000007F8
FE00000007F8
FE00000007F8
FE00000007F8
FE00000007F8
FE00000007F8
FE00000007F8
FE00000007F8
FE00000007F8
FE00000007F8
FE00000007F8
FE00000007F8
FE00000007F8
FE00000007F8
FE00000007F8
FF00000007F8
FF00000007F8
FF00000007F0
7F8000000FF0
7F8000000FF0
7FC000001FE0
3FE000003FE0
3FF000007FC0
1FFC0001FFC0
0FFF0007FF80
07FFFFFFFF00
03FFFFFFFE00
01FFFFFFFC00
00FFFFFFF000
003FFFFFC000
0007FFFF0000
00007FF00000
ENDCHAR
STARTCHAR 00DD
ENCODING 221
SWIDTH 670 0
DWIDTH 54 0
BBX 52 76 1 0
BITMAP
0000000FF80000
0000001FF00000
0000001FE00000
0000003FC00000
0000003F800000
0000007F000000
000000FE000000
000000FC000000
000001F8000000
000003F0000000
000003E0000000
000007C0000000
00000000000000
00000000000000
00000000000000
00000000000000
00000000000000
FFC00000001FF0
7FC00000003FE0
3FE00000003FE0
3FE00000007FC0
1FF00000007F80
1FF8000000FF80
0FF8000001FF00
07FC000001FF00
07FC000003FE00
03FE000003FC00
01FF000007FC00
01FF000007F800
00FF80000FF000
007F80001FF000
007FC0001FE000
003FE0003FE000
003FE0003FC000
001FF0007F8000
000FF000FF8000
000FF800FF0000
0007FC01FF0000
0003FC01FE0000
0003FE03FC0000
0001FE03FC0000
0001FF07F80000
0000FF8FF00000
00007F8FF00000
00007FDFE00000
00003FDFE00000
00001FFFC00000
00001FFF800000
00000FFF800000
00000FFF000000
000007FF000000
000003FE000000
000003FC000000
000001FC000000
000001FC000000
000001FC000000
000001FC000000
000001FC000000
000001FC000000
000001FC000000
000001FC000000
000001FC000000
000001FC000000
000001FC000000
000001FC000000
000001FC000000
000001FC000000
000001FC000000
000001FC000000
000001FC000000
000001FC000000
000001FC000000
000001FC000000
000001FC000000
000001FC000000
000001FC000000
ENDCHAR
STARTCHAR 00DE
ENCODING 222
SWIDTH 670 0
DWIDTH 54 0
BBX 43 59 7 0
BITMAP
FF0000000000
FF0000000000
FF0000000000
FF0000000000
FF0000000000
FF0000000000
FF0000000000
FF0000000000
FF0000000000
FF0000000000
FFFFFFFC0000
FFFFFFFF8000
FFFFFFFFE000
FFFFFFFFF800
FFFFFFFFFC00
FFFFFFFFFE00
FFFFFFFFFF00
FF000007FF00
FF000001FF80
FF000000FF80
FF0000007FC0
FF0000007FC0
FF0000003FC0
FF0000003FC0
FF0000003FE0
FF0000001FE0
FF0000001FE0
FF0000001FE0
FF0000003FE0
FF0000003FC0
FF0000003FC0
FF0000003FC0
FF0000007FC0
FF000000FF80
FF000001FF80
FF000003FF80
FF00000FFF00
FFFFFFFFFE00
FFFFFFFFFC00
FFFFFFFFF800
FFFFFFFFF000
FFFFFFFFE000
FFFFFFFF0000
FFFFFFE00000
FF0000000000
FF0000000000
FF0000000000
FF0000000000
FF0000000000
FF0000000000
FF0000000000
FF0000000000
FF0000000000
FF0000000000
FF0000000000
FF0000000000
FF0000000000
FF0000000000
FF0000000000
ENDCHAR
STARTCHAR 00DF
ENCODING 223
SWIDTH 608 0
DWIDTH 49 0
BBX 39 61 6 -2
BITMAP
0007FE0000
003FFFE000
01FFFFF800
03FFFFFC00
0FFFFFFF00
1FFFFFFF80
3FFE0FFF80
3FF000FFC0
7FC0007FE0
7F80001FE0
FF00001FE0
FE00000FF0
FE00000FF0
FE000007F0
FC000007F0
FC000007F0
FC000007F0
FC000007F0
FC00000FE0
FC00000FE0
FC00001FE0
FC00003FC0
FC0000FF80
FC0007FF00
FC00FFFE00
FC00FFF800
FC00FFC000
FC00FFF000
FC00FFFE00
FC00FFFF00
FC00FFFFC0
FC0000FFE0
FC00003FF0
FC00000FF8
FC000007F8
FC000003FC
FC000003FC
FC000001FC
FC000001FC
FC000001FE
FC000000FE
FC000000FE
FC000000FE
FC000000FE
FC000000FE
FC000001FC
FC000001FC
FC000001FC
FC000003FC
FC000007F8
FC00000FF8
FC00001FF8
FC00003FF0
FC0000FFE0
FC01FFFFE0
FC01FFFFC0
FC01FFFF80
FC01FFFE00
FC01FFFC00
0001FFE000
0001FF0000
ENDCHAR
STARTCHAR 00E0
ENCODING 224
SWIDTH 558 0
DWIDTH 45 0
BBX 40 62 3 -2
BITMAP
007F800000
007FC00000
003FE00000
001FE00000
000FF00000
0007F80000
0003F80000
0001FC0000
0000FC0000
00007E0000
00003F0000
00001F0000
00000F8000
0000000000
0000000000
0000000000
0000000000
0003FF8000
003FFFF000
00FFFFFC00
01FFFFFF00
03FFFFFF80
07FFFFFF80
0FFF03FFC0
1FF8007FC0
1FE0001FE0
1FC0000FE0
1FC0000FE0
3F80000FE0
3F80000FE0
3F80000FE0
0000000FE0
0000000FE0
0000000FE0
0000001FE0
000001FFE0
0000FFFFE0
001FFFFFE0
00FFFFFFE0
03FFFFFFE0
0FFFFF8FE0
1FFFE00FE0
3FFC000FE0
3FE0000FE0
7FC0000FE0
7F80000FE0
7F00000FE0
7F00000FE0
FE00000FE0
FE00000FE0
FF00001FE0
7F00001FE0
7F00003FE0
7F8000FFE0
7FC001FFE0
3FF00FFFF0
3FFFFFF7FF
1FFFFFE7FF
0FFFFF87FF
07FFFF03FF
01FFFC01FF
003FE000FE
ENDCHAR
STARTCHAR 00E1
ENCODING 225
SWIDTH 558 0
DWIDTH 45 0
BBX 40 62 3 -2
BITMAP
000007FC00
000007F800
00000FF000
00001FE000
00001FC000
00003F8000
00007F0000
00007E0000
0000FC0000
0000F80000
0001F00000
0003E00000
0003E00000
0000000000
0000000000
0000000000
0000000000
0003FF8000
003FFFF000
00FFFFFC00
01FFFFFF00
03FFFFFF80
07FFFFFF80
0FFF03FFC0
1FF8007FC0
1FE0001FE0
1FC0000FE0
1FC0000FE0
3F80000FE0
3F80000FE0
3F80000FE0
0000000FE0
0000000FE0
0000000FE0
0000001FE0
000001FFE0
0000FFFFE0
001FFFFFE0
00FFFFFFE0
03FFFFFFE0
0FFFFF8FE0
1FFFE00FE0
3FFC000FE0
3FE0000FE0
7FC0000FE0
7F80000FE0
7F00000FE0
7F00000FE0
FE00000FE0
FE00000FE0
FF00001FE0
7F00001FE0
7F00003FE0
7F8000FFE0
7FC001FFE0
3FF00FFFF0
3FFFFFF7FF
1FFFFFE7FF
0FFFFF87FF
07FFFF03FF
01FFFC01FF
003FE000FE
ENDCHAR
STARTCHAR 00E2
ENCODING 226
SWIDTH 558 0
DWIDTH 45 0
BBX 40 62 3 -2
BITMAP
0001FE0000
0003FF0000
0003FF8000
0007FF8000
0007FFC000
000FCFC000
001FC7E000
001F83F000
003F03F000
003E01F800
007C00F800
00FC007C00
00F8007E00
0000000000
0000000000
0000000000
0000000000
0003FF8000
003FFFF000
00FFFFFC00
01FFFFFF00
03FFFFFF80
07FFFFFF80
0FFF03FFC0
1FF8007FC0
1FE0001FE0
1FC0000FE0
1FC0000FE0
3F80000FE0
3F80000FE0
3F80000FE0
0000000FE0
0000000FE0
0000000FE0
0000001FE0
000001FFE0
0000FFFFE0
001FFFFFE0
00FFFFFFE0
03FFFFFFE0
0FFFFF8FE0
1FFFE00FE0
3FFC000FE0
3FE0000FE0
7FC0000FE0
7F80000FE0
7F00000FE0
7F00000FE0
FE00000FE0
FE00000FE0
FF00001FE0
7F00001FE0
7F00003FE0
7F8000FFE0
7FC001FFE0
3FF00FFFF0
3FFFFFF7FF
1FFFFFE7FF
0FFFFF87FF
07FFFF03FF
01FFFC01FF
003FE000FE
ENDCHAR
STARTCHAR 00E3
ENCODING 227
SWIDTH 558 0
DWIDTH 45 0
BBX 40 60 3 -2
BITMAP
001F001F00
003FE01F00
007FFC3E00
00FFFFFE00
00FFFFFE00
01FBFFFC00
01F03FF800
01E00FF000
0000000000
0000000000
0000000000
0000000000
0000000000
0000000000
0000000000
0003FF8000
003FFFF000
00FFFFFC00
01FFFFFF00
03FFFFFF80
07FFFFFF80
0FFF03FFC0
1FF8007FC0
1FE0001FE0
1FC0000FE0
1FC0000FE0
3F80000FE0
3F80000FE0
3F80000FE0
0000000FE0
0000000FE0
0000000FE0
0000001FE0
000001FFE0
0000FFFFE0
001FFFFFE0
00FFFFFFE0
03FFFFFFE0
0FFFFF8FE0
1FFFE00FE0
3FFC000FE0
3FE0000FE0
7FC0000FE0
7F80000FE0
7F00000FE0
7F00000FE0
FE00000FE0
FE00000FE0
FF00001FE0
7F00001FE0
7F00003FE0
7F8000FFE0
7FC001FFE0
3FF00FFFF0
3FFFFFF7FF
1FFFFFE7FF
0FFFFF87FF
07FFFF03FF
01FFFC01FF
003FE000FE
ENDCHAR
STARTCHAR 00E4
ENCODING 228
SWIDTH 558 0
DWIDTH 45 0
BBX 40 60 3 -2
BITMAP
00FF87FC00
00FF87FC00
00FF87FC00
00FF87FC00
00FF87FC00
00FF87FC00
00FF87FC00
00FF87FC00
0000000000
0000000000
0000000000
0000000000
0000000000
0000000000
0000000000
0003FF8000
003FFFF000
00FFFFFC00
01FFFFFF00
03FFFFFF80
07FFFFFF80
0FFF03FFC0
1FF8007FC0
1FE0001FE0
1FC0000FE0
1FC0000FE0
3F80000FE0
3F80000FE0
3F80000FE0
0000000FE0
0000000FE0
0000000FE0
0000001FE0
000001FFE0
0000FFFFE0
001FFFFFE0
00FFFFFFE0
03FFFFFFE0
0FFFFF8FE0
1FFFE00FE0
3FFC000FE0
3FE0000FE0
7FC0000FE0
7F80000FE0
7F00000FE0
7F00000FE0
FE00000FE0
FE00000FE0
FF00001FE0
7F00001FE0
7F00003FE0
7F8000FFE0
7FC001FFE0
3FF00FFFF0
3FFFFFF7FF
1FFFFFE7FF
0FFFFF87FF
07FFFF03FF
01FFFC01FF
003FE000FE
ENDCHAR
STARTCHAR 00E5
ENCODING 229
SWIDTH 558 0
DWIDTH 45 0
BBX 40 63 3 -2
BITMAP
0000100000
0000FE0000
0003FF0000
0007FF8000
000787C000
000F03C000
000F03C000
000F01C000
000F01C000
000F03C000
000783C000
0007FF8000
0003FF8000
0001FE0000
00007C0000
0000000000
0000000000
0000000000
0003FF8000
003FFFF000
00FFFFFC00
01FFFFFF00
03FFFFFF80
07FFFFFF80
0FFF03FFC0
1FF8007FC0
1FE0001FE0
1FC0000FE0
1FC0000FE0
3F80000FE0
3F80000FE0
3F80000FE0
0000000FE0
0000000FE0
0000000FE0
0000001FE0
000001FFE0
0000FFFFE0
001FFFFFE0
00FFFFFFE0
03FFFFFFE0
0FFFFF8FE0
1FFFE00FE0
3FFC000FE0
3FE0000FE0
7FC0000FE0
7F80000FE0
7F00000FE0
7F00000FE0
FE00000FE0
FE00000FE0
FF00001FE0
7F00001FE0
7F00003FE0
7F8000FFE0
7FC001FFE0
3FF00FFFF0
3FFFFFF7FF
1FFFFFE7FF
0FFFFF87FF
07FFFF03FF
01FFFC01FF
003FE000FE
ENDCHAR
STARTCHAR 00E6
ENCODING 230
SWIDTH 893 0
DWIDTH 72 0
BBX 65 45 3 -2
BITMAP
0007FF00003FE00000
003FFFE001FFFC0000
00FFFFF807FFFF0000
03FFFFFC0FFFFFC000
07FFFFFE3FFFFFE000
0FFFFFFF7FFFFFF000
1FFF07FF7FF07FF800
1FF0007FFF800FFC00
3FE0003FFE0007FC00
3FC0001FFC0003FE00
3F80001FF80001FE00
3F80000FF00000FF00
3F80000FF00000FF00
3F00000FE000007F00
0000000FE000007F00
0000000FE000007F80
0000001FE000003F80
0000003FC000003F80
000000FFC000003F80
0001FFFFFFFFFFFF80
003FFFFFFFFFFFFF80
01FFFFFFFFFFFFFF80
07FFFFFFFFFFFFFF80
0FFFFF8FFFFFFFFF80
1FFFE00FC000000000
3FFC000FC000000000
7FE0000FC000000000
7F80000FC000000000
FF00000FC000000000
FE00000FE000000000
FE00000FE000007F00
FE00000FE000007F00
FE00001FF000007F00
FE00003FF00000FE00
FE00003FF80001FE00
FF00007FFC0001FE00
FF0001FDFE0003FC00
7F8003F9FF800FF800
7FE01FF0FFF07FF800
3FFFFFE07FFFFFF000
3FFFFFC03FFFFFE000
1FFFFF001FFFFFC000
0FFFFE000FFFFF0000
03FFF80003FFFC0000
007FC000003FE00000
ENDCHAR
STARTCHAR 00E7
ENCODING 231
SWIDTH 496 0
DWIDTH 40 0
BBX 35 60 3 -17
BITMAP
0003FE0000
001FFFC000
007FFFF000
01FFFFF800
03FFFFFE00
07FFFFFF00
0FFF07FF00
0FF801FF80
1FF0007F80
3FE0003FC0
3FC0001FC0
3F80001FC0
7F80001FE0
7F00000FE0
7F00000FE0
FE00000000
FE00000000
FE00000000
FE00000000
FE00000000
FE00000000
FE00000000
FE00000000
FE00000000
FE00000000
FE00000000
FE00000000
FE00000000
FE00000000
FE000007E0
FF00000FE0
7F00000FE0
7F00000FE0
7F80001FE0
3FC0001FC0
3FC0003FC0
1FE0007F80
1FF800FF80
0FFE03FF00
07FFFFFE00
03FFFFFE00
01FFFFF800
00FFFFF000
003FFFC000
0007FE0000
0001C00000
0003C00000
0003800000
0003FE0000
0007FF8000
0007FF8000
00001FC000
00000FC000
00000FC000
00000FC000
01C01F8000
03F03F8000
03FFFF0000
00FFFE0000
001FF80000
ENDCHAR
STARTCHAR 00E8
ENCODING 232
SWIDTH 558 0
DWIDTH 45 0
BBX 38 62 3 -2
BITMAP
007FC00000
003FC00000
001FE00000
000FE00000
0007F00000
0007F80000
0003F80000
0001FC0000
0000FE0000
00007E0000
00003F0000
00001F0000
00000F8000
0000000000
0000000000
0000000000
0000000000
0001FF0000
000FFFE000
003FFFF800
00FFFFFE00
01FFFFFF00
03FFFFFF80
07FF83FFC0
07FC007FE0
0FF0003FE0
1FE0000FF0
1FC0000FF0
3FC00007F8
3F800003F8
3F800003F8
7F000003FC
7F000001FC
7F000001FC
7F000001FC
7E000001FC
FFFFFFFFFC
FFFFFFFFFC
FFFFFFFFFC
FFFFFFFFFC
FFFFFFFFFC
FE00000000
FE00000000
FE00000000
7E00000000
7F00000000
7F00000000
7F000001F8
7F000003F8
3F800003F8
3FC00007F8
3FC00007F0
1FE0000FF0
1FF0001FE0
0FFC007FE0
07FF83FFC0
03FFFFFF80
01FFFFFF00
00FFFFFE00
007FFFF800
001FFFE000
0001FF0000
ENDCHAR
STARTCHAR 00E9
ENCODING 233
SWIDTH 558 0
DWIDTH 45 0
BBX 38 62 3 -2
BITMAP
000007FC00
000007F800
00000FF800
00000FF000
00001FE000
00003FC000
00003F8000
00007F0000
00007E0000
0000FC0000
0001F80000
0001F00000
0003E00000
0000000000
0000000000
0000000000
0000000000
0001FF0000
000FFFE000
003FFFF800
00FFFFFE00
01FFFFFF00
03FFFFFF80
07FF83FFC0
07FC007FE0
0FF0003FE0
1FE0000FF0
1FC0000FF0
3FC00007F8
3F800003F8
3F800003F8
7F000003FC
7F000001FC
7F000001FC
7F000001FC
7E000001FC
FFFFFFFFFC
FFFFFFFFFC
FFFFFFFFFC
FFFFFFFFFC
FFFFFFFFFC
FE00000000
FE00000000
FE00000000
7E00000000
7F00000000
7F00000000
7F000001F8
7F000003F8
3F800003F8
3FC00007F8
3FC00007F0
1FE0000FF0
1FF0001FE0
0FFC007FE0
07FF83FFC0
03FFFFFF80
01FFFFFF00
00FFFFFE00
007FFFF800
001FFFE000
0001FF0000
ENDCHAR
STARTCHAR 00EA
ENCODING 234
SWIDTH 558 0
DWIDTH 45 0
BBX 38 62 3 -2
BITMAP
0000FF0000
0001FF8000
0001FF8000
0003FFC000
0007FFE000
0007E7E000
000FC3F000
000FC3F800
001F81F800
003F00FC00
003E007C00
007E003E00
007C003F00
0000000000
0000000000
0000000000
0000000000
0001FF0000
000FFFE000
003FFFF800
00FFFFFE00
01FFFFFF00
03FFFFFF80
07FF83FFC0
07FC007FE0
0FF0003FE0
1FE0000FF0
1FC0000FF0
3FC00007F8
3F800003F8
3F800003F8
7F000003FC
7F000001FC
7F000001FC
7F000001FC
7E000001FC
FFFFFFFFFC
FFFFFFFFFC
FFFFFFFFFC
FFFFFFFFFC
FFFFFFFFFC
FE00000000
FE00000000
FE00000000
7E00000000
7F00000000
7F00000000
7F000001F8
7F000003F8
3F800003F8
3FC00007F8
3FC00007F0
1FE0000FF0
1FF0001FE0
0FFC007FE0
07FF83FFC0
03FFFFFF80
01FFFFFF00
00FFFFFE00
007FFFF800
001FFFE000
0001FF0000
ENDCHAR
STARTCHAR 00EB
ENCODING 235
SWIDTH 558 0
DWIDTH 45 0
BBX 38 60 3 -2
BITMAP
007FC3FE00
007FC3FE00
007FC3FE00
007FC3FE00
007FC3FE00
007FC3FE00
007FC3FE00
007FC3FE00
0000000000
0000000000
0000000000
0000000000
0000000000
0000000000
0000000000
0001FF0000
000FFFE000
003FFFF800
00FFFFFE00
01FFFFFF00
03FFFFFF80
07FF83FFC0
07FC007FE0
0FF0003FE0
1FE0000FF0
1FC0000FF0
3FC00007F8
3F800003F8
3F800003F8
7F000003FC
7F000001FC
7F000001FC
7F000001FC
7E000001FC
FFFFFFFFFC
FFFFFFFFFC
FFFFFFFFFC
FFFFFFFFFC
FFFFFFFFFC
FE00000000
FE00000000
FE00000000
7E00000000
7F00000000
7F00000000
7F000001F8
7F000003F8
3F800003F8
3FC00007F8
3FC00007F0
1FE0000FF0
1FF0001FE0
0FFC007FE0
07FF83FFC0
03FFFFFF80
01FFFFFF00
00FFFFFE00
007FFFF800
001FFFE000
0001FF0000
ENDCHAR
STARTCHAR 00EC
ENCODING 236
SWIDTH 273 0
DWIDTH 22 0
BBX 16 60 0 0
BITMAP
FF80
7FC0
3FC0
1FE0
0FF0
07F0
03F8
01F8
00FC
007E
003E
001F
0000
0000
0000
0000
0000
0000
00FC
00FC
00FC
00FC
00FC
00FC
00FC
00FC
00FC
00FC
00FC
00FC
00FC
00FC
00FC
00FC
00FC
00FC
00FC
00FC
00FC
00FC
00FC
00FC
00FC
00FC
00FC
00FC
00FC
00FC
00FC
00FC
00FC
00FC
00FC
00FC
00FC
00FC
00FC
00FC
00FC
00FC
ENDCHAR
STARTCHAR 00ED
ENCODING 237
SWIDTH 273 0
DWIDTH 22 0
BBX 16 60 6 0
BITMAP
01FF
03FE
07FC
07F8
0FF0
0FE0
1FC0
3F80
3F00
7E00
FC00
F800
0000
0000
0000
0000
0000
0000
3F00
3F00
3F00
3F00
3F00
3F00
3F00
3F00
3F00
3F00
3F00
3F00
3F00
3F00
3F00
3F00
3F00
3F00
3F00
3F00
3F00
3F00
3F00
3F00
3F00
3F00
3F00
3F00
3F00
3F00
3F00
3F00
3F00
3F00
3F00
3F00
3F00
3F00
3F00
3F00
3F00
3F00
ENDCHAR
STARTCHAR 00EE
ENCODING 238
SWIDTH 273 0
DWIDTH 22 0
BBX 22 60 0 0
BITMAP
01FE00
03FF00
03FF00
07FF80
0FFFC0
0FCFC0
1F87E0
3F87E0
3F03F0
7E01F8
7C00F8
F8007C
000000
000000
000000
000000
000000
000000
00FC00
00FC00
00FC00
00FC00
00FC00
00FC00
00FC00
00FC00
00FC00
00FC00
00FC00
00FC00
00FC00
00FC00
00FC00
00FC00
00FC00
00FC00
00FC00
00FC00
00FC00
00FC00
00FC00
00FC00
00FC00
00FC00
00FC00
00FC00
00FC00
00FC00
00FC00
00FC00
00FC00
00FC00
00FC00
00FC00
00FC00
00FC00
00FC00
00FC00
00FC00
00FC00
ENDCHAR
STARTCHAR 00EF
ENCODING 239
SWIDTH 273 0
DWIDTH 22 0
BBX 22 57 0 0
BITMAP
FF87FC
FF87FC
FF87FC
FF87FC
FF87FC
FF87FC
FF87FC
FF87FC
000000
000000
000000
000000
000000
000000
000000
00FC00
00FC00
00FC00
00FC00
00FC00
00FC00
00FC00
00FC00
00FC00
00FC00
00FC00
00FC00
00FC00
00FC00
00FC00
00FC00
00FC00
00FC00
00FC00
00FC00
00FC00
00FC00
00FC00
00FC00
00FC00
00FC00
00FC00
00FC00
00FC00
00FC00
00FC00
00FC00
00FC00
00FC00
00FC00
00FC00
00FC00
00FC00
00FC00
00FC00
00FC00
00FC00
ENDCHAR
STARTCHAR 00F0
ENCODING 240
SWIDTH 558 0
DWIDTH 45 0
BBX 38 61 3 -1
BITMAP
01C0000000
03F0018000
07FC07C000
07FE1FE000
01FFFFC000
00FFFF0000
003FFC0000
003FF80000
00FFFC0000
03FFFE0000
0FF9FF8000
07E07FC000
03803FE000
00001FF000
00000FF800
000007FC00
0003FBFC00
001FFFFE00
007FFFFF00
01FFFFFF00
03FFFFFF80
07FFFFFFC0
0FFF03FFC0
0FF8007FE0
1FF0003FE0
3FE0001FF0
3FC0000FF0
3F800007F0
7F800007F8
7F000003F8
7F000003F8
7F000003FC
FF000003FC
FE000001FC
FE000001FC
FE000001FC
FE000001FC
FE000001FC
FE000001FC
FE000001FC
FE000001FC
FE000001FC
FE000001FC
FE000001FC
FF000003FC
7F000003F8
7F000003F8
7F800003F8
7F800007F8
3FC00007F0
3FC0000FF0
1FE0001FE0
1FF0003FE0
0FFC00FFC0
0FFF03FFC0
07FFFFFF80
03FFFFFF00
01FFFFFE00
007FFFF800
001FFFE000
0003FF0000
ENDCHAR
STARTCHAR 00F1
ENCODING 241
SWIDTH 558 0
DWIDTH 45 0
BBX 33 58 6 0
BITMAP
00FC00F800
01FF00F800
03FFE1F800
07FFFFF000
07FFFFF000
07EFFFE000
0F81FFE000
0F803F8000
0000000000
0000000000
0000000000
0000000000
0000000000
0000000000
0000000000
0001FF0000
FC0FFFE000
FC1FFFF800
FC3FFFFC00
FC7FFFFE00
FCFFFFFF00
FDFC07FF00
FFF001FF80
FFE0007F80
FFC0007F80
FF80003F80
FF00003F80
FF00003F80
FE00001F80
FE00001F80
FE00001F80
FE00001F80
FE00001F80
FC00001F80
FC00001F80
FC00001F80
FC00001F80
FC00001F80
FC00001F80
FC00001F80
FC00001F80
FC00001F80
FC00001F80
FC00001F80
FC00001F80
FC00001F80
FC00001F80
FC00001F80
FC00001F80
FC00001F80
FC00001F80
FC00001F80
FC00001F80
FC00001F80
FC00001F80
FC00001F80
FC00001F80
FC00001F80
ENDCHAR
STARTCHAR 00F2
ENCODING 242
SWIDTH 558 0
DWIDTH 45 0
BBX 38 62 3 -2
BITMAP
00FF800000
007FC00000
003FC00000
001FE00000
000FF00000
0007F00000
0003F80000
0001F80000
0000FC0000
00007E0000
00003E0000
00001F0000
00000F0000
0000000000
0000000000
0000000000
0000000000
0003FF0000
001FFFE000
007FFFF800
00FFFFFE00
03FFFFFF00
07FFFFFF80
07FF03FFC0
0FFC00FFC0
1FF0003FE0
1FE0001FE0
3FC0000FF0
3FC0000FF0
7F800007F8
7F800007F8
7F000003F8
7F000003F8
FF000003FC
FE000001FC
FE000001FC
FE000001FC
FE000001FC
FE000001FC
FE000001FC
FE000001FC
FE000001FC
FE000001FC
FE000001FC
FE000001FC
FF000001FC
7F000003F8
7F000003F8
7F800003F8
7F800007F8
3FC00007F0
3FC0000FF0
1FE0001FE0
1FF0003FE0
0FFC00FFC0
0FFF03FF80
07FFFFFF80
03FFFFFF00
00FFFFFC00
007FFFF800
001FFFE000
0003FF0000
ENDCHAR
STARTCHAR 00F3
ENCODING 243
SWIDTH 558 0
DWIDTH 45 0
BBX 38 62 3 -2
BITMAP
000007FC00
00000FF800
00001FF000
00001FE000
00003FC000
00003F8000
00007F0000
0000FE0000
0000FC0000
0001F80000
0003F00000
0003E00000
0007C00000
0000000000
0000000000
0000000000
0000000000
0003FF0000
001FFFE000
007FFFF800
00FFFFFE00
03FFFFFF00
07FFFFFF80
07FF03FFC0
0FFC00FFC0
1FF0003FE0
1FE0001FE0
3FC0000FF0
3FC0000FF0
7F800007F8
7F800007F8
7F000003F8
7F000003F8
FF000003FC
FE000001FC
FE000001FC
FE000001FC
FE000001FC
FE000001FC
FE000001FC
FE000001FC
FE000001FC
FE000001FC
FE000001FC
FE000001FC
FF000001FC
7F000003F8
7F000003F8
7F800003F8
7F800007F8
3FC00007F0
3FC0000FF0
1FE0001FE0
1FF0003FE0
0FFC00FFC0
0FFF03FF80
07FFFFFF80
03FFFFFF00
00FFFFFC00
007FFFF800
001FFFE000
0003FF0000
ENDCHAR
STARTCHAR 00F4
ENCODING 244
SWIDTH 558 0
DWIDTH 45 0
BBX 38 62 3 -2
BITMAP
0001FE0000
0003FF0000
0003FF0000
0007FF8000
000FFFC000
000FCFC000
001F87E000
001F87E000
003F03F000
007E01F800
007C00F800
00F8007C00
00F8007E00
0000000000
0000000000
0000000000
0000000000
0003FF0000
001FFFE000
007FFFF800
00FFFFFE00
03FFFFFF00
07FFFFFF80
07FF03FFC0
0FFC00FFC0
1FF0003FE0
1FE0001FE0
3FC0000FF0
3FC0000FF0
7F800007F8
7F800007F8
7F000003F8
7F000003F8
FF000003FC
FE000001FC
FE000001FC
FE000001FC
FE000001FC
FE000001FC
FE000001FC
FE000001FC
FE000001FC
FE000001FC
FE000001FC
FE000001FC
FF000001FC
7F000003F8
7F000003F8
7F800003F8
7F800007F8
3FC00007F0
3FC0000FF0
1FE0001FE0
1FF0003FE0
0FFC00FFC0
0FFF03FF80
07FFFFFF80
03FFFFFF00
00FFFFFC00
007FFFF800
001FFFE000
0003FF0000
ENDCHAR
STARTCHAR 00F5
ENCODING 245
SWIDTH 558 0
DWIDTH 45 0
BBX 38 60 3 -2
BITMAP
001F001F00
003FE01F00
007FFC3E00
00FFFFFE00
00FFFFFE00
01F9FFFC00
01F03FF800
01F007F000
0000000000
0000000000
0000000000
0000000000
0000000000
0000000000
0000000000
0003FF0000
001FFFE000
007FFFF800
00FFFFFE00
03FFFFFF00
07FFFFFF80
07FF03FFC0
0FFC00FFC0
1FF0003FE0
1FE0001FE0
3FC0000FF0
3FC0000FF0
7F800007F8
7F800007F8
7F000003F8
7F000003F8
FF000003FC
FE000001FC
FE000001FC
FE000001FC
FE000001FC
FE000001FC
FE000001FC
FE000001FC
FE000001FC
FE000001FC
FE000001FC
FE000001FC
FF000001FC
7F000003F8
7F000003F8
7F800003F8
7F800007F8
3FC00007F0
3FC0000FF0
1FE0001FE0
1FF0003FE0
0FFC00FFC0
0FFF03FF80
07FFFFFF80
03FFFFFF00
00FFFFFC00
007FFFF800
001FFFE000
0003FF0000
ENDCHAR
STARTCHAR 00F6
ENCODING 246
SWIDTH 558 0
DWIDTH 45 0
BBX 38 60 3 -2
BITMAP
00FF87FC00
00FF87FC00
00FF87FC00
00FF87FC00
00FF87FC00
00FF87FC00
00FF87FC00
00FF87FC00
0000000000
0000000000
0000000000
0000000000
0000000000
0000000000
0000000000
0003FF0000
001FFFE000
007FFFF800
00FFFFFE00
03FFFFFF00
07FFFFFF80
07FF03FFC0
0FFC00FFC0
1FF0003FE0
1FE0001FE0
3FC0000FF0
3FC0000FF0
7F800007F8
7F800007F8
7F000003F8
7F000003F8
FF000003FC
FE000001FC
FE000001FC
FE000001FC
FE000001FC
FE000001FC
FE000001FC
FE000001FC
FE000001FC
FE000001FC
FE000001FC
FE000001FC
FF000001FC
7F000003F8
7F000003F8
7F800003F8
7F800007F8
3FC00007F0
3FC0000FF0
1FE0001FE0
1FF0003FE0
0FFC00FFC0
0FFF03FF80
07FFFFFF80
03FFFFFF00
00FFFFFC00
007FFFF800
001FFFE000
0003FF0000
ENDCHAR
STARTCHAR 00F7
ENCODING 247
SWIDTH 583 0
DWIDTH 47 0
BBX 39 38 4 0
BITMAP
0001FF0000
0001FF0000
0001FF0000
0001FF0000
0001FF0000
0001FF0000
0001FF0000
0001FF0000
0000000000
0000000000
0000000000
0000000000
0000000000
0000000000
0000000000
0000000000
FFFFFFFFFE
FFFFFFFFFE
FFFFFFFFFE
FFFFFFFFFE
FFFFFFFFFE
FFFFFFFFFE
0000000000
0000000000
0000000000
0000000000
0000000000
0000000000
0000000000
0000000000
0001FF0000
0001FF0000
0001FF0000
0001FF0000
0001FF0000
0001FF0000
0001FF0000
0001FF0000
ENDCHAR
STARTCHAR 00F8
ENCODING 248
SWIDTH 608 0
DWIDTH 49 0
BBX 40 45 2 -3
BITMAP
0001FF8002
000FFFF007
003FFFFC0F
007FFFFE1F
01FFFFFFBE
03FFFFFFFC
03FF83FFF8
07FE007FF0
0FF8001FF0
0FF0000FF0
1FE00007F8
1FE0000FF8
3FC0001FFC
3FC0003FFC
3F80007DFC
3F8000F9FC
7F8001F0FE
7F0003E0FE
7F0003C0FE
7F000780FE
7F000F00FE
7F001E00FE
7F003E00FE
7F007C00FE
7F00F800FE
7F01F000FE
7F03E000FE
7F07C000FE
7F878001FE
3F8F0001FC
3F9E0001FC
3FBE0001FC
3FFC0003FC
1FF80003F8
1FF00007F8
0FF0000FF0
0FF8001FF0
07FE007FE0
0FFF81FFC0
1FFFFFFFC0
3FFFFFFF80
7C7FFFFE00
F83FFFFC00
F00FFFF000
6001FF8000
ENDCHAR
STARTCHAR 00F9
ENCODING 249
SWIDTH 558 0
DWIDTH 45 0
BBX 34 62 5 -2
BITMAP
03FE000000
01FF000000
00FF000000
007F800000
003F800000
001FC00000
000FE00000
0007E00000
0003F00000
0001F80000
0000F80000
00007C0000
0000000000
0000000000
0000000000
0000000000
0000000000
0000000000
FE00001FC0
FE00001FC0
FE00001FC0
FE00001FC0
FE00001FC0
FE00001FC0
FE00001FC0
FE00001FC0
FE00001FC0
FE00001FC0
FE00001FC0
FE00001FC0
FE00001FC0
FE00001FC0
FE00001FC0
FE00001FC0
FE00001FC0
FE00001FC0
FE00001FC0
FE00001FC0
FE00001FC0
FE00001FC0
FE00001FC0
FE00001FC0
FE00001FC0
FE00001FC0
FE00001FC0
FE00001FC0
FE00001FC0
FE00003FC0
FE00003FC0
FE00003FC0
FE00007FC0
FF00007FC0
FF0000FFC0
7F8001FFC0
7FC003EFC0
7FF01FEFC0
3FFFFFCFC0
1FFFFF8FC0
1FFFFF0FC0
07FFFE0FC0
03FFF80000
007FC00000
ENDCHAR
STARTCHAR 00FA
ENCODING 250
SWIDTH 558 0
DWIDTH 45 0
BBX 34 62 5 -2
BITMAP
00001FE000
00003FC000
00007F8000
00007F0000
0000FE0000
0001FC0000
0001F80000
0003F00000
0007E00000
0007C00000
000F800000
001F000000
0000000000
0000000000
0000000000
0000000000
0000000000
0000000000
FE00001FC0
FE00001FC0
FE00001FC0
FE00001FC0
FE00001FC0
FE00001FC0
FE00001FC0
FE00001FC0
FE00001FC0
FE00001FC0
FE00001FC0
FE00001FC0
FE00001FC0
FE00001FC0
FE00001FC0
FE00001FC0
FE00001FC0
FE00001FC0
FE00001FC0
FE00001FC0
FE00001FC0
FE00001FC0
FE00001FC0
FE00001FC0
FE00001FC0
FE00001FC0
FE00001FC0
FE00001FC0
FE00001FC0
FE00003FC0
FE00003FC0
FE00003FC0
FE00007FC0
FF00007FC0
FF0000FFC0
7F8001FFC0
7FC003EFC0
7FF01FEFC0
3FFFFFCFC0
1FFFFF8FC0
1FFFFF0FC0
07FFFE0FC0
03FFF80000
007FC00000
ENDCHAR
STARTCHAR 00FB
ENCODING 251
SWIDTH 558 0
DWIDTH 45 0
BBX 34 62 5 -2
BITMAP
0007F80000
000FFC0000
000FFE0000
001FFE0000
003FFF0000
003F3F0000
007E1F8000
007E0FC000
00FC07C000
01F807E000
01F003F000
03E001F000
0000000000
0000000000
0000000000
0000000000
0000000000
0000000000
FE00001FC0
FE00001FC0
FE00001FC0
FE00001FC0
FE00001FC0
FE00001FC0
FE00001FC0
FE00001FC0
FE00001FC0
FE00001FC0
FE00001FC0
FE00001FC0
FE00001FC0
FE00001FC0
FE00001FC0
FE00001FC0
FE00001FC0
FE00001FC0
FE00001FC0
FE00001FC0
FE00001FC0
FE00001FC0
FE00001FC0
FE00001FC0
FE00001FC0
FE00001FC0
FE00001FC0
FE00001FC0
FE00001FC0
FE00003FC0
FE00003FC0
FE00003FC0
FE00007FC0
FF00007FC0
FF0000FFC0
7F8001FFC0
7FC003FFC0
7FF01FEFC0
3FFFFFCFC0
1FFFFF8FC0
1FFFFF0FC0
07FFFE0FC0
03FFF80000
007FC00000
ENDCHAR
STARTCHAR 00FC
ENCODING 252
SWIDTH 558 0
DWIDTH 45 0
BBX 34 60 5 -2
BITMAP
03FE1FF000
03FE1FF000
03FE1FF000
03FE1FF000
03FE1FF000
03FE1FF000
03FE1FF000
03FE1FF000
0000000000
0000000000
0000000000
0000000000
0000000000
0000000000
0000000000
0000000000
FE00001FC0
FE00001FC0
FE00001FC0
FE00001FC0
FE00001FC0
FE00001FC0
FE00001FC0
FE00001FC0
FE00001FC0
FE00001FC0
FE00001FC0
FE00001FC0
FE00001FC0
FE00001FC0
FE00001FC0
FE00001FC0
FE00001FC0
FE00001FC0
FE00001FC0
FE00001FC0
FE00001FC0
FE00001FC0
FE00001FC0
FE00001FC0
FE00001FC0
FE00001FC0
FE00001FC0
FE00001FC0
FE00001FC0
FE00003FC0
FE00003FC0
FE00003FC0
FE00007FC0
FF00007FC0
FF0000FFC0
7F8001FFC0
7FC003EFC0
7FF01FEFC0
3FFFFFCFC0
1FFFFF8FC0
1FFFFF0FC0
07FFFE0FC0
03FFF80000
007FC00000
ENDCHAR
STARTCHAR 00FD
ENCODING 253
SWIDTH 496 0
DWIDTH 40 0
BBX 36 78 2 -18
BITMAP
00000FF000
00001FE000
00003FE000
00003FC000
00007F8000
0000FF0000
0000FE0000
0001FC0000
0003F80000
0003F00000
0007E00000
0007C00000
0000000000
0000000000
0000000000
0000000000
0000000000
0000000000
FE000007F0
FE000007F0
FF00000FF0
7F00000FE0
7F00000FE0
7F80001FC0
3F80001FC0
3F80001FC0
3FC0003F80
1FC0003F80
1FC0003F80
1FE0007F00
0FE0007F00
0FE000FF00
0FF000FE00
07F000FE00
07F001FC00
07F801FC00
03F801FC00
03F803F800
01FC03F800
01FC03F800
01FC07F000
00FE07F000
00FE07E000
00FE0FE000
007F0FE000
007F1FC000
007F1FC000
003F1FC000
003FBF8000
003FBF8000
001FBF8000
001FFF0000
001FFF0000
000FFE0000
000FFE0000
000FFE0000
0007FC0000
0007FC0000
0007FC0000
0003F80000
0003F80000
0007F00000
0007F00000
0007F00000
000FE00000
000FE00000
001FE00000
001FC00000
001FC00000
003FC00000
007F800000
3FFF800000
3FFF000000
3FFE000000
3FFC000000
3FF8000000
3FF0000000
0300000000
ENDCHAR
STARTCHAR 00FE
ENCODING 254
SWIDTH 558 0
DWIDTH 45 0
BBX 38 75 4 -18
BITMAP
FE00000000
FE00000000
FE00000000
FE00000000
FE00000000
FE00000000
FE00000000
FE00000000
FE00000000
FE00000000
FE00000000
FE00000000
FE00000000
FE00000000
FE00FF0000
FE07FFE000
FE1FFFF800
FE3FFFFE00
FE7FFFFF00
FEFFFFFF80
FFFF87FF80
FFFC00FFC0
FFF0007FE0
FFE0001FE0
FFC0001FF0
FFC0000FF0
FF800007F8
FF800007F8
FF000003F8
FF000003F8
FF000003FC
FF000001FC
FE000001FC
FE000001FC
FE000001FC
FE000001FC
FE000001FC
FE000001FC
FE000001FC
FE000001FC
FE000001FC
FF000001FC
FF000003FC
FF000003F8
FF000003F8
FF800007F8
FF800007F8
FFC0000FF0
FFC0000FF0
FFE0001FE0
FFF0003FE0
FFFC00FFC0
FFFF87FFC0
FEFFFFFF80
FE7FFFFF00
FE3FFFFE00
FE1FFFF800
FE07FFE000
FE00FF0000
FE00000000
FE00000000
FE00000000
FE00000000
FE00000000
FE00000000
FE00000000
FE00000000
FE00000000
FE00000000
FE00000000
FE00000000
FE00000000
FE00000000
FE00000000
FE00000000
ENDCHAR
STARTCHAR 00FF
ENCODING 255
SWIDTH 496 0
DWIDTH 40 0
BBX 36 76 2 -18
BITMAP
01FE0FF800
01FE0FF800
01FE0FF800
01FE0FF800
01FE0FF800
01FE0FF800
01FE0FF800
01FE0FF800
0000000000
0000000000
0000000000
0000000000
0000000000
0000000000
0000000000
0000000000
FE000007F0
FE000007F0
FF00000FF0
7F00000FE0
7F00000FE0
7F80001FC0
3F80001FC0
3F80001FC0
3FC0003F80
1FC0003F80
1FC0003F80
1FE0007F00
0FE0007F00
0FE000FF00
0FF000FE00
07F000FE00
07F001FC00
07F801FC00
03F801FC00
03F803F800
01FC03F800
01FC03F800
01FC07F000
00FE07F000
00FE07E000
00FE0FE000
007F0FE000
007F1FC000
007F1FC000
003F1FC000
003FBF8000
003FBF8000
001FBF8000
001FFF0000
001FFF0000
000FFE0000
000FFE0000
000FFE0000
0007FC0000
0007FC0000
0007FC0000
0003F80000
0003F80000
0007F00000
0007F00000
0007F00000
000FE00000
000FE00000
001FE00000
001FC00000
001FC00000
003FC00000
007F800000
3FFF800000
3FFF000000
3FFE000000
3FFC000000
3FF8000000
3FF0000000
0300000000
ENDCHAR
STARTCHAR 0100
ENCODING 256
SWIDTH 670 0
DWIDTH 54 0
BBX 50 73 2 0
BITMAP
0003FFFFF00000
0003FFFFF00000
0003FFFFF00000
0003FFFFF00000
0003FFFFF00000
0003FFFFF00000
00000000000000
00000000000000
00000000000000
00000000000000
00000000000000
00000000000000
00000000000000
00000000000000
00000FFC000000
00000FFE000000
00001FFE000000
00001FFE000000
00001FFF000000
00003FFF000000
00003FFF000000
00003FFF800000
00007FFF800000
00007FBF800000
00007F3FC00000
0000FF3FC00000
0000FE1FC00000
0000FE1FE00000
0001FE1FE00000
0001FC0FE00000
0003FC0FF00000
0003FC0FF00000
0003F807F00000
0007F807F80000
0007F807F80000
0007F003FC0000
000FF003FC0000
000FF003FC0000
000FE001FE0000
001FE001FE0000
001FC001FE0000
001FC000FF0000
003FC000FF0000
003F8000FF0000
007F80007F8000
007F80007F8000
007F00007F8000
00FF00003FC000
00FF00003FC000
00FFFFFFFFC000
01FFFFFFFFE000
01FFFFFFFFE000
01FFFFFFFFE000
03FFFFFFFFF000
03FFFFFFFFF000
03F800000FF800
07F8000007F800
07F8000007F800
07F0000007FC00
0FF0000003FC00
0FF0000003FC00
1FE0000003FE00
1FE0000001FE00
1FE0000001FE00
3FC0000001FF00
3FC0000000FF00
3FC0000000FF00
7F80000000FF80
7F800000007F80
7F800000007F80
FF000000007FC0
FF000000003FC0
FF000000003FC0
ENDCHAR
STARTCHAR 0101
ENCODING 257
SWIDTH 558 0
DWIDTH 45 0
BBX 40 58 3 -2
BITMAP
00FFFFFC00
00FFFFFC00
00FFFFFC00
00FFFFFC00
00FFFFFC00
00FFFFFC00
0000000000
0000000000
0000000000
0000000000
0000000000
0000000000
0000000000
0003FF8000
003FFFF000
00FFFFFC00
01FFFFFF00
03FFFFFF80
07FFFFFF80
0FFF03FFC0
1FF8007FC0
1FE0001FE0
1FC0000FE0
1FC0000FE0
3F80000FE0
3F80000FE0
3F80000FE0
0000000FE0
0000000FE0
0000000FE0
0000001FE0
000001FFE0
0000FFFFE0
001FFFFFE0
00FFFFFFE0
03FFFFFFE0
0FFFFF8FE0
1FFFE00FE0
3FFC000FE0
3FE0000FE0
7FC0000FE0
7F80000FE0
7F00000FE0
7F00000FE0
FE00000FE0
FE00000FE0
FF00001FE0
7F00001FE0
7F00003FE0
7F8000FFE0
7FC001FFE0
3FF00FFFF0
3FFFFFF7FF
1FFFFFE7FF
0FFFFF87FF
07FFFF03FF
01FFFC01FF
003FE000FE
ENDCHAR
STARTCHAR 0102
ENCODING 258
SWIDTH 670 0
DWIDTH 54 0
BBX 50 75 2 0
BITMAP
0007C000F80000
0007C000F80000
0007E001F80000
0007F003F00000
0003FC0FF00000
0003FFFFF00000
0001FFFFE00000
0000FFFFC00000
00007FFF800000
00001FFE000000
000000C0000000
00000000000000
00000000000000
00000000000000
00000000000000
00000000000000
00000FFC000000
00000FFE000000
00001FFE000000
00001FFE000000
00001FFF000000
00003FFF000000
00003FFF000000
00003FFF800000
00007FFF800000
00007FBF800000
00007F3FC00000
0000FF3FC00000
0000FE1FC00000
0000FE1FE00000
0001FE1FE00000
0001FC0FE00000
0003FC0FF00000
0003FC0FF00000
0003F807F00000
0007F807F80000
0007F807F80000
0007F003FC0000
000FF003FC0000
000FF003FC0000
000FE001FE0000
001FE001FE0000
001FC001FE0000
001FC000FF0000
003FC000FF0000
003F8000FF0000
007F80007F8000
007F80007F8000
007F00007F8000
00FF00003FC000
00FF00003FC000
00FFFFFFFFC000
01FFFFFFFFE000
01FFFFFFFFE000
01FFFFFFFFE000
03FFFFFFFFF000
03FFFFFFFFF000
03F800000FF800
07F8000007F800
07F8000007F800
07F0000007FC00
0FF0000003FC00
0FF0000003FC00
1FE0000003FE00
1FE0000001FE00
1FE0000001FE00
3FC0000001FF00
3FC0000000FF00
3FC0000000FF00
7F80000000FF80
7F800000007F80
7F800000007F80
FF000000007FC0
FF000000003FC0
FF000000003FC0
ENDCHAR
STARTCHAR 0103
ENCODING 259
SWIDTH 558 0
DWIDTH 45 0
BBX 40 61 3 -2
BITMAP
01F0001E00
01F0003E00
01F8003E00
01F8007E00
00FE00FC00
00FFFFFC00
007FFFF800
003FFFF800
001FFFE000
000FFFC000
0001FE0000
0000000000
0000000000
0000000000
0000000000
0000000000
0003FF8000
003FFFF000
00FFFFFC00
01FFFFFF00
03FFFFFF80
07FFFFFF80
0FFF03FFC0
1FF8007FC0
1FE0001FE0
1FC0000FE0
1FC0000FE0
3F80000FE0
3F80000FE0
3F80000FE0
0000000FE0
0000000FE0
0000000FE0
0000001FE0
000001FFE0
0000FFFFE0
001FFFFFE0
00FFFFFFE0
03FFFFFFE0
0FFFFF8FE0
1FFFE00FE0
3FFC000FE0
3FE0000FE0
7FC0000FE0
7F80000FE0
7F00000FE0
7F00000FE0
FE00000FE0
FE00000FE0
FF00001FE0
7F00001FE0
7F00003FE0
7F8000FFE0
7FC001FFE0
3FF00FFFF0
3FFFFFF7FF
1FFFFFE7FF
0FFFFF87FF
07FFFF03FF
01FFFC01FF
003FE000FE
ENDCHAR
STARTCHAR 0104
ENCODING 260
SWIDTH 670 0
DWIDTH 54 0
BBX 54 76 2 -17
BITMAP
00000FFC000000
00000FFE000000
00001FFE000000
00001FFE000000
00001FFF000000
00003FFF000000
00003FFF000000
00003FFF800000
00007FFF800000
00007FBF800000
00007F3FC00000
0000FF3FC00000
0000FE1FC00000
0000FE1FE00000
0001FE1FE00000
0001FC0FE00000
0003FC0FF00000
0003FC0FF00000
0003F807F00000
0007F807F80000
0007F807F80000
0007F003FC0000
000FF003FC0000
000FF003FC0000
000FE001FE0000
001FE001FE0000
001FC001FE0000
001FC000FF0000
003FC000FF0000
003F8000FF0000
007F80007F8000
007F80007F8000
007F00007F8000
00FF00003FC000
00FF00003FC000
00FFFFFFFFC000
01FFFFFFFFE000
01FFFFFFFFE000
01FFFFFFFFE000
03FFFFFFFFF000
03FFFFFFFFF000
03F800000FF800
07F8000007F800
07F8000007F800
07F0000007FC00
0FF0000003FC00
0FF0000003FC00
1FE0000003FE00
1FE0000001FE00
1FE0000001FE00
3FC0000001FF00
3FC0000000FF00
3FC0000000FF00
7F80000000FF80
7F800000007F80
7F800000007F80
FF000000007FC0
FF000000003FC0
FF000000003FC0
00000000000FC0
00000000003F00
00000000007C00
0000000001F800
0000000001F000
0000000003F000
0000000007E000
0000000007E000
0000000007E000
0000000007E000
0000000007E000
0000000007F000
0000000003FC04
0000000001FFFC
0000000000FFFC
00000000003FFC
00000000000380
ENDCHAR
STARTCHAR 0105
ENCODING 261
SWIDTH 558 0
DWIDTH 45 0
BBX 45 60 3 -17
BITMAP
0003FF800000
001FFFF80000
00FFFFFE0000
01FFFFFF0000
03FFFFFF8000
07FFFFFFC000
0FFF03FFC000
0FF8007FE000
1FE0001FE000
1FE0000FE000
1FC0000FE000
1FC0000FE000
3F80000FE000
3F80000FE000
0000000FE000
0000000FE000
0000000FE000
0000001FE000
000000FFE000
00007FFFE000
001FFFFFE000
00FFFFFFE000
03FFFFFFE000
0FFFFF8FE000
1FFFE00FE000
1FFC000FE000
3FE0000FE000
7FC0000FE000
7F80000FE000
7F00000FE000
7F00000FE000
7E00000FE000
FE00000FE000
FF00001FE000
7F00001FE000
7F00003FE000
7F8000FFE000
7FC001FFE000
3FF00FFFF000
3FFFFFF7FF00
1FFFFFE7FF00
0FFFFF87FF00
07FFFF03FF00
01FFFC01FF00
003FE000FF00
000000007C00
00000001F000
00000003F000
00000007E000
00000007C000
0000000FC000
0000000FC000
0000000FC000
0000000FC000
00000007E000
00000007F808
00000003FFF8
00000001FFF8
000000007FF8
000000000380
ENDCHAR
STARTCHAR 0106
ENCODING 262
SWIDTH 720 0
DWIDTH 58 0
BBX 50 78 4 -2
BITMAP
0000000FF80000
0000000FF00000
0000001FE00000
0000003FC00000
0000003F800000
0000007F000000
0000007E000000
000000FC000000
000001F8000000
000001F0000000
000003E0000000
000007C0000000
00000000000000
00000000000000
00000000000000
00000000000000
000007FF800000
00007FFFF00000
0001FFFFFE0000
0007FFFFFF0000
001FFFFFFFC000
003FFFFFFFE000
007FFFFFFFF000
00FFF000FFF800
01FFC0001FF800
03FF00000FFC00
03FE000003FE00
07FC000003FE00
0FF8000001FE00
0FF0000000FF00
1FE0000000FF00
1FE00000007F80
1FC00000007F80
3FC00000007F80
3F800000003F80
3F800000000000
7F800000000000
7F000000000000
7F000000000000
7F000000000000
FF000000000000
FF000000000000
FF000000000000
FF000000000000
FE000000000000
FE000000000000
FE000000000000
FE000000000000
FE000000000000
FE000000000000
FF000000000000
FF000000000000
FF000000000000
FF000000000000
FF000000000000
7F000000001FC0
7F800000003FC0
7F800000003FC0
7F800000003FC0
3FC00000003FC0
3FC00000003F80
3FC00000007F80
1FE00000007F80
1FF0000000FF80
0FF0000000FF00
0FF8000001FF00
07FC000003FE00
07FE000007FE00
03FF80000FFC00
01FFC0001FF800
00FFF800FFF800
007FFFFFFFF000
003FFFFFFFE000
001FFFFFFFC000
000FFFFFFF0000
0003FFFFFC0000
00007FFFF00000
00000FFF000000
ENDCHAR
STARTCHAR 0107
ENCODING 263
SWIDTH 496 0
DWIDTH 40 0
BBX 35 62 3 -2
BITMAP
000007FC00
00000FF800
00000FF000
00001FE000
00003FC000
00003F8000
00007F0000
0000FE0000
0000FC0000
0001F80000
0001F00000
0003E00000
0007C00000
0000000000
0000000000
0000000000
0000000000
0003FE0000
001FFFC000
007FFFF000
01FFFFF800
03FFFFFE00
07FFFFFF00
0FFF07FF00
0FF801FF80
1FF0007F80
3FC0003FC0
3FC0001FC0
3F80001FC0
7F80000FE0
7F00000FE0
7F00000FE0
FE00000000
FE00000000
FE00000000
FE00000000
FE00000000
FE00000000
FE00000000
FE00000000
FE00000000
FE00000000
FE00000000
FE00000000
FE00000000
FE00000000
FE000007E0
FF00000FE0
7F00000FE0
7F00000FE0
7F80001FE0
3FC0001FC0
3FC0003FC0
1FF0007F80
1FF800FF80
0FFF07FF00
07FFFFFE00
03FFFFFC00
01FFFFF800
007FFFF000
001FFFC000
0003FE0000
ENDCHAR
STARTCHAR 0108
ENCODING 264
SWIDTH 720 0
DWIDTH 58 0
BBX 50 78 4 -2
BITMAP
000003FC000000
000007FE000000
000007FF000000
00000FFF000000
00001FFF800000
00001F9F800000
00003F0FC00000
00007E07E00000
00007E03E00000
0000FC03F00000
0000F801F80000
0001F000F80000
00000000000000
00000000000000
00000000000000
00000000000000
000007FF800000
00007FFFF00000
0001FFFFFE0000
0007FFFFFF0000
001FFFFFFFC000
003FFFFFFFE000
007FFFFFFFF000
00FFF000FFF800
01FFC0001FF800
03FF00000FFC00
03FE000003FE00
07FC000003FE00
0FF8000001FE00
0FF0000000FF00
1FE0000000FF00
1FE00000007F80
1FC00000007F80
3FC00000007F80
3F800000003F80
3F800000000000
7F800000000000
7F000000000000
7F000000000000
7F000000000000
FF000000000000
FF000000000000
FF000000000000
FF000000000000
FE000000000000
FE000000000000
FE000000000000
FE000000000000
FE000000000000
FE000000000000
FF000000000000
FF000000000000
FF000000000000
FF000000000000
FF000000000000
7F000000001FC0
7F800000003FC0
7F800000003FC0
7F800000003FC0
3FC00000003FC0
3FC00000003F80
3FC00000007F80
1FE00000007F80
1FF0000000FF80
0FF0000000FF00
0FF8000001FF00
07FC000003FE00
07FE000007FE00
03FF80000FFC00
01FFC0001FF800
00FFF800FFF800
007FFFFFFFF000
003FFFFFFFE000
001FFFFFFFC000
000FFFFFFF0000
0003FFFFFC0000
00007FFFF00000
00000FFF000000
ENDCHAR
STARTCHAR 0109
ENCODING 265
SWIDTH 496 0
DWIDTH 40 0
BBX 35 62 3 -2
BITMAP
0003FE0000
0003FE0000
0007FF0000
0007FF0000
000FFF8000
001FDFC000
001F8FC000
003F07E000
007E03F000
007E03F000
00FC01F800
00F800F800
01F0007C00
0000000000
0000000000
0000000000
0000000000
0003FE0000
001FFFC000
007FFFF000
01FFFFF800
03FFFFFE00
07FFFFFF00
0FFF07FF00
0FF801FF80
1FF0007F80
3FC0003FC0
3FC0001FC0
3F80001FC0
7F80000FE0
7F00000FE0
7F00000FE0
FE00000000
FE00000000
FE00000000
FE00000000
FE00000000
FE00000000
FE00000000
FE00000000
FE00000000
FE00000000
FE00000000
FE00000000
FE00000000
FE00000000
FE000007E0
FF00000FE0
7F00000FE0
7F00000FE0
7F80001FE0
3FC0001FC0
3FC0003FC0
1FF0007F80
1FF800FF80
0FFF07FF00
07FFFFFE00
03FFFFFC00
01FFFFF800
007FFFF000
001FFFC000
0003FE0000
ENDCHAR
STARTCHAR 010A
ENCODING 266
SWIDTH 720 0
DWIDTH 58 0
BBX 50 76 4 -2
BITMAP
000001FE000000
000001FE000000
000001FE000000
000001FE000000
000001FE000000
000001FE000000
000001FE000000
000001FE000000
00000000000000
00000000000000
00000000000000
00000000000000
00000000000000
00000000000000
000007FF800000
00007FFFF00000
0001FFFFFE0000
0007FFFFFF0000
001FFFFFFFC000
003FFFFFFFE000
007FFFFFFFF000
00FFF000FFF800
01FFC0001FF800
03FF00000FFC00
03FE000003FE00
07FC000003FE00
0FF8000001FE00
0FF0000000FF00
1FE0000000FF00
1FE00000007F80
1FC00000007F80
3FC00000007F80
3F800000003F80
3F800000000000
7F800000000000
7F000000000000
7F000000000000
7F000000000000
FF000000000000
FF000000000000
FF000000000000
FF000000000000
FE000000000000
FE000000000000
FE000000000000
FE000000000000
FE000000000000
FE000000000000
FF000000000000
FF000000000000
FF000000000000
FF000000000000
FF000000000000
7F000000001FC0
7F800000003FC0
7F800000003FC0
7F800000003FC0
3FC00000003FC0
3FC00000003F80
3FC00000007F80
1FE00000007F80
1FF0000000FF80
0FF0000000FF00
0FF8000001FF00
07FC000003FE00
07FE000007FE00
03FF80000FFC00
01FFC0001FF800
00FFF800FFF800
007FFFFFFFF000
003FFFFFFFE000
001FFFFFFFC000
000FFFFFFF0000
0003FFFFFC0000
00007FFFF00000
00000FFF000000
ENDCHAR
STARTCHAR 010B
ENCODING 267
SWIDTH 496 0
DWIDTH 40 0
BBX 35 60 3 -2
BITMAP
0003FE0000
0003FE0000
0003FE0000
0003FE0000
0003FE0000
0003FE0000
0003FE0000
0003FE0000
0000000000
0000000000
0000000000
0000000000
0000000000
0000000000
0000000000
0003FE0000
001FFFC000
007FFFF000
01FFFFF800
03FFFFFE00
07FFFFFF00
0FFF07FF00
0FF801FF80
1FF0007F80
3FC0003FC0
3FC0001FC0
3F80001FC0
7F80000FE0
7F00000FE0
7F00000FE0
FE00000000
FE00000000
FE00000000
FE00000000
FE00000000
FE00000000
FE00000000
FE00000000
FE00000000
FE00000000
FE00000000
FE00000000
FE00000000
FE00000000
FE000007E0
FF00000FE0
7F00000FE0
7F00000FE0
7F80001FE0
3FC0001FC0
3FC0003FC0
1FF0007F80
1FF800FF80
0FFF07FF00
07FFFFFE00
03FFFFFC00
01FFFFF800
007FFFF000
001FFFC000
0003FE0000
ENDCHAR
STARTCHAR 010C
ENCODING 268
SWIDTH 720 0
DWIDTH 58 0
BBX 50 78 4 -2
BITMAP
0001F8007C0000
0000FC00F80000
00007C01F80000
00007E03F00000
00003F07E00000
00001F8FE00000
00001FCFC00000
00000FFF800000
000007FF800000
000007FF000000
000003FE000000
000001FE000000
00000000000000
00000000000000
00000000000000
00000000000000
000007FF800000
00007FFFF00000
0001FFFFFE0000
0007FFFFFF0000
001FFFFFFFC000
003FFFFFFFE000
007FFFFFFFF000
00FFF000FFF800
01FFC0001FF800
03FF00000FFC00
03FE000003FE00
07FC000003FE00
0FF8000001FE00
0FF0000000FF00
1FE0000000FF00
1FE00000007F80
1FC00000007F80
3FC00000007F80
3F800000003F80
3F800000000000
7F800000000000
7F000000000000
7F000000000000
7F000000000000
FF000000000000
FF000000000000
FF000000000000
FF000000000000
FE000000000000
FE000000000000
FE000000000000
FE000000000000
FE000000000000
FE000000000000
FF000000000000
FF000000000000
FF000000000000
FF000000000000
FF000000000000
7F000000001FC0
7F800000003FC0
7F800000003FC0
7F800000003FC0
3FC00000003FC0
3FC00000003F80
3FC00000007F80
1FE00000007F80
1FF0000000FF80
0FF0000000FF00
0FF8000001FF00
07FC000003FE00
07FE000007FE00
03FF80000FFC00
01FFC0001FF800
00FFF800FFF800
007FFFFFFFF000
003FFFFFFFE000
001FFFFFFFC000
000FFFFFFF0000
0003FFFFFC0000
00007FFFF00000
00000FFF000000
ENDCHAR
STARTCHAR 010D
ENCODING 269
SWIDTH 496 0
DWIDTH 40 0
BBX 35 62 3 -2
BITMAP
01F000FC00
00F800F800
00FC01F000
007E03F000
003F07E000
003F0FE000
001F8FC000
001FDF8000
000FFF8000
0007FF0000
0007FE0000
0003FE0000
0001FC0000
0000000000
0000000000
0000000000
0000000000
0003FE0000
001FFFC000
007FFFF000
01FFFFF800
03FFFFFE00
07FFFFFF00
0FFF07FF00
0FF801FF80
1FF0007F80
3FC0003FC0
3FC0001FC0
3F80001FC0
7F80000FE0
7F00000FE0
7F00000FE0
FE00000000
FE00000000
FE00000000
FE00000000
FE00000000
FE00000000
FE00000000
FE00000000
FE00000000
FE00000000
FE00000000
FE00000000
FE00000000
FE00000000
FE000007E0
FF00000FE0
7F00000FE0
7F00000FE0
7F80001FE0
3FC0001FC0
3FC0003FC0
1FF0007F80
1FF800FF80
0FFF07FF00
07FFFFFE00
03FFFFFC00
01FFFFF800
007FFFF000
001FFFC000
0003FE0000
ENDCHAR
STARTCHAR 010E
ENCODING 270
SWIDTH 720 0
DWIDTH 58 0
BBX 47 76 7 0
BITMAP
007C003F0000
003E007E0000
003F007C0000
001F80FC0000
000FC1F80000
000FC3F00000
0007E7F00000
0007FFE00000
0003FFC00000
0001FFC00000
0001FF800000
0000FF000000
000000000000
000000000000
000000000000
000000000000
000000000000
FFFFFFF00000
FFFFFFFF0000
FFFFFFFFC000
FFFFFFFFF000
FFFFFFFFF800
FFFFFFFFFC00
FFFFFFFFFE00
FF00000FFF00
FF000003FF80
FF000000FFC0
FF0000007FC0
FF0000003FE0
FF0000001FE0
FF0000001FF0
FF0000000FF0
FF00000007F8
FF00000007F8
FF00000007F8
FF00000003FC
FF00000003FC
FF00000003FC
FF00000001FC
FF00000001FC
FF00000001FC
FF00000001FE
FF00000001FE
FF00000001FE
FF00000001FE
FF00000001FE
FF00000001FE
FF00000001FE
FF00000001FE
FF00000001FE
FF00000001FE
FF00000001FE
FF00000001FC
FF00000001FC
FF00000001FC
FF00000003FC
FF00000003FC
FF00000003F8
FF00000007F8
FF00000007F8
FF00000007F8
FF0000000FF0
FF0000000FF0
FF0000001FE0
FF0000003FE0
FF0000007FC0
FF000000FFC0
FF000003FF80
FF00000FFF00
FFFFFFFFFE00
FFFFFFFFFC00
FFFFFFFFF800
FFFFFFFFE000
FFFFFFFFC000
FFFFFFFE0000
FFFFFFF00000
ENDCHAR
STARTCHAR 010F
ENCODING 271
SWIDTH 645 0
DWIDTH 52 0
BBX 50 61 2 -2
BITMAP
00000001FC3FC0
00000001FC3FC0
00000001FC3FC0
00000001FC3FC0
00000001FC3FC0
00000001FC3FC0
00000001FC3FC0
00000001FC3FC0
00000001FC01C0
00000001FC01C0
00000001FC01C0
00000001FC03C0
00000001FC03C0
00000001FC0380
00000001FC0780
00000001FC1F00
0003FE01FC3F00
001FFF81FC3E00
007FFFE1FC3800
00FFFFF9FC0000
01FFFFFDFC0000
03FFFFFFFC0000
07FF87FFFC0000
0FFC00FFFC0000
1FF8003FFC0000
1FF0001FFC0000
3FE0000FFC0000
3FC00007FC0000
3F800007FC0000
7F800003FC0000
7F000003FC0000
7F000003FC0000
7F000001FC0000
FF000001FC0000
FE000001FC0000
FE000001FC0000
FE000001FC0000
FE000001FC0000
FE000001FC0000
FE000001FC0000
FE000001FC0000
FE000001FC0000
FE000001FC0000
FF000001FC0000
7F000001FC0000
7F000003FC0000
7F800003FC0000
7F800003FC0000
3F800007FC0000
3FC00007FC0000
3FE0000FFC0000
1FF0001FFC0000
1FF8003FFC0000
0FFC00FFFC0000
07FFC7FEFC0000
03FFFFFCFC0000
03FFFFFCFC0000
00FFFFF8FC0000
007FFFE0FC0000
001FFF80000000
0003FE00000000
ENDCHAR
STARTCHAR 0110
ENCODING 272
SWIDTH 720 0
DWIDTH 58 0
BBX 52 59 2 0
BITMAP
07FFFFFF800000
07FFFFFFF80000
07FFFFFFFE0000
07FFFFFFFF8000
07FFFFFFFFC000
07FFFFFFFFE000
07FFFFFFFFF000
07F800007FF800
07F800001FFC00
07F8000007FE00
07F8000003FE00
07F8000001FF00
07F8000000FF00
07F80000007F80
07F80000007F80
07F80000003FC0
07F80000003FC0
07F80000001FC0
07F80000001FE0
07F80000001FE0
07F80000001FE0
07F80000000FE0
07F80000000FE0
07F80000000FE0
07F80000000FF0
07F80000000FF0
FFFFFFC0000FF0
FFFFFFC0000FF0
FFFFFFC0000FF0
FFFFFFC0000FF0
FFFFFFC0000FF0
07F80000000FF0
07F80000000FF0
07F80000000FF0
07F80000000FF0
07F80000000FE0
07F80000000FE0
07F80000000FE0
07F80000001FE0
07F80000001FE0
07F80000001FC0
07F80000003FC0
07F80000003FC0
07F80000003FC0
07F80000007F80
07F80000007F80
07F8000000FF00
07F8000001FF00
07F8000003FE00
07F8000007FE00
07F800001FFC00
07F800007FF800
07FFFFFFFFF000
07FFFFFFFFE000
07FFFFFFFFC000
07FFFFFFFF8000
07FFFFFFFE0000
07FFFFFFF80000
07FFFFFF800000
ENDCHAR
STARTCHAR 0111
ENCODING 273
SWIDTH 558 0
DWIDTH 45 0
BBX 43 61 2 -2
BITMAP
00000001FC00
00000001FC00
00000001FC00
00000001FC00
00000001FC00
00000001FC00
00000001FC00
00001FFFFFE0
00001FFFFFE0
00001FFFFFE0
00001FFFFFE0
00000001FC00
00000001FC00
00000001FC00
00000001FC00
00000001FC00
0003FE01FC00
001FFF81FC00
007FFFE1FC00
00FFFFF1FC00
01FFFFFDFC00
03FFFFFDFC00
07FFFFFFFC00
0FFE00FFFC00
1FF8007FFC00
1FF0001FFC00
3FE0000FFC00
3FC0000FFC00
3F800007FC00
7F800007FC00
7F800003FC00
7F000003FC00
7F000003FC00
FF000001FC00
FE000001FC00
FE000001FC00
FE000001FC00
FE000001FC00
FE000001FC00
FE000001FC00
FE000001FC00
FE000001FC00
FE000001FC00
7F000001FC00
7F000003FC00
7F000003FC00
7F800003FC00
7F800007FC00
3FC00007FC00
3FC0000FFC00
1FE0000FFC00
1FF0001FFC00
0FF8003FFC00
0FFE00FFFC00
07FFFFFFFC00
03FFFFFEFC00
01FFFFFCFC00
00FFFFF8FC00
007FFFE0FC00
001FFF800000
0003FE000000
ENDCHAR
STARTCHAR 0112
ENCODING 274
SWIDTH 670 0
DWIDTH 54 0
BBX 42 73 7 0
BITMAP
003FFFFF0000
003FFFFF0000
003FFFFF0000
003FFFFF0000
003FFFFF0000
003FFFFF0000
000000000000
000000000000
000000000000
000000000000
000000000000
000000000000
000000000000
000000000000
FFFFFFFFFF80
FFFFFFFFFF80
FFFFFFFFFF80
FFFFFFFFFF80
FFFFFFFFFF80
FFFFFFFFFF80
FFFFFFFFFF80
FF0000000000
FF0000000000
FF0000000000
FF0000000000
FF0000000000
FF0000000000
FF0000000000
FF0000000000
FF0000000000
FF0000000000
FF0000000000
FF0000000000
FF0000000000
FF0000000000
FF0000000000
FF0000000000
FF0000000000
FF0000000000
FFFFFFFFFF00
FFFFFFFFFF00
FFFFFFFFFF00
FFFFFFFFFF00
FFFFFFFFFF00
FFFFFFFFFF00
FFFFFFFFFF00
FF0000000000
FF0000000000
FF0000000000
FF0000000000
FF0000000000
FF0000000000
FF0000000000
FF0000000000
FF0000000000
FF0000000000
FF0000000000
FF0000000000
FF0000000000
FF0000000000
FF0000000000
FF0000000000
FF0000000000
FF0000000000
FF0000000000
FF0000000000
FFFFFFFFFFC0
FFFFFFFFFFC0
FFFFFFFFFFC0
FFFFFFFFFFC0
FFFFFFFFFFC0
FFFFFFFFFFC0
FFFFFFFFFFC0
ENDCHAR
STARTCHAR 0113
ENCODING 275
SWIDTH 558 0
DWIDTH 45 0
BBX 38 58 3 -2
BITMAP
007FFFFE00
007FFFFE00
007FFFFE00
007FFFFE00
007FFFFE00
007FFFFE00
0000000000
0000000000
0000000000
0000000000
0000000000
0000000000
0000000000
0001FF0000
000FFFE000
003FFFF800
00FFFFFE00
01FFFFFF00
03FFFFFF80
07FF83FFC0
07FC007FE0
0FF0003FE0
1FE0000FF0
1FC0000FF0
3FC00007F8
3F800003F8
3F800003F8
7F000003FC
7F000001FC
7F000001FC
7F000001FC
7E000001FC
FFFFFFFFFC
FFFFFFFFFC
FFFFFFFFFC
FFFFFFFFFC
FFFFFFFFFC
FE00000000
FE00000000
FE00000000
7E00000000
7F00000000
7F00000000
7F000001F8
7F000003F8
3F800003F8
3FC00007F8
3FC00007F0
1FE0000FF0
1FF0001FE0
0FFC007FE0
07FF83FFC0
03FFFFFF80
01FFFFFF00
00FFFFFE00
007FFFF800
001FFFE000
0001FF0000
ENDCHAR
STARTCHAR 0114
ENCODING 276
SWIDTH 670 0
DWIDTH 54 0
BBX 42 75 7 0
BITMAP
007C000F8000
007C000F8000
007C001F0000
007E003F0000
007F80FF0000
003FFFFE0000
001FFFFE0000
000FFFFC0000
0007FFF00000
0001FFE00000
00000C000000
000000000000
000000000000
000000000000
000000000000
000000000000
FFFFFFFFFF80
FFFFFFFFFF80
FFFFFFFFFF80
FFFFFFFFFF80
FFFFFFFFFF80
FFFFFFFFFF80
FFFFFFFFFF80
FF0000000000
FF0000000000
FF0000000000
FF0000000000
FF0000000000
FF0000000000
FF0000000000
FF0000000000
FF0000000000
FF0000000000
FF0000000000
FF0000000000
FF0000000000
FF0000000000
FF0000000000
FF0000000000
FF0000000000
FF0000000000
FFFFFFFFFF00
FFFFFFFFFF00
FFFFFFFFFF00
FFFFFFFFFF00
FFFFFFFFFF00
FFFFFFFFFF00
FFFFFFFFFF00
FF0000000000
FF0000000000
FF0000000000
FF0000000000
FF0000000000
FF0000000000
FF0000000000
FF0000000000
FF0000000000
FF0000000000
FF0000000000
FF0000000000
FF0000000000
FF0000000000
FF0000000000
FF0000000000
FF0000000000
FF0000000000
FF0000000000
FF0000000000
FFFFFFFFFFC0
FFFFFFFFFFC0
FFFFFFFFFFC0
FFFFFFFFFFC0
FFFFFFFFFFC0
FFFFFFFFFFC0
FFFFFFFFFFC0
ENDCHAR
STARTCHAR 0115
ENCODING 277
SWIDTH 558 0
DWIDTH 45 0
BBX 38 61 3 -2
BITMAP
00F8001F00
00F8001F00
00FC001F00
00FC003F00
007F007E00
007FFFFE00
003FFFFC00
001FFFF800
000FFFF000
0007FFE000
0000FF0000
0000000000
0000000000
0000000000
0000000000
0000000000
0001FF0000
000FFFE000
003FFFF800
00FFFFFE00
01FFFFFF00
03FFFFFF80
07FF83FFC0
07FC007FE0
0FF0003FE0
1FE0000FF0
1FC0000FF0
3FC00007F8
3F800003F8
3F800003F8
7F000003FC
7F000001FC
7F000001FC
7F000001FC
7E000001FC
FFFFFFFFFC
FFFFFFFFFC
FFFFFFFFFC
FFFFFFFFFC
FFFFFFFFFC
FE00000000
FE00000000
FE00000000
7E00000000
7F00000000
7F00000000
7F000001F8
7F000003F8
3F800003F8
3FC00007F8
3FC00007F0
1FE0000FF0
1FF0001FE0
0FFC007FE0
07FF83FFC0
03FFFFFF80
01FFFFFF00
00FFFFFE00
007FFFF800
001FFFE000
0001FF0000
ENDCHAR
STARTCHAR 0116
ENCODING 278
SWIDTH 670 0
DWIDTH 54 0
BBX 42 74 7 0
BITMAP
00007F800000
00007F800000
00007F800000
00007F800000
00007F800000
00007F800000
00007F800000
00007F800000
000000000000
000000000000
000000000000
000000000000
000000000000
000000000000
000000000000
FFFFFFFFFF80
FFFFFFFFFF80
FFFFFFFFFF80
FFFFFFFFFF80
FFFFFFFFFF80
FFFFFFFFFF80
FFFFFFFFFF80
FF0000000000
FF0000000000
FF0000000000
FF0000000000
FF0000000000
FF0000000000
FF0000000000
FF0000000000
FF0000000000
FF0000000000
FF0000000000
FF0000000000
FF0000000000
FF0000000000
FF0000000000
FF0000000000
FF0000000000
FF0000000000
FFFFFFFFFF00
FFFFFFFFFF00
FFFFFFFFFF00
FFFFFFFFFF00
FFFFFFFFFF00
FFFFFFFFFF00
FFFFFFFFFF00
FF0000000000
FF0000000000
FF0000000000
FF0000000000
FF0000000000
FF0000000000
FF0000000000
FF0000000000
FF0000000000
FF0000000000
FF0000000000
FF0000000000
FF0000000000
FF0000000000
FF0000000000
FF0000000000
FF0000000000
FF0000000000
FF0000000000
FF0000000000
FFFFFFFFFFC0
FFFFFFFFFFC0
FFFFFFFFFFC0
FFFFFFFFFFC0
FFFFFFFFFFC0
FFFFFFFFFFC0
FFFFFFFFFFC0
ENDCHAR
STARTCHAR 0117
ENCODING 279
SWIDTH 558 0
DWIDTH 45 0
BBX 38 60 3 -2
BITMAP
0000FF0000
0000FF0000
0000FF0000
0000FF0000
0000FF0000
0000FF0000
0000FF0000
0000FF0000
0000000000
0000000000
0000000000
0000000000
0000000000
0000000000
0000000000
0001FF0000
000FFFE000
003FFFF800
00FFFFFE00
01FFFFFF00
03FFFFFF80
07FF83FFC0
07FC007FE0
0FF0003FE0
1FE0000FF0
1FC0000FF0
3FC00007F8
3F800003F8
3F800003F8
7F000003FC
7F000001FC
7F000001FC
7F000001FC
7E000001FC
FFFFFFFFFC
FFFFFFFFFC
FFFFFFFFFC
FFFFFFFFFC
FFFFFFFFFC
FE00000000
FE00000000
FE00000000
7E00000000
7F00000000
7F00000000
7F000001F8
7F000003F8
3F800003F8
3FC00007F8
3FC00007F0
1FE0000FF0
1FF0001FE0
0FFC007FE0
07FF83FFC0
03FFFFFF80
01FFFFFF00
00FFFFFE00
007FFFF800
001FFFE000
0001FF0000
ENDCHAR
STARTCHAR 0118
ENCODING 280
SWIDTH 670 0
DWIDTH 54 0
BBX 46 76 7 -17
BITMAP
FFFFFFFFFF80
FFFFFFFFFF80
FFFFFFFFFF80
FFFFFFFFFF80
FFFFFFFFFF80
FFFFFFFFFF80
FFFFFFFFFF80
FF0000000000
FF0000000000
FF0000000000
FF0000000000
FF0000000000
FF0000000000
FF0000000000
FF0000000000
FF0000000000
FF0000000000
FF0000000000
FF0000000000
FF0000000000
FF0000000000
FF0000000000
FF0000000000
FF0000000000
FF0000000000
FFFFFFFFFF00
FFFFFFFFFF00
FFFFFFFFFF00
FFFFFFFFFF00
FFFFFFFFFF00
FFFFFFFFFF00
FFFFFFFFFF00
FF0000000000
FF0000000000
FF0000000000
FF0000000000
FF0000000000
FF0000000000
FF0000000000
FF0000000000
FF0000000000
FF0000000000
FF0000000000
FF0000000000
FF0000000000
FF0000000000
FF0000000000
FF0000000000
FF0000000000
FF0000000000
FF0000000000
FF0000000000
FFFFFFFFFFC0
FFFFFFFFFFC0
FFFFFFFFFFC0
FFFFFFFFFFC0
FFFFFFFFFFC0
FFFFFFFFFFC0
FFFFFFFFFFC0
000000000F80
000000003F00
00000000FC00
00000001F800
00000003F000
00000003E000
00000007E000
00000007E000
00000007E000
00000007E000
00000007E000
00000007F000
00000003F804
00000003FFFC
00000000FFFC
000000003FFC
000000000380
ENDCHAR
STARTCHAR 0119
ENCODING 281
SWIDTH 558 0
DWIDTH 45 0
BBX 38 60 3 -17
BITMAP
0001FF0000
000FFFE000
003FFFF800
00FFFFFE00
01FFFFFF00
03FFFFFF80
07FF83FFC0
07FC007FE0
0FF0003FE0
1FE0000FF0
1FC0000FF0
3FC00007F8
3F800003F8
3F800003F8
7F000001FC
7F000001FC
7F000001FC
7F000001FC
7F000001FC
FFFFFFFFFC
FFFFFFFFFC
FFFFFFFFFC
FFFFFFFFFC
FFFFFFFFFC
FE00000000
FE00000000
FE00000000
7E00000000
7F00000000
7F00000000
7F000001FC
7F000003F8
3F800003F8
3FC00007F8
3FC00007F0
1FE0000FF0
1FF0001FE0
0FFC007FE0
07FF81FFC0
03FFFFFF80
01FFFFFF00
00FFFFFE00
007FFFFC00
001FFFFC00
0001FF7800
000000F000
000003E000
000007C000
000007C000
00000FC000
00000F8000
00000F8000
00001F8000
00000FC000
00000FC000
00000FF010
000007FFF0
000003FFF0
000000FFF0
0000000200
ENDCHAR
STARTCHAR 011A
ENCODING 282
SWIDTH 670 0
DWIDTH 54 0
BBX 42 76 7 0
BITMAP
007E001F0000
003F003E0000
001F007E0000
001F80FC0000
000FC1F80000
0007E1F80000
0007F3F00000
0003FFF00000
0001FFE00000
0001FFC00000
0000FFC00000
00007F800000
000000000000
000000000000
000000000000
000000000000
000000000000
FFFFFFFFFF80
FFFFFFFFFF80
FFFFFFFFFF80
FFFFFFFFFF80
FFFFFFFFFF80
FFFFFFFFFF80
FFFFFFFFFF80
FF0000000000
FF0000000000
FF0000000000
FF0000000000
FF0000000000
FF0000000000
FF0000000000
FF0000000000
FF0000000000
FF0000000000
FF0000000000
FF0000000000
FF0000000000
FF0000000000
FF0000000000
FF0000000000
FF0000000000
FF0000000000
FFFFFFFFFF00
FFFFFFFFFF00
FFFFFFFFFF00
FFFFFFFFFF00
FFFFFFFFFF00
FFFFFFFFFF00
FFFFFFFFFF00
FF0000000000
FF0000000000
FF0000000000
FF0000000000
FF0000000000
FF0000000000
FF0000000000
FF0000000000
FF0000000000
FF0000000000
FF0000000000
FF0000000000
FF0000000000
FF0000000000
FF0000000000
FF0000000000
FF0000000000
FF0000000000
FF0000000000
FF0000000000
FFFFFFFFFFC0
FFFFFFFFFFC0
FFFFFFFFFFC0
FFFFFFFFFFC0
FFFFFFFFFFC0
FFFFFFFFFFC0
FFFFFFFFFFC0
ENDCHAR
STARTCHAR 011B
ENCODING 283
SWIDTH 558 0
DWIDTH 45 0
BBX 38 62 3 -2
BITMAP
007C003E00
007E007E00
003F007C00
001F00F800
001F81F800
000FC3F000
000FE7F000
0007F7E000
0003FFC000
0003FFC000
0001FF8000
0000FF8000
0000FF0000
0000000000
0000000000
0000000000
0000000000
0001FF0000
000FFFE000
003FFFF800
00FFFFFE00
01FFFFFF00
03FFFFFF80
07FF83FFC0
07FC007FE0
0FF0003FE0
1FE0000FF0
1FC0000FF0
3FC00007F8
3F800003F8
3F800003F8
7F000003FC
7F000001FC
7F000001FC
7F000001FC
7E000001FC
FFFFFFFFFC
FFFFFFFFFC
FFFFFFFFFC
FFFFFFFFFC
FFFFFFFFFC
FE00000000
FE00000000
FE00000000
7E00000000
7F00000000
7F00000000
7F000001F8
7F000003F8
3F800003F8
3FC00007F8
3FC00007F0
1FE0000FF0
1FF0001FE0
0FFC007FE0
07FF83FFC0
03FFFFFF80
01FFFFFF00
00FFFFFE00
007FFFF800
001FFFE000
0001FF0000
ENDCHAR
STARTCHAR 011C
ENCODING 284
SWIDTH 782 0
DWIDTH 63 0
BBX 53 78 4 -2
BITMAP
000001FE000000
000003FF000000
000003FF800000
000007FF800000
00000FFFC00000
00000FCFC00000
00001F87E00000
00003F03F00000
00003F01F00000
00007E01F80000
0000FC00FC0000
0000F8007C0000
00000000000000
00000000000000
00000000000000
00000000000000
000003FFC00000
00003FFFFC0000
0001FFFFFF0000
0007FFFFFFC000
000FFFFFFFF000
003FFFFFFFF800
007FFFFFFFFC00
00FFF8003FFE00
01FFE00007FF00
03FF800003FF80
03FF000000FF80
07FC0000007FC0
0FF80000003FC0
0FF80000003FE0
1FF00000001FE0
1FE00000000FF0
3FC00000000FF0
3FC00000000FF0
3F8000000007F0
7F800000000000
7F800000000000
7F000000000000
FF000000000000
FF000000000000
FF000000000000
FE000000000000
FE000000000000
FE000000000000
FE000000000000
FE000007FFFFF8
FE000007FFFFF8
FE000007FFFFF8
FE000007FFFFF8
FE000007FFFFF8
FE000007FFFFF8
FE000007FFFFF8
FF0000000003F8
FF0000000003F8
FF0000000003F8
FF0000000003F8
7F0000000003F8
7F8000000003F8
7F8000000003F8
7FC000000003F8
3FC000000007F8
3FE000000007F8
1FE00000000FF8
1FF00000000FF8
0FF80000001FF8
0FF80000003FF8
07FC0000007FF8
03FF000000FFF8
03FF800001FFF8
01FFE00007FDF8
00FFFC003FF9F8
007FFFFFFFF1F8
003FFFFFFFC1F8
000FFFFFFF80F8
0007FFFFFF00F8
0001FFFFFC00F8
00007FFFE00000
000007FF000000
ENDCHAR
STARTCHAR 011D
ENCODING 285
SWIDTH 558 0
DWIDTH 45 0
BBX 36 78 3 -18
BITMAP
0001FE0000
0003FF0000
0003FF0000
0007FF8000
000FFFC000
000FCFC000
001F87E000
003F07E000
003F03F000
007E01F800
007C00F800
00F8007C00
0000000000
0000000000
0000000000
0000000000
0000000000
0007F80000
001FFF03F0
007FFF83F0
01FFFFE3F0
03FFFFF3F0
07FFFFF3F0
07FE0FFBF0
0FF801FFF0
1FE000FFF0
1FC0007FF0
3FC0003FF0
3F80001FF0
3F80001FF0
7F00001FF0
7F00000FF0
7F00000FF0
FE00000FF0
FE000007F0
FE000007F0
FE000007F0
FE000007F0
FE000007F0
FE000007F0
FE000007F0
FE000007F0
FE000007F0
FE000007F0
FE000007F0
FE00000FF0
FF00000FF0
7F00000FF0
7F00000FF0
7F80001FF0
3F80001FF0
3FC0003FF0
1FE0007FF0
1FF000FFF0
0FF801FFF0
0FFE0FF7F0
07FFFFE7F0
03FFFFE7F0
01FFFFC7F0
007FFF07F0
003FFE07E0
0007F007E0
00000007E0
0000000FE0
0000000FE0
7F00000FE0
7F00001FC0
3F80001FC0
3F80003FC0
3FC0007F80
1FE000FF80
1FF803FF00
0FFFFFFE00
07FFFFFC00
03FFFFF800
00FFFFE000
003FFF8000
0001E00000
ENDCHAR
STARTCHAR 011E
ENCODING 286
SWIDTH 782 0
DWIDTH 63 0
BBX 53 77 4 -2
BITMAP
0000F8000F0000
0000F8001F0000
0000FC001F0000
00007E003F0000
00007F80FE0000
00007FFFFE0000
00003FFFFC0000
00001FFFF80000
00000FFFF00000
000003FFC00000
00000018000000
00000000000000
00000000000000
00000000000000
00000000000000
000003FFC00000
00003FFFFC0000
0001FFFFFF0000
0007FFFFFFC000
000FFFFFFFF000
003FFFFFFFF800
007FFFFFFFFC00
00FFF8003FFE00
01FFE00007FF00
03FF800003FF80
03FF000000FF80
07FC0000007FC0
0FF80000003FC0
0FF80000003FE0
1FF00000001FE0
1FE00000000FF0
3FC00000000FF0
3FC00000000FF0
3F8000000007F0
7F800000000000
7F800000000000
7F000000000000
FF000000000000
FF000000000000
FF000000000000
FE000000000000
FE000000000000
FE000000000000
FE000000000000
FE000007FFFFF8
FE000007FFFFF8
FE000007FFFFF8
FE000007FFFFF8
FE000007FFFFF8
FE000007FFFFF8
FE000007FFFFF8
FF0000000003F8
FF0000000003F8
FF0000000003F8
FF0000000003F8
7F0000000003F8
7F8000000003F8
7F8000000003F8
7FC000000003F8
3FC000000007F8
3FE000000007F8
1FE00000000FF8
1FF00000000FF8
0FF80000001FF8
0FF80000003FF8
07FC0000007FF8
03FF000000FFF8
03FF800001FFF8
01FFE00007FDF8
00FFFC003FF9F8
007FFFFFFFF1F8
003FFFFFFFC1F8
000FFFFFFF80F8
0007FFFFFF00F8
0001FFFFFC00F8
00007FFFE00000
000007FF000000
ENDCHAR
STARTCHAR 011F
ENCODING 287
SWIDTH 558 0
DWIDTH 45 0
BBX 36 77 3 -18
BITMAP
01E0003E00
01F0003E00
01F0007C00
01F8007C00
01FC01FC00
00FFFFF800
00FFFFF800
007FFFF000
003FFFE000
000FFF8000
0003FE0000
0000000000
0000000000
0000000000
0000000000
0000000000
0007F80000
001FFF03F0
007FFF83F0
01FFFFE3F0
03FFFFF3F0
07FFFFF3F0
07FE0FFBF0
0FF801FFF0
1FE000FFF0
1FC0007FF0
3FC0003FF0
3F80001FF0
3F80001FF0
7F00001FF0
7F00000FF0
7F00000FF0
FE00000FF0
FE000007F0
FE000007F0
FE000007F0
FE000007F0
FE000007F0
FE000007F0
FE000007F0
FE000007F0
FE000007F0
FE000007F0
FE000007F0
FE00000FF0
FF00000FF0
7F00000FF0
7F00000FF0
7F80001FF0
3F80001FF0
3FC0003FF0
1FE0007FF0
1FF000FFF0
0FF801FFF0
0FFE0FF7F0
07FFFFE7F0
03FFFFE7F0
01FFFFC7F0
007FFF07F0
003FFE07E0
0007F007E0
00000007E0
0000000FE0
0000000FE0
7F00000FE0
7F00001FC0
3F80001FC0
3F80003FC0
3FC0007F80
1FE000FF80
1FF803FF00
0FFFFFFE00
07FFFFFC00
03FFFFF800
00FFFFE000
003FFF8000
0001E00000
ENDCHAR
STARTCHAR 0120
ENCODING 288
SWIDTH 782 0
DWIDTH 63 0
BBX 53 76 4 -2
BITMAP
000001FF000000
000001FF000000
000001FF000000
000001FF000000
000001FF000000
000001FF000000
000001FF000000
000001FF000000
00000000000000
00000000000000
00000000000000
00000000000000
00000000000000
00000000000000
000003FFC00000
00003FFFFC0000
0001FFFFFF0000
0007FFFFFFC000
000FFFFFFFF000
003FFFFFFFF800
007FFFFFFFFC00
00FFF8003FFE00
01FFE00007FF00
03FF800003FF80
03FF000000FF80
07FC0000007FC0
0FF80000003FC0
0FF80000003FE0
1FF00000001FE0
1FE00000000FF0
3FC00000000FF0
3FC00000000FF0
3F8000000007F0
7F800000000000
7F800000000000
7F000000000000
FF000000000000
FF000000000000
FF000000000000
FE000000000000
FE000000000000
FE000000000000
FE000000000000
FE000007FFFFF8
FE000007FFFFF8
FE000007FFFFF8
FE000007FFFFF8
FE000007FFFFF8
FE000007FFFFF8
FE000007FFFFF8
FF0000000003F8
FF0000000003F8
FF0000000003F8
FF0000000003F8
7F0000000003F8
7F8000000003F8
7F8000000003F8
7FC000000003F8
3FC000000007F8
3FE000000007F8
1FE00000000FF8
1FF00000000FF8
0FF80000001FF8
0FF80000003FF8
07FC0000007FF8
03FF000000FFF8
03FF800001FFF8
01FFE00007FDF8
00FFFC003FF9F8
007FFFFFFFF1F8
003FFFFFFFC1F8
000FFFFFFF80F8
0007FFFFFF00F8
0001FFFFFC00F8
00007FFFE00000
000007FF000000
ENDCHAR
STARTCHAR 0121
ENCODING 289
SWIDTH 558 0
DWIDTH 45 0
BBX 36 76 3 -18
BITMAP
0003FE0000
0003FE0000
0003FE0000
0003FE0000
0003FE0000
0003FE0000
0003FE0000
0003FE0000
0000000000
0000000000
0000000000
0000000000
0000000000
0000000000
0000000000
0007F80000
001FFF03F0
007FFF83F0
01FFFFE3F0
03FFFFF3F0
07FFFFF3F0
07FE0FFBF0
0FF801FFF0
1FE000FFF0
1FC0007FF0
3FC0003FF0
3F80001FF0
3F80001FF0
7F00001FF0
7F00000FF0
7F00000FF0
FE00000FF0
FE000007F0
FE000007F0
FE000007F0
FE000007F0
FE000007F0
FE000007F0
FE000007F0
FE000007F0
FE000007F0
FE000007F0
FE000007F0
FE00000FF0
FF00000FF0
7F00000FF0
7F00000FF0
7F80001FF0
3F80001FF0
3FC0003FF0
1FE0007FF0
1FF000FFF0
0FF801FFF0
0FFE0FF7F0
07FFFFE7F0
03FFFFE7F0
01FFFFC7F0
007FFF07F0
003FFE07E0
0007F007E0
00000007E0
0000000FE0
0000000FE0
7F00000FE0
7F00001FC0
3F80001FC0
3F80003FC0
3FC0007F80
1FE000FF80
1FF803FF00
0FFFFFFE00
07FFFFFC00
03FFFFF800
00FFFFE000
003FFF8000
0001E00000
ENDCHAR
STARTCHAR 0122
ENCODING 290
SWIDTH 782 0
DWIDTH 63 0
BBX 53 83 4 -23
BITMAP
000003FFC00000
00003FFFFC0000
0001FFFFFF0000
0007FFFFFFC000
000FFFFFFFF000
003FFFFFFFF800
007FFFFFFFFC00
00FFF8003FFE00
01FFE00007FF00
03FF800003FF80
03FF000000FF80
07FC0000007FC0
0FF80000003FC0
0FF80000003FE0
1FF00000001FE0
1FE00000000FF0
3FC00000000FF0
3FC00000000FF0
3F8000000007F0
7F800000000000
7F800000000000
7F000000000000
FF000000000000
FF000000000000
FF000000000000
FE000000000000
FE000000000000
FE000000000000
FE000000000000
FE000007FFFFF8
FE000007FFFFF8
FE000007FFFFF8
FE000007FFFFF8
FE000007FFFFF8
FE000007FFFFF8
FE000007FFFFF8
FF0000000003F8
FF0000000003F8
FF0000000003F8
FF0000000003F8
7F0000000003F8
7F8000000003F8
7F8000000003F8
7FC000000003F8
3FC000000007F8
3FE000000007F8
1FE00000000FF8
1FF00000000FF8
0FF80000001FF8
0FF80000003FF8
07FC0000007FF8
03FF000000FFF8
03FF800001FFF8
01FFE00007FDF8
00FFFC003FF9F8
007FFFFFFFF1F8
003FFFFFFFC1F8
000FFFFFFF80F8
0007FFFFFF00F8
0001FFFFFC00F8
00007FFFE00000
000007FF000000
00000000000000
00000000000000
00000000000000
000001FE000000
000001FE000000
000001FE000000
000001FE000000
000001FE000000
000001FE000000
000001FE000000
000001FE000000
0000000E000000
0000000E000000
0000001E000000
0000001E000000
0000001E000000
0000003C000000
0000007C000000
000001F8000000
000001F0000000
000001C0000000
ENDCHAR
STARTCHAR 0123
ENCODING 291
SWIDTH 558 0
DWIDTH 45 0
BBX 36 83 3 -18
BITMAP
00001C0000
00003C0000
00007C0000
0000F80000
0001E00000
0001E00000
0001C00000
0001C00000
0003C00000
0003C00000
0003FC0000
0003FC0000
0003FC0000
0003FC0000
0003FC0000
0003FC0000
0003FC0000
0003FC0000
0000000000
0000000000
0000000000
0000000000
0007F80000
001FFF03F0
007FFF83F0
01FFFFE3F0
03FFFFF3F0
07FFFFF3F0
07FE0FFBF0
0FF801FFF0
1FE000FFF0
1FC0007FF0
3FC0003FF0
3F80001FF0
3F80001FF0
7F00001FF0
7F00000FF0
7F00000FF0
FE00000FF0
FE000007F0
FE000007F0
FE000007F0
FE000007F0
FE000007F0
FE000007F0
FE000007F0
FE000007F0
FE000007F0
FE000007F0
FE000007F0
FE00000FF0
FF00000FF0
7F00000FF0
7F00000FF0
7F80001FF0
3F80001FF0
3FC0003FF0
1FE0007FF0
1FF000FFF0
0FF801FFF0
0FFE0FF7F0
07FFFFE7F0
03FFFFE7F0
01FFFFC7F0
007FFF07F0
003FFE07E0
0007F007E0
00000007E0
0000000FE0
0000000FE0
7F00000FE0
7F00001FC0
3F80001FC0
3F80003FC0
3FC0007F80
1FE000FF80
1FF803FF00
0FFFFFFE00
07FFFFFC00
03FFFFF800
00FFFFE000
003FFF8000
0001E00000
ENDCHAR
STARTCHAR 0124
ENCODING 292
SWIDTH 720 0
DWIDTH 58 0
BBX 45 76 7 0
BITMAP
00001FE00000
00003FF00000
00003FF00000
00007FF80000
0000FFFC0000
0000FCFC0000
0001F87E0000
0003F03F0000
0003E03F0000
0007E01F8000
000FC00F8000
000F8007C000
000000000000
000000000000
000000000000
000000000000
000000000000
FE00000007F8
FE00000007F8
FE00000007F8
FE00000007F8
FE00000007F8
FE00000007F8
FE00000007F8
FE00000007F8
FE00000007F8
FE00000007F8
FE00000007F8
FE00000007F8
FE00000007F8
FE00000007F8
FE00000007F8
FE00000007F8
FE00000007F8
FE00000007F8
FE00000007F8
FE00000007F8
FE00000007F8
FE00000007F8
FE00000007F8
FE00000007F8
FE00000007F8
FFFFFFFFFFF8
FFFFFFFFFFF8
FFFFFFFFFFF8
FFFFFFFFFFF8
FFFFFFFFFFF8
FFFFFFFFFFF8
FFFFFFFFFFF8
FE00000007F8
FE00000007F8
FE00000007F8
FE00000007F8
FE00000007F8
FE00000007F8
FE00000007F8
FE00000007F8
FE00000007F8
FE00000007F8
FE00000007F8
FE00000007F8
FE00000007F8
FE00000007F8
FE00000007F8
FE00000007F8
FE00000007F8
FE00000007F8
FE00000007F8
FE00000007F8
FE00000007F8
FE00000007F8
FE00000007F8
FE00000007F8
FE00000007F8
FE00000007F8
FE00000007F8
ENDCHAR
STARTCHAR 0125
ENCODING 293
SWIDTH 558 0
DWIDTH 45 0
BBX 41 76 -2 0
BITMAP
01FE00000000
03FF00000000
03FF80000000
07FF80000000
0FFFC0000000
0FCFE0000000
1F87E0000000
1F83F0000000
3F01F0000000
7E01F8000000
7C00FC000000
F8007C000000
000000000000
000000000000
000000000000
000000000000
000000000000
00FC00000000
00FC00000000
00FC00000000
00FC00000000
00FC00000000
00FC00000000
00FC00000000
00FC00000000
00FC00000000
00FC00000000
00FC00000000
00FC00000000
00FC00000000
00FC00000000
00FC00000000
00FC00000000
00FC01FF0000
00FC07FFE000
00FC1FFFF800
00FC3FFFFC00
00FC7FFFFE00
00FCFFFFFF00
00FDFC07FF00
00FFF001FF80
00FFE0007F80
00FFC0007F80
00FF80003F80
00FF00003F80
00FF00003F80
00FE00003F80
00FE00003F80
00FE00003F80
00FE00003F80
00FC00003F80
00FC00003F80
00FC00003F80
00FC00003F80
00FC00003F80
00FC00003F80
00FC00003F80
00FC00003F80
00FC00003F80
00FC00003F80
00FC00003F80
00FC00003F80
00FC00003F80
00FC00003F80
00FC00003F80
00FC00003F80
00FC00003F80
00FC00003F80
00FC00003F80
00FC00003F80
00FC00003F80
00FC00003F80
00FC00003F80
00FC00003F80
00FC00003F80
00FC00003F80
ENDCHAR
STARTCHAR 0126
ENCODING 294
SWIDTH 720 0
DWIDTH 58 0
BBX 57 59 1 0
BITMAP
03F80000001FE000
03F80000001FE000
03F80000001FE000
03F80000001FE000
03F80000001FE000
03F80000001FE000
03F80000001FE000
03F80000001FE000
03F80000001FE000
03F80000001FE000
03F80000001FE000
03F80000001FE000
03F80000001FE000
FFFFFFFFFFFFFF80
FFFFFFFFFFFFFF80
FFFFFFFFFFFFFF80
FFFFFFFFFFFFFF80
FFFFFFFFFFFFFF80
FFFFFFFFFFFFFF80
03F80000001FE000
03F80000001FE000
03F80000001FE000
03F80000001FE000
03F80000001FE000
03F80000001FE000
03FFFFFFFFFFE000
03FFFFFFFFFFE000
03FFFFFFFFFFE000
03FFFFFFFFFFE000
03FFFFFFFFFFE000
03FFFFFFFFFFE000
03FFFFFFFFFFE000
03F80000001FE000
03F80000001FE000
03F80000001FE000
03F80000001FE000
03F80000001FE000
03F80000001FE000
03F80000001FE000
03F80000001FE000
03F80000001FE000
03F80000001FE000
03F80000001FE000
03F80000001FE000
03F80000001FE000
03F80000001FE000
03F80000001FE000
03F80000001FE000
03F80000001FE000
03F80000001FE000
03F80000001FE000
03F80000001FE000
03F80000001FE000
03F80000001FE000
03F80000001FE000
03F80000001FE000
03F80000001FE000
03F80000001FE000
03F80000001FE000
ENDCHAR
STARTCHAR 0127
ENCODING 295
SWIDTH 558 0
DWIDTH 45 0
BBX 38 59 1 0
BITMAP
07E0000000
07E0000000
07E0000000
07E0000000
07E0000000
07E0000000
07E0000000
FFFFFFF000
FFFFFFF000
FFFFFFF000
FFFFFFF000
07E0000000
07E0000000
07E0000000
07E0000000
07E0000000
07E00FF800
07E03FFF00
07E0FFFFC0
07E1FFFFE0
07E3FFFFF0
07E7FFFFF8
07EFE03FF8
07FF800FFC
07FF0003FC
07FE0003FC
07FC0001FC
07F80001FC
07F80001FC
07F00001FC
07F00001FC
07F00001FC
07F00001FC
07E00001FC
07E00001FC
07E00001FC
07E00001FC
07E00001FC
07E00001FC
07E00001FC
07E00001FC
07E00001FC
07E00001FC
07E00001FC
07E00001FC
07E00001FC
07E00001FC
07E00001FC
07E00001FC
07E00001FC
07E00001FC
07E00001FC
07E00001FC
07E00001FC
07E00001FC
07E00001FC
07E00001FC
07E00001FC
07E00001FC
ENDCHAR
STARTCHAR 0128
ENCODING 296
SWIDTH 273 0
DWIDTH 22 0
BBX 25 74 -2 0
BITMAP
07C00780
1FF00F80
3FFE1F80
3FFFFF80
7FFFFF00
7EFFFF00
7C0FFE00
F803FC00
00000000
00000000
00000000
00000000
00000000
00000000
00000000
003FC000
003FC000
003FC000
003FC000
003FC000
003FC000
003FC000
003FC000
003FC000
003FC000
003FC000
003FC000
003FC000
003FC000
003FC000
003FC000
003FC000
003FC000
003FC000
003FC000
003FC000
003FC000
003FC000
003FC000
003FC000
003FC000
003FC000
003FC000
003FC000
003FC000
003FC000
003FC000
003FC000
003FC000
003FC000
003FC000
003FC000
003FC000
003FC000
003FC000
003FC000
003FC000
003FC000
003FC000
003FC000
003FC000
003FC000
003FC000
003FC000
003FC000
003FC000
003FC000
003FC000
003FC000
003FC000
003FC000
003FC000
003FC000
003FC000
ENDCHAR
STARTCHAR 0129
ENCODING 297
SWIDTH 273 0
DWIDTH 22 0
BBX 25 58 -2 0
BITMAP
07C00780
1FF00F80
3FFE1F80
3FFFFF80
7FFFFF00
7EFFFF00
7C0FFE00
F803FC00
00000000
00000000
00000000
00000000
00000000
00000000
00000000
00000000
003F0000
003F0000
003F0000
003F0000
003F0000
003F0000
003F0000
003F0000
003F0000
003F0000
003F0000
003F0000
003F0000
003F0000
003F0000
003F0000
003F0000
003F0000
003F0000
003F0000
003F0000
003F0000
003F0000
003F0000
003F0000
003F0000
003F0000
003F0000
003F0000
003F0000
003F0000
003F0000
003F0000
003F0000
003F0000
003F0000
003F0000
003F0000
003F0000
003F0000
003F0000
003F0000
ENDCHAR
STARTCHAR 012A
ENCODING 298
SWIDTH 273 0
DWIDTH 22 0
BBX 20 73 2 0
BITMAP
FFFFF0
FFFFF0
FFFFF0
FFFFF0
FFFFF0
FFFFF0
000000
000000
000000
000000
000000
000000
000000
000000
03FC00
03FC00
03FC00
03FC00
03FC00
03FC00
03FC00
03FC00
03FC00
03FC00
03FC00
03FC00
03FC00
03FC00
03FC00
03FC00
03FC00
03FC00
03FC00
03FC00
03FC00
03FC00
03FC00
03FC00
03FC00
03FC00
03FC00
03FC00
03FC00
03FC00
03FC00
03FC00
03FC00
03FC00
03FC00
03FC00
03FC00
03FC00
03FC00
03FC00
03FC00
03FC00
03FC00
03FC00
03FC00
03FC00
03FC00
03FC00
03FC00
03FC00
03FC00
03FC00
03FC00
03FC00
03FC00
03FC00
03FC00
03FC00
03FC00
ENDCHAR
STARTCHAR 012B
ENCODING 299
SWIDTH 273 0
DWIDTH 22 0
BBX 20 56 1 0
BITMAP
FFFFF0
FFFFF0
FFFFF0
FFFFF0
FFFFF0
FFFFF0
000000
000000
000000
000000
000000
000000
000000
000000
01FC00
01FC00
01FC00
01FC00
01FC00
01FC00
01FC00
01FC00
01FC00
01FC00
01FC00
01FC00
01FC00
01FC00
01FC00
01FC00
01FC00
01FC00
01FC00
01FC00
01FC00
01FC00
01FC00
01FC00
01FC00
01FC00
01FC00
01FC00
01FC00
01FC00
01FC00
01FC00
01FC00
01FC00
01FC00
01FC00
01FC00
01FC00
01FC00
01FC00
01FC00
01FC00
ENDCHAR
STARTCHAR 012C
ENCODING 300
SWIDTH 273 0
DWIDTH 22 0
BBX 24 75 -1 0
BITMAP
F8001F
F8001F
FC001F
FE003F
7F80FE
7FFFFE
3FFFFC
1FFFF8
0FFFF0
03FFC0
001800
000000
000000
000000
000000
000000
007F00
007F00
007F00
007F00
007F00
007F00
007F00
007F00
007F00
007F00
007F00
007F00
007F00
007F00
007F00
007F00
007F00
007F00
007F00
007F00
007F00
007F00
007F00
007F00
007F00
007F00
007F00
007F00
007F00
007F00
007F00
007F00
007F00
007F00
007F00
007F00
007F00
007F00
007F00
007F00
007F00
007F00
007F00
007F00
007F00
007F00
007F00
007F00
007F00
007F00
007F00
007F00
007F00
007F00
007F00
007F00
007F00
007F00
007F00
ENDCHAR
STARTCHAR 012D
ENCODING 301
SWIDTH 273 0
DWIDTH 22 0
BBX 24 59 -1 0
BITMAP
F8001F
F8001F
FC001F
FC003F
7F007E
7FFFFE
3FFFFC
1FFFF8
0FFFF0
07FFE0
00FF00
000000
000000
000000
000000
000000
000000
007E00
007E00
007E00
007E00
007E00
007E00
007E00
007E00
007E00
007E00
007E00
007E00
007E00
007E00
007E00
007E00
007E00
007E00
007E00
007E00
007E00
007E00
007E00
007E00
007E00
007E00
007E00
007E00
007E00
007E00
007E00
007E00
007E00
007E00
007E00
007E00
007E00
007E00
007E00
007E00
007E00
007E00
ENDCHAR
STARTCHAR 012E
ENCODING 302
SWIDTH 273 0
DWIDTH 22 0
BBX 14 76 5 -17
BITMAP
1FE0
1FE0
1FE0
1FE0
1FE0
1FE0
1FE0
1FE0
1FE0
1FE0
1FE0
1FE0
1FE0
1FE0
1FE0
1FE0
1FE0
1FE0
1FE0
1FE0
1FE0
1FE0
1FE0
1FE0
1FE0
1FE0
1FE0
1FE0
1FE0
1FE0
1FE0
1FE0
1FE0
1FE0
1FE0
1FE0
1FE0
1FE0
1FE0
1FE0
1FE0
1FE0
1FE0
1FE0
1FE0
1FE0
1FE0
1FE0
1FE0
1FE0
1FE0
1FE0
1FE0
1FE0
1FE0
1FE0
1FE0
1FE0
1FE0
03C0
0780
0F00
1F00
3E00
7E00
7C00
7C00
FC00
FC00
FC00
7E00
7F04
3FFC
1FFC
0FFC
01E0
ENDCHAR
STARTCHAR 012F
ENCODING 303
SWIDTH 223 0
DWIDTH 18 0
BBX 13 76 2 -17
BITMAP
1FC0
1FC0
1FC0
1FC0
1FC0
1FC0
1FC0
1FC0
0000
0000
0000
0000
0000
0000
0000
0000
0000
1FC0
1FC0
1FC0
1FC0
1FC0
1FC0
1FC0
1FC0
1FC0
1FC0
1FC0
1FC0
1FC0
1FC0
1FC0
1FC0
1FC0
1FC0
1FC0
1FC0
1FC0
1FC0
1FC0
1FC0
1FC0
1FC0
1FC0
1FC0
1FC0
1FC0
1FC0
1FC0
1FC0
1FC0
1FC0
1FC0
1FC0
1FC0
1FC0
1FC0
1FC0
1FC0
07C0
0F80
1F00
3E00
3E00
7C00
7C00
FC00
FC00
FC00
FC00
FE00
7F00
7FF8
3FF8
0FF8
01C0
ENDCHAR
STARTCHAR 0130
ENCODING 304
SWIDTH 273 0
DWIDTH 22 0
BBX 9 74 7 0
BITMAP
FF80
FF80
FF80
FF80
FF80
FF80
FF80
FF80
0000
0000
0000
0000
0000
0000
0000
7F80
7F80
7F80
7F80
7F80
7F80
7F80
7F80
7F80
7F80
7F80
7F80
7F80
7F80
7F80
7F80
7F80
7F80
7F80
7F80
7F80
7F80
7F80
7F80
7F80
7F80
7F80
7F80
7F80
7F80
7F80
7F80
7F80
7F80
7F80
7F80
7F80
7F80
7F80
7F80
7F80
7F80
7F80
7F80
7F80
7F80
7F80
7F80
7F80
7F80
7F80
7F80
7F80
7F80
7F80
7F80
7F80
7F80
7F80
ENDCHAR
STARTCHAR 0131
ENCODING 305
SWIDTH 273 0
DWIDTH 22 0
BBX 6 42 8 0
BITMAP
FC
FC
FC
FC
FC
FC
FC
FC
FC
FC
FC
FC
FC
FC
FC
FC
FC
FC
FC
FC
FC
FC
FC
FC
FC
FC
FC
FC
FC
FC
FC
FC
FC
FC
FC
FC
FC
FC
FC
FC
FC
FC
ENDCHAR
STARTCHAR 0132
ENCODING 306
SWIDTH 732 0
DWIDTH 59 0
BBX 45 61 8 -2
BITMAP
FF00000007F8
FF00000007F8
FF00000007F8
FF00000007F8
FF00000007F8
FF00000007F8
FF00000007F8
FF00000007F8
FF00000007F8
FF00000007F8
FF00000007F8
FF00000007F8
FF00000007F8
FF00000007F8
FF00000007F8
FF00000007F8
FF00000007F8
FF00000007F8
FF00000007F8
FF00000007F8
FF00000007F8
FF00000007F8
FF00000007F8
FF00000007F8
FF00000007F8
FF00000007F8
FF00000007F8
FF00000007F8
FF00000007F8
FF00000007F8
FF00000007F8
FF00000007F8
FF00000007F8
FF00000007F8
FF00000007F8
FF00000007F8
FF00000007F8
FF00000007F8
FF00000007F8
FF00000007F8
FF0FF00007F8
FF0FF00007F8
FF0FF00007F8
FF0FF00007F8
FF0FF00007F8
FF0FF00007F8
FF0FF00007F8
FF0FF00007F8
FF0FF00007F8
FF0FF0000FF0
FF07F8000FF0
FF07FC001FF0
FF07FC003FE0
FF03FF007FE0
FF03FFC3FFC0
FF01FFFFFF80
FF00FFFFFF00
FF007FFFFE00
FF003FFFFC00
00000FFFF000
000001FF8000
ENDCHAR
STARTCHAR 0133
ENCODING 307
SWIDTH 446 0
DWIDTH 36 0
BBX 22 77 7 -18
BITMAP
FE00FC
FE00FC
FE00FC
FE00FC
FE00FC
FE00FC
FE00FC
FE00FC
000000
000000
000000
000000
000000
000000
000000
000000
000000
FE00FC
FE00FC
FE00FC
FE00FC
FE00FC
FE00FC
FE00FC
FE00FC
FE00FC
FE00FC
FE00FC
FE00FC
FE00FC
FE00FC
FE00FC
FE00FC
FE00FC
FE00FC
FE00FC
FE00FC
FE00FC
FE00FC
FE00FC
FE00FC
FE00FC
FE00FC
FE00FC
FE00FC
FE00FC
FE00FC
FE00FC
FE00FC
FE00FC
FE00FC
FE00FC
FE00FC
FE00FC
FE00FC
FE00FC
FE00FC
FE00FC
FE00FC
0000FC
0000FC
0000FC
0000FC
0000FC
0000FC
0000FC
0000FC
0001FC
0001FC
0001FC
0007FC
00FFFC
00FFF8
00FFF8
00FFF0
00FFC0
00FE00
ENDCHAR
STARTCHAR 0134
ENCODING 308
SWIDTH 496 0
DWIDTH 40 0
BBX 40 78 1 -2
BITMAP
000000FF80
000000FF80
000001FFC0
000003FFE0
000003F7E0
000007F7F0
000007E3F0
00000FC1F8
00001F80FC
00001F007C
00003E003E
00007E003F
0000000000
0000000000
0000000000
0000000000
0000000000
0000003F80
0000003F80
0000003F80
0000003F80
0000003F80
0000003F80
0000003F80
0000003F80
0000003F80
0000003F80
0000003F80
0000003F80
0000003F80
0000003F80
0000003F80
0000003F80
0000003F80
0000003F80
0000003F80
0000003F80
0000003F80
0000003F80
0000003F80
0000003F80
0000003F80
0000003F80
0000003F80
0000003F80
0000003F80
0000003F80
0000003F80
0000003F80
0000003F80
0000003F80
0000003F80
0000003F80
0000003F80
0000003F80
0000003F80
0000003F80
FF00003F80
FF00003F80
FF00003F80
FF00003F80
FF00003F80
FF00003F80
FF00003F80
FF00007F80
7F80007F80
7F80007F80
7F8000FF00
7FC000FF00
3FE001FF00
3FF007FE00
1FFE1FFE00
0FFFFFFC00
0FFFFFF800
03FFFFF000
01FFFFC000
007FFF0000
000FF80000
ENDCHAR
STARTCHAR 0135
ENCODING 309
SWIDTH 223 0
DWIDTH 18 0
BBX 22 78 -2 -18
BITMAP
01FE00
03FE00
07FF00
07FF80
0FFF80
1FDFC0
1F8FE0
3F07E0
3E03F0
7E01F0
FC00F8
F800FC
000000
000000
000000
000000
000000
000000
00FC00
00FC00
00FC00
00FC00
00FC00
00FC00
00FC00
00FC00
00FC00
00FC00
00FC00
00FC00
00FC00
00FC00
00FC00
00FC00
00FC00
00FC00
00FC00
00FC00
00FC00
00FC00
00FC00
00FC00
00FC00
00FC00
00FC00
00FC00
00FC00
00FC00
00FC00
00FC00
00FC00
00FC00
00FC00
00FC00
00FC00
00FC00
00FC00
00FC00
00FC00
00FC00
00FC00
00FC00
00FC00
00FC00
00FC00
00FC00
00FC00
00FC00
00FC00
01FC00
01FC00
07FC00
7FFC00
7FF800
7FF800
7FF000
7FC000
7E0000
ENDCHAR
STARTCHAR 0136
ENCODING 310
SWIDTH 670 0
DWIDTH 54 0
BBX 47 82 6 -23
BITMAP
FF00000007FC
FF0000000FF8
FF0000001FF0
FF0000003FE0
FF0000007FC0
FF000000FF80
FF000001FF00
FF000003FE00
FF000007FC00
FF00000FF800
FF00001FF000
FF00003FE000
FF00007FC000
FF0000FF8000
FF0001FF0000
FF0003FE0000
FF0007FC0000
FF000FF80000
FF001FF00000
FF003FE00000
FF007FC00000
FF00FF800000
FF01FF000000
FF03FE000000
FF07FE000000
FF0FFF000000
FF1FFF800000
FF3FFF800000
FF7FFFC00000
FFFFBFE00000
FFFF1FE00000
FFFE1FF00000
FFFC0FF80000
FFF807F80000
FFF007FC0000
FFE003FE0000
FFC001FE0000
FF8001FF0000
FF0000FF8000
FF00007FC000
FF00007FC000
FF00003FE000
FF00001FF000
FF00000FF000
FF00000FF800
FF000007FC00
FF000003FC00
FF000003FE00
FF000001FF00
FF000000FF00
FF000000FF80
FF0000007FC0
FF0000003FE0
FF0000003FE0
FF0000001FF0
FF0000000FF8
FF0000000FF8
FF00000007FC
FF00000003FE
000000000000
000000000000
000000000000
000000000000
000000000000
00003FC00000
00003FC00000
00003FC00000
00003FC00000
00003FC00000
00003FC00000
00003FC00000
00003FC00000
000001C00000
000001C00000
000003C00000
000003C00000
000003C00000
000007800000
00000F800000
00003F000000
00003E000000
000038000000
ENDCHAR
STARTCHAR 0137
ENCODING 311
SWIDTH 496 0
DWIDTH 40 0
BBX 35 82 5 -23
BITMAP
FC00000000
FC00000000
FC00000000
FC00000000
FC00000000
FC00000000
FC00000000
FC00000000
FC00000000
FC00000000
FC00000000
FC00000000
FC00000000
FC00000000
FC00000000
FC00000000
FC00000000
FC0000FF00
FC0001FE00
FC0003FC00
FC0007F800
FC000FF000
FC001FE000
FC003FC000
FC007F8000
FC00FF0000
FC01FE0000
FC03FC0000
FC07F80000
FC0FF00000
FC1FE00000
FC3FC00000
FC7FE00000
FCFFE00000
FDFFF00000
FFFFF80000
FFFFF80000
FFF3FC0000
FFE3FE0000
FFC1FE0000
FF80FF0000
FF00FF0000
FE007F8000
FC007FC000
FC003FC000
FC001FE000
FC001FF000
FC000FF000
FC0007F800
FC0007F800
FC0003FC00
FC0003FE00
FC0001FE00
FC0000FF00
FC0000FF80
FC00007F80
FC00003FC0
FC00003FE0
FC00001FE0
0000000000
0000000000
0000000000
0000000000
0000000000
000FF80000
000FF80000
000FF80000
000FF80000
000FF80000
000FF80000
000FF80000
000FF80000
0000780000
0000780000
0000700000
0000700000
0000F00000
0000F00000
0003E00000
000FC00000
000F800000
000E000000
ENDCHAR
STARTCHAR 0138
ENCODING 312
SWIDTH 496 0
DWIDTH 40 0
BBX 33 41 3 0
BITMAP
FC00007F00
FC0000FE00
FC0001FC00
FC0003F800
FC0007F000
FC0007E000
FC000FC000
FC001F8000
FC003F0000
FC007E0000
FC00FC0000
FC01F80000
FC03F00000
FC07E00000
FC0FC00000
FC1F800000
FC3F000000
FC7F800000
FCFF800000
FDFFC00000
FFF7E00000
FFE7E00000
FFC3F00000
FF81F80000
FF01F80000
FE00FC0000
FC007E0000
FC007F0000
FC003F0000
FC001F8000
FC001FC000
FC000FC000
FC0007E000
FC0003F000
FC0003F000
FC0001F800
FC0000FC00
FC0000FE00
FC00007E00
FC00003F00
FC00003F80
ENDCHAR
STARTCHAR 0139
ENCODING 313
SWIDTH 558 0
DWIDTH 45 0
BBX 37 76 6 0
BITMAP
01FF000000
03FE000000
03FC000000
07F8000000
0FF0000000
0FE0000000
1FC0000000
1F80000000
3F00000000
7E00000000
7C00000000
F800000000
0000000000
0000000000
0000000000
0000000000
0000000000
FF00000000
FF00000000
FF00000000
FF00000000
FF00000000
FF00000000
FF00000000
FF00000000
FF00000000
FF00000000
FF00000000
FF00000000
FF00000000
FF00000000
FF00000000
FF00000000
FF00000000
FF00000000
FF00000000
FF00000000
FF00000000
FF00000000
FF00000000
FF00000000
FF00000000
FF00000000
FF00000000
FF00000000
FF00000000
FF00000000
FF00000000
FF00000000
FF00000000
FF00000000
FF00000000
FF00000000
FF00000000
FF00000000
FF00000000
FF00000000
FF00000000
FF00000000
FF00000000
FF00000000
FF00000000
FF00000000
FF00000000
FF00000000
FF00000000
FF00000000
FF00000000
FF00000000
FFFFFFFFF8
FFFFFFFFF8
FFFFFFFFF8
FFFFFFFFF8
FFFFFFFFF8
FFFFFFFFF8
FFFFFFFFF8
ENDCHAR
STARTCHAR 013A
ENCODING 314
SWIDTH 223 0
DWIDTH 18 0
BBX 17 76 5 0
BITMAP
00FF80
01FE00
03FC00
03F800
07F000
0FE000
0FC000
1F8000
3F0000
3E0000
7C0000
F80000
000000
000000
000000
000000
000000
FE0000
FE0000
FE0000
FE0000
FE0000
FE0000
FE0000
FE0000
FE0000
FE0000
FE0000
FE0000
FE0000
FE0000
FE0000
FE0000
FE0000
FE0000
FE0000
FE0000
FE0000
FE0000
FE0000
FE0000
FE0000
FE0000
FE0000
FE0000
FE0000
FE0000
FE0000
FE0000
FE0000
FE0000
FE0000
FE0000
FE0000
FE0000
FE0000
FE0000
FE0000
FE0000
FE0000
FE0000
FE0000
FE0000
FE0000
FE0000
FE0000
FE0000
FE0000
FE0000
FE0000
FE0000
FE0000
FE0000
FE0000
FE0000
FE0000
ENDCHAR
STARTCHAR 013B
ENCODING 315
SWIDTH 558 0
DWIDTH 45 0
BBX 37 82 6 -23
BITMAP
FF00000000
FF00000000
FF00000000
FF00000000
FF00000000
FF00000000
FF00000000
FF00000000
FF00000000
FF00000000
FF00000000
FF00000000
FF00000000
FF00000000
FF00000000
FF00000000
FF00000000
FF00000000
FF00000000
FF00000000
FF00000000
FF00000000
FF00000000
FF00000000
FF00000000
FF00000000
FF00000000
FF00000000
FF00000000
FF00000000
FF00000000
FF00000000
FF00000000
FF00000000
FF00000000
FF00000000
FF00000000
FF00000000
FF00000000
FF00000000
FF00000000
FF00000000
FF00000000
FF00000000
FF00000000
FF00000000
FF00000000
FF00000000
FF00000000
FF00000000
FF00000000
FF00000000
FFFFFFFFF8
FFFFFFFFF8
FFFFFFFFF8
FFFFFFFFF8
FFFFFFFFF8
FFFFFFFFF8
FFFFFFFFF8
0000000000
0000000000
0000000000
0000000000
0000000000
0001FE0000
0001FE0000
0001FE0000
0001FE0000
0001FE0000
0001FE0000
0001FE0000
0001FE0000
00001E0000
00001E0000
00001E0000
00001C0000
00001C0000
00003C0000
0000780000
0001F80000
0001E00000
0001C00000
ENDCHAR
STARTCHAR 013C
ENCODING 316
SWIDTH 223 0
DWIDTH 18 0
BBX 8 82 5 -23
BITMAP
FE
FE
FE
FE
FE
FE
FE
FE
FE
FE
FE
FE
FE
FE
FE
FE
FE
FE
FE
FE
FE
FE
FE
FE
FE
FE
FE
FE
FE
FE
FE
FE
FE
FE
FE
FE
FE
FE
FE
FE
FE
FE
FE
FE
FE
FE
FE
FE
FE
FE
FE
FE
FE
FE
FE
FE
FE
FE
FE
00
00
00
00
00
FF
FF
FF
FF
FF
FF
FF
FF
07
07
0F
0F
0E
1E
3E
FC
F8
E0
ENDCHAR
STARTCHAR 013D
ENCODING 317
SWIDTH 558 0
DWIDTH 45 0
BBX 37 59 6 0
BITMAP
FF00FF0000
FF00FF0000
FF00FF0000
FF00FF0000
FF00FF0000
FF00FF0000
FF00FF0000
FF00FF0000
FF000F0000
FF000F0000
FF000F0000
FF000F0000
FF000E0000
FF001E0000
FF003E0000
FF00FC0000
FF00F80000
FF00E00000
FF00000000
FF00000000
FF00000000
FF00000000
FF00000000
FF00000000
FF00000000
FF00000000
FF00000000
FF00000000
FF00000000
FF00000000
FF00000000
FF00000000
FF00000000
FF00000000
FF00000000
FF00000000
FF00000000
FF00000000
FF00000000
FF00000000
FF00000000
FF00000000
FF00000000
FF00000000
FF00000000
FF00000000
FF00000000
FF00000000
FF00000000
FF00000000
FF00000000
FF00000000
FFFFFFFFF8
FFFFFFFFF8
FFFFFFFFF8
FFFFFFFFF8
FFFFFFFFF8
FFFFFFFFF8
FFFFFFFFF8
ENDCHAR
STARTCHAR 013E
ENCODING 318
SWIDTH 297 0
DWIDTH 24 0
BBX 20 59 5 0
BITMAP
FE0FF0
FE0FF0
FE0FF0
FE0FF0
FE0FF0
FE0FF0
FE0FF0
FE0FF0
FE00F0
FE00F0
FE00E0
FE00E0
FE01E0
FE01E0
FE03C0
FE0F80
FE0F00
FE0E00
FE0000
FE0000
FE0000
FE0000
FE0000
FE0000
FE0000
FE0000
FE0000
FE0000
FE0000
FE0000
FE0000
FE0000
FE0000
FE0000
FE0000
FE0000
FE0000
FE0000
FE0000
FE0000
FE0000
FE0000
FE0000
FE0000
FE0000
FE0000
FE0000
FE0000
FE0000
FE0000
FE0000
FE0000
FE0000
FE0000
FE0000
FE0000
FE0000
FE0000
FE0000
ENDCHAR
STARTCHAR 013F
ENCODING 319
SWIDTH 558 0
DWIDTH 45 0
BBX 37 59 6 0
BITMAP
FF00000000
FF00000000
FF00000000
FF00000000
FF00000000
FF00000000
FF00000000
FF00000000
FF00000000
FF00000000
FF00000000
FF00000000
FF00000000
FF00000000
FF00000000
FF00000000
FF00000000
FF00000000
FF00000000
FF00000000
FF00000000
FF00000000
FF00000000
FF00000000
FF00000000
FF00000000
FF0007FC00
FF0007FC00
FF0007FC00
FF0007FC00
FF0007FC00
FF0007FC00
FF0007FC00
FF0007FC00
FF00000000
FF00000000
FF00000000
FF00000000
FF00000000
FF00000000
FF00000000
FF00000000
FF00000000
FF00000000
FF00000000
FF00000000
FF00000000
FF00000000
FF00000000
FF00000000
FF00000000
FF00000000
FFFFFFFFF8
FFFFFFFFF8
FFFFFFFFF8
FFFFFFFFF8
FFFFFFFFF8
FFFFFFFFF8
FFFFFFFFF8
ENDCHAR
STARTCHAR 0140
ENCODING 320
SWIDTH 335 0
DWIDTH 27 0
BBX 20 59 6 0
BITMAP
FE0000
FE0000
FE0000
FE0000
FE0000
FE0000
FE0000
FE0000
FE0000
FE0000
FE0000
FE0000
FE0000
FE0000
FE0000
FE0000
FE0000
FE0000
FE0000
FE0000
FE0000
FE0000
FE0000
FE0000
FE0000
FE0000
FE0FF0
FE0FF0
FE0FF0
FE0FF0
FE0FF0
FE0FF0
FE0FF0
FE0FF0
FE0000
FE0000
FE0000
FE0000
FE0000
FE0000
FE0000
FE0000
FE0000
FE0000
FE0000
FE0000
FE0000
FE0000
FE0000
FE0000
FE0000
FE0000
FE0000
FE0000
FE0000
FE0000
FE0000
FE0000
FE0000
ENDCHAR
STARTCHAR 0141
ENCODING 321
SWIDTH 558 0
DWIDTH 45 0
BBX 44 59 0 0
BITMAP
03FC00000000
03FC00000000
03FC00000000
03FC00000000
03FC00000000
03FC00000000
03FC00000000
03FC00000000
03FC00000000
03FC00000000
03FC00000000
03FC00000000
03FC00000000
03FC00000000
03FC00000000
03FC00000000
03FC00100000
03FC00300000
03FC00700000
03FC01F00000
03FC03F00000
03FC0FF00000
03FC1FF00000
03FC3FC00000
03FCFF800000
03FDFF000000
03FFFC000000
03FFF8000000
03FFE0000000
03FFC0000000
03FF80000000
07FE00000000
1FFC00000000
3FFC00000000
FFFC00000000
FFFC00000000
FFFC00000000
FBFC00000000
E3FC00000000
C3FC00000000
83FC00000000
03FC00000000
03FC00000000
03FC00000000
03FC00000000
03FC00000000
03FC00000000
03FC00000000
03FC00000000
03FC00000000
03FC00000000
03FC00000000
03FFFFFFFFF0
03FFFFFFFFF0
03FFFFFFFFF0
03FFFFFFFFF0
03FFFFFFFFF0
03FFFFFFFFF0
03FFFFFFFFF0
ENDCHAR
STARTCHAR 0142
ENCODING 322
SWIDTH 223 0
DWIDTH 18 0
BBX 17 59 0 0
BITMAP
07F000
07F000
07F000
07F000
07F000
07F000
07F000
07F000
07F000
07F000
07F000
07F000
07F000
07F000
07F000
07F000
07F000
07F000
07F000
07F000
07F000
07F080
07F180
07F380
07FF80
07FF80
07FF00
07FE00
07FC00
0FF800
1FF000
7FF000
FFF000
FFF000
F7F000
E7F000
C7F000
07F000
07F000
07F000
07F000
07F000
07F000
07F000
07F000
07F000
07F000
07F000
07F000
07F000
07F000
07F000
07F000
07F000
07F000
07F000
07F000
07F000
07F000
ENDCHAR
STARTCHAR 0143
ENCODING 323
SWIDTH 720 0
DWIDTH 58 0
BBX 46 76 6 0
BITMAP
0000007FC000
000000FF8000
000000FF0000
000001FE0000
000001FC0000
000003F80000
000007F00000
000007E00000
00000FC00000
00001F800000
00001F000000
00003E000000
000000000000
000000000000
000000000000
000000000000
000000000000
FF80000001FC
FF80000001FC
FFC0000001FC
FFC0000001FC
FFE0000001FC
FFF0000001FC
FFF0000001FC
FFF8000001FC
FFFC000001FC
FFFC000001FC
FFFE000001FC
FFFF000001FC
FEFF000001FC
FE7F800001FC
FE7F800001FC
FE3FC00001FC
FE1FE00001FC
FE1FE00001FC
FE0FF00001FC
FE0FF80001FC
FE07F80001FC
FE03FC0001FC
FE03FE0001FC
FE01FE0001FC
FE00FF0001FC
FE00FF0001FC
FE007F8001FC
FE003FC001FC
FE003FC001FC
FE001FE001FC
FE001FF001FC
FE000FF001FC
FE0007F801FC
FE0007FC01FC
FE0003FC01FC
FE0001FE01FC
FE0001FE01FC
FE0000FF01FC
FE00007F81FC
FE00007F81FC
FE00003FC1FC
FE00003FE1FC
FE00001FE1FC
FE00000FF1FC
FE00000FF9FC
FE000007F9FC
FE000003FDFC
FE000003FDFC
FE000001FFFC
FE000000FFFC
FE000000FFFC
FE0000007FFC
FE0000007FFC
FE0000003FFC
FE0000001FFC
FE0000001FFC
FE0000000FFC
FE00000007FC
FE00000007FC
ENDCHAR
STARTCHAR 0144
ENCODING 324
SWIDTH 558 0
DWIDTH 45 0
BBX 33 60 6 0
BITMAP
00001FF000
00003FE000
00007FC000
00007F8000
0000FF0000
0000FE0000
0001FC0000
0003F80000
0003F00000
0007E00000
000FC00000
000F800000
0000000000
0000000000
0000000000
0000000000
0000000000
0001FF0000
FC0FFFE000
FC1FFFF800
FC3FFFFC00
FC7FFFFE00
FCFFFFFF00
FDFC07FF00
FFF001FF80
FFE0007F80
FFC0007F80
FF80003F80
FF00003F80
FF00003F80
FE00001F80
FE00001F80
FE00001F80
FE00001F80
FE00001F80
FC00001F80
FC00001F80
FC00001F80
FC00001F80
FC00001F80
FC00001F80
FC00001F80
FC00001F80
FC00001F80
FC00001F80
FC00001F80
FC00001F80
FC00001F80
FC00001F80
FC00001F80
FC00001F80
FC00001F80
FC00001F80
FC00001F80
FC00001F80
FC00001F80
FC00001F80
FC00001F80
FC00001F80
FC00001F80
ENDCHAR
STARTCHAR 0145
ENCODING 325
SWIDTH 720 0
DWIDTH 58 0
BBX 46 82 6 -23
BITMAP
FF80000001FC
FF80000001FC
FFC0000001FC
FFC0000001FC
FFE0000001FC
FFF0000001FC
FFF0000001FC
FFF8000001FC
FFFC000001FC
FFFC000001FC
FFFE000001FC
FFFF000001FC
FEFF000001FC
FE7F800001FC
FE7F800001FC
FE3FC00001FC
FE1FE00001FC
FE1FE00001FC
FE0FF00001FC
FE0FF80001FC
FE07F80001FC
FE03FC0001FC
FE03FE0001FC
FE01FE0001FC
FE00FF0001FC
FE00FF0001FC
FE007F8001FC
FE003FC001FC
FE003FC001FC
FE001FE001FC
FE001FF001FC
FE000FF001FC
FE0007F801FC
FE0007FC01FC
FE0003FC01FC
FE0001FE01FC
FE0001FE01FC
FE0000FF01FC
FE00007F81FC
FE00007F81FC
FE00003FC1FC
FE00003FE1FC
FE00001FE1FC
FE00000FF1FC
FE00000FF9FC
FE000007F9FC
FE000003FDFC
FE000003FDFC
FE000001FFFC
FE000000FFFC
FE000000FFFC
FE0000007FFC
FE0000007FFC
FE0000003FFC
FE0000001FFC
FE0000001FFC
FE0000000FFC
FE00000007FC
FE00000007FC
000000000000
000000000000
000000000000
000000000000
000000000000
00003FC00000
00003FC00000
00003FC00000
00003FC00000
00003FC00000
00003FC00000
00003FC00000
00003FC00000
000003C00000
000003C00000
000003C00000
000003C00000
000003800000
000007800000
00000F800000
00003F000000
00003E000000
000038000000
ENDCHAR
STARTCHAR 0146
ENCODING 326
SWIDTH 558 0
DWIDTH 45 0
BBX 33 66 6 -23
BITMAP
0001FF0000
FC0FFFE000
FC1FFFF800
FC3FFFFC00
FC7FFFFE00
FCFFFFFF00
FDFC07FF00
FFF001FF80
FFE0007F80
FFC0007F80
FF80003F80
FF00003F80
FF00003F80
FE00001F80
FE00001F80
FE00001F80
FE00001F80
FE00001F80
FC00001F80
FC00001F80
FC00001F80
FC00001F80
FC00001F80
FC00001F80
FC00001F80
FC00001F80
FC00001F80
FC00001F80
FC00001F80
FC00001F80
FC00001F80
FC00001F80
FC00001F80
FC00001F80
FC00001F80
FC00001F80
FC00001F80
FC00001F80
FC00001F80
FC00001F80
FC00001F80
FC00001F80
FC00001F80
0000000000
0000000000
0000000000
0000000000
0000000000
000FF80000
000FF80000
000FF80000
000FF80000
000FF80000
000FF80000
000FF80000
000FF80000
0000780000
0000700000
0000700000
0000700000
0000F00000
0000E00000
0003E00000
000FC00000
000F800000
000E000000
ENDCHAR
STARTCHAR 0147
ENCODING 327
SWIDTH 720 0
DWIDTH 58 0
BBX 46 76 6 0
BITMAP
000F8007C000
000FC00FC000
0007E01F8000
0003F01F0000
0003F03F0000
0001F87E0000
0000FCFE0000
0000FFFC0000
00007FF80000
00003FF80000
00003FF00000
00001FE00000
000000000000
000000000000
000000000000
000000000000
000000000000
FF80000001FC
FF80000001FC
FFC0000001FC
FFC0000001FC
FFE0000001FC
FFF0000001FC
FFF0000001FC
FFF8000001FC
FFFC000001FC
FFFC000001FC
FFFE000001FC
FFFF000001FC
FEFF000001FC
FE7F800001FC
FE7F800001FC
FE3FC00001FC
FE1FE00001FC
FE1FE00001FC
FE0FF00001FC
FE0FF80001FC
FE07F80001FC
FE03FC0001FC
FE03FE0001FC
FE01FE0001FC
FE00FF0001FC
FE00FF0001FC
FE007F8001FC
FE003FC001FC
FE003FC001FC
FE001FE001FC
FE001FF001FC
FE000FF001FC
FE0007F801FC
FE0007FC01FC
FE0003FC01FC
FE0001FE01FC
FE0001FE01FC
FE0000FF01FC
FE00007F81FC
FE00007F81FC
FE00003FC1FC
FE00003FE1FC
FE00001FE1FC
FE00000FF1FC
FE00000FF9FC
FE000007F9FC
FE000003FDFC
FE000003FDFC
FE000001FFFC
FE000000FFFC
FE000000FFFC
FE0000007FFC
FE0000007FFC
FE0000003FFC
FE0000001FFC
FE0000001FFC
FE0000000FFC
FE00000007FC
FE00000007FC
ENDCHAR
STARTCHAR 0148
ENCODING 328
SWIDTH 558 0
DWIDTH 45 0
BBX 33 60 6 0
BITMAP
07C003F000
03E003E000
03F007C000
01F80FC000
00FC1F8000
00FC3F8000
007E3F0000
003F7E0000
003FFE0000
001FFC0000
001FF80000
000FF80000
0000000000
0000000000
0000000000
0000000000
0000000000
0001FF0000
FC0FFFE000
FC1FFFF800
FC3FFFFC00
FC7FFFFE00
FCFFFFFF00
FDFC07FF00
FFF001FF80
FFE0007F80
FFC0007F80
FF80003F80
FF00003F80
FF00003F80
FE00001F80
FE00001F80
FE00001F80
FE00001F80
FE00001F80
FC00001F80
FC00001F80
FC00001F80
FC00001F80
FC00001F80
FC00001F80
FC00001F80
FC00001F80
FC00001F80
FC00001F80
FC00001F80
FC00001F80
FC00001F80
FC00001F80
FC00001F80
FC00001F80
FC00001F80
FC00001F80
FC00001F80
FC00001F80
FC00001F80
FC00001F80
FC00001F80
FC00001F80
FC00001F80
ENDCHAR
STARTCHAR 0149
ENCODING 329
SWIDTH 608 0
DWIDTH 49 0
BBX 42 61 1 0
BITMAP
FF0000000000
FF0000000000
FF0000000000
FF0000000000
FF0000000000
FF0000000000
FF0000000000
FF0000000000
0F0000000000
0F0000000000
0F0000000000
0E0000000000
0E0000000000
1E0000000000
7C0000000000
F80000000000
E00000000000
000000000000
000000FF8000
00FE07FFF000
00FE0FFFFC00
00FE3FFFFE00
00FE7FFFFF00
00FE7FFFFF80
00FEFE03FF80
00FFF800FFC0
00FFF0007FC0
00FFE0003FC0
00FFC0001FC0
00FF80001FC0
00FF80001FC0
00FF00001FC0
00FF00001FC0
00FF00001FC0
00FF00001FC0
00FE00001FC0
00FE00001FC0
00FE00001FC0
00FE00001FC0
00FE00001FC0
00FE00001FC0
00FE00001FC0
00FE00001FC0
00FE00001FC0
00FE00001FC0
00FE00001FC0
00FE00001FC0
00FE00001FC0
00FE00001FC0
00FE00001FC0
00FE00001FC0
00FE00001FC0
00FE00001FC0
00FE00001FC0
00FE00001FC0
00FE00001FC0
00FE00001FC0
00FE00001FC0
00FE00001FC0
00FE00001FC0
00FE00001FC0
ENDCHAR
ENDFONT
